<svg width="32" height="32" viewBox="0 0 32 32" fill="none" xmlns="http://www.w3.org/2000/svg">
<rect width="32" height="32" rx="8" fill="#F7F8F9"/>
<g clip-path="url(#clip0_1995_32916)">
<path d="M12.4834 15.4141H18.7725C19.6354 15.4141 20.335 14.7145 20.335 13.8516V7.5625C20.335 6.69957 19.6354 6 18.7725 6H12.4834C11.6205 6 10.9209 6.69957 10.9209 7.5625V13.8516C10.9209 14.7145 11.6205 15.4141 12.4834 15.4141ZM13.2299 12.8422L14.9901 8.22074C14.9918 8.21629 14.9935 8.21184 14.9953 8.20742C15.1021 7.94645 15.3533 7.77762 15.6353 7.77734H15.636C15.9177 7.77734 16.1689 7.94559 16.2761 8.20617C16.2783 8.21148 16.2804 8.21684 16.2824 8.22223L18.0266 12.8439C18.1408 13.1467 17.988 13.4847 17.6853 13.599C17.6171 13.6247 17.5472 13.6369 17.4785 13.6369C17.2417 13.6369 17.0187 13.4923 16.9302 13.2577L16.6389 12.4857H14.6197L14.325 13.2593C14.2098 13.5617 13.8713 13.7135 13.5689 13.5983C13.2665 13.4832 13.1148 13.1446 13.2299 12.8422Z" fill="#A59DC3"/>
<path d="M15.6341 9.82278L15.0662 11.3139H16.1967L15.6341 9.82278Z" fill="#A59DC3"/>
<path d="M10.8758 21.6936C10.8758 21.6936 9.95512 21.6943 9.8623 21.6947V23.0483C10.2387 23.0468 10.6899 23.0452 10.8758 23.0452C11.2484 23.0452 11.5516 22.742 11.5516 22.3694C11.5516 21.9968 11.2484 21.6936 10.8758 21.6936Z" fill="#A59DC3"/>
<path d="M13.8516 16.5859H7.5625C6.69957 16.5859 6 17.2855 6 18.1484V24.4375C6 25.3004 6.69957 26 7.5625 26H13.8516C14.7145 26 15.4141 25.3004 15.4141 24.4375V18.1484C15.4141 17.2855 14.7145 16.5859 13.8516 16.5859ZM10.8759 24.2171C10.5355 24.2171 9.29156 24.2226 9.27906 24.2227C9.2782 24.2227 9.27734 24.2227 9.27648 24.2227C9.12156 24.2227 8.97293 24.1613 8.86309 24.052C8.75262 23.942 8.69055 23.7925 8.69055 23.6367V18.9492C8.69055 18.6256 8.95289 18.3633 9.27648 18.3633H10.6381C11.5559 18.3633 12.3026 19.11 12.3026 20.0278C12.3026 20.3609 12.2039 20.6712 12.0347 20.9318C12.4544 21.2707 12.7236 21.7891 12.7236 22.3694C12.7236 23.3882 11.8947 24.2171 10.8759 24.2171Z" fill="#A59DC3"/>
<path d="M11.1307 20.0278C11.1307 19.7561 10.9096 19.5352 10.638 19.5352H9.8623V20.5218C9.8623 20.5218 10.5362 20.5205 10.638 20.5205C10.9096 20.5205 11.1307 20.2995 11.1307 20.0278Z" fill="#A59DC3"/>
<path d="M24.4375 16.5859H18.1484C17.2855 16.5859 16.5859 17.2855 16.5859 18.1484V24.4375C16.5859 25.3004 17.2855 26 18.1484 26H24.4375C25.3004 26 26 25.3004 26 24.4375V18.1484C26 17.2855 25.3004 16.5859 24.4375 16.5859ZM23.6521 23.3516C23.5749 23.4436 23.491 23.5302 23.4026 23.6089C22.9518 24.0104 22.3722 24.2227 21.7266 24.2227C20.1111 24.2227 18.7969 22.9084 18.7969 21.293C18.7969 19.6775 20.1111 18.3633 21.7266 18.3633C22.3136 18.3633 22.8801 18.5364 23.365 18.8639C23.6332 19.0451 23.7037 19.4093 23.5225 19.6775C23.3414 19.9456 22.9771 20.0162 22.709 19.835C22.4186 19.6389 22.0789 19.5352 21.7266 19.5352C20.7573 19.5352 19.9688 20.3237 19.9688 21.293C19.9688 22.2622 20.7573 23.0508 21.7266 23.0508C22.0854 23.0508 22.387 22.9441 22.6232 22.7338C22.6693 22.6927 22.7134 22.6472 22.7542 22.5986C22.9621 22.3506 23.3317 22.3182 23.5796 22.5261C23.8276 22.7341 23.86 23.1036 23.6521 23.3516Z" fill="#A59DC3"/>
</g>
<defs>
<clipPath id="clip0_1995_32916">
<rect width="20" height="20" fill="white" transform="translate(6 6)"/>
</clipPath>
</defs>
</svg>
