<svg width="31" height="32" viewBox="0 0 31 32" fill="none" xmlns="http://www.w3.org/2000/svg">
<rect width="31" height="32" rx="8" fill="white"/>
<path d="M20.8986 16.5957C20.9264 19.5894 23.5249 20.5856 23.5536 20.5983C23.5316 20.6685 23.1384 22.018 22.1847 23.4118C21.3602 24.6169 20.5044 25.8175 19.1564 25.8424C17.8319 25.8668 17.406 25.0569 15.8916 25.0569C14.3777 25.0569 13.9045 25.8175 12.6507 25.8668C11.3495 25.916 10.3586 24.5637 9.52736 23.363C7.82854 20.9071 6.53033 16.423 8.2735 13.3963C9.13946 11.8931 10.6871 10.9413 12.3668 10.9169C13.6445 10.8926 14.8505 11.7765 15.6316 11.7765C16.4122 11.7765 17.8777 10.7135 19.4184 10.8696C20.0634 10.8965 21.8739 11.1301 23.0365 12.8318C22.9427 12.8899 20.8762 14.093 20.8986 16.5958M18.4093 9.24479C19.1002 8.40859 19.5651 7.24458 19.4383 6.0863C18.4425 6.12632 17.2385 6.74985 16.5242 7.58554C15.8841 8.32566 15.3236 9.51018 15.4749 10.6455C16.5848 10.7314 17.7185 10.0815 18.4093 9.24479Z" fill="black"/>
</svg>
