<svg width="32" height="32" viewBox="0 0 32 32" fill="none" xmlns="http://www.w3.org/2000/svg">
<rect width="32" height="32" rx="8" fill="white"/>
<g clip-path="url(#clip0_820_26523)">
<path d="M8.40642 12.3354C8.12595 12.6673 7.67712 12.9291 7.22833 12.8917C7.17223 12.4429 7.39193 11.9661 7.64907 11.6715C7.92953 11.3303 8.42044 11.0872 8.81781 11.0685C8.86456 11.536 8.68221 11.9941 8.40642 12.3354ZM8.81319 12.9806C8.16335 12.9432 7.60705 13.3498 7.29849 13.3498C6.9853 13.3498 6.51309 12.9992 5.99886 13.0086C5.33037 13.0179 4.70858 13.3966 4.3673 13.9997C3.66605 15.2058 4.185 16.9917 4.86284 17.9734C5.19477 18.4596 5.59214 18.9925 6.11572 18.9738C6.6113 18.9551 6.80763 18.6513 7.40605 18.6513C8.00909 18.6513 8.18209 18.9738 8.70567 18.9645C9.24795 18.9551 9.58923 18.4783 9.92116 17.9921C10.2998 17.4405 10.4541 16.9028 10.4634 16.8748C10.4541 16.8654 9.41628 16.4681 9.40693 15.2712C9.39758 14.2708 10.225 13.794 10.2624 13.7659C9.79491 13.074 9.06565 12.9992 8.81319 12.9806ZM12.5672 11.6248V18.9131H13.6985V16.4213H15.2646C16.6951 16.4213 17.7003 15.4396 17.7003 14.0184C17.7003 12.5972 16.7138 11.6248 15.302 11.6248L12.5672 11.6248ZM13.6985 12.5785H15.0028C15.9846 12.5785 16.5456 13.1021 16.5456 14.023C16.5456 14.944 15.9846 15.4723 14.9981 15.4723H13.6985V12.5785ZM19.7666 18.9691C20.4772 18.9691 21.1363 18.6092 21.4355 18.0388H21.4589V18.913H22.5061V15.2853C22.5061 14.2334 21.6646 13.5556 20.3696 13.5556C19.1681 13.5556 18.2799 14.2428 18.2472 15.1871H19.2663C19.3505 14.7383 19.7665 14.4438 20.3369 14.4438C21.0288 14.4438 21.4168 14.7664 21.4168 15.3601V15.7621L20.0049 15.8462C18.6913 15.9257 17.9807 16.4634 17.9807 17.3984C17.9807 18.3427 18.7147 18.9691 19.7666 18.9691ZM20.0704 18.1043C19.4674 18.1043 19.084 17.8145 19.084 17.3703C19.084 16.9122 19.4533 16.6457 20.1593 16.6036L21.4168 16.5242V16.9355C21.4168 17.6181 20.8371 18.1043 20.0704 18.1043M23.9039 20.8952C25.0072 20.8952 25.5261 20.4745 25.9796 19.1982L27.9664 13.6257H26.8164L25.484 17.9313H25.4606L24.1283 13.6257H22.9455L24.8622 18.9317L24.7594 19.2543C24.5864 19.8013 24.3059 20.0117 23.8057 20.0117C23.7169 20.0117 23.5439 20.0023 23.4738 19.993V20.8672C23.5392 20.8859 23.8197 20.8952 23.9039 20.8952" fill="#3E4958"/>
</g>
<defs>
<clipPath id="clip0_820_26523">
<rect width="24" height="9.86301" fill="white" transform="translate(4 11.0685)"/>
</clipPath>
</defs>
</svg>
