<svg width="32" height="32" viewBox="0 0 32 32" fill="none" xmlns="http://www.w3.org/2000/svg">
<rect width="32" height="32" rx="8" fill="#F7F8F9"/>
<path d="M7.23558 20.1859C6.6075 18.8734 6.28906 17.4651 6.28906 16C6.28906 10.6454 10.6454 6.28906 16 6.28906C18.1274 6.28906 20.1501 6.96896 21.8207 8.22519L20.2133 8.43681C19.8604 8.48326 19.612 8.80703 19.6584 9.15993C19.7049 9.51288 20.0287 9.76128 20.3816 9.71483L23.4065 9.3166C23.7594 9.27015 24.0079 8.94638 23.9614 8.59348L23.5631 5.56856C23.5167 5.21566 23.1929 4.96721 22.84 5.01366H22.84C22.4871 5.06011 22.2386 5.38388 22.2851 5.73679L22.4643 7.09773C20.5972 5.73588 18.3553 5 16 5C13.0618 5 10.2995 6.14417 8.2218 8.2218C6.14421 10.2995 5 13.0618 5 16C5 17.6592 5.36094 19.2548 6.07284 20.7424C6.2265 21.0635 6.61133 21.1992 6.93243 21.0456C7.2535 20.8919 7.38923 20.507 7.23558 20.1859Z" fill="#A59DC3"/>
<path d="M16 11V20M16 20L19.5 16.5M16 20L12.5 16.5" stroke="#A59DC3" stroke-width="1.5" stroke-linecap="round" stroke-linejoin="round"/>
<path d="M25.9271 11.2576C25.7735 10.9365 25.3886 10.8008 25.0675 10.9544C24.7465 11.1081 24.6107 11.4929 24.7643 11.814C25.3925 13.1266 25.7109 14.5349 25.7109 16C25.7109 21.3546 21.3546 25.7109 16 25.7109C13.8726 25.7109 11.8499 25.031 10.1792 23.7748L11.7866 23.5632C12.1395 23.5167 12.388 23.193 12.3415 22.8401C12.2951 22.4871 11.9713 22.2387 11.6184 22.2852L8.59344 22.6834C8.24054 22.7299 7.99209 23.0536 8.03854 23.4065L8.43682 26.4314C8.48327 26.7843 8.80704 27.0328 9.15994 26.9863C9.51284 26.9399 9.76133 26.6161 9.71488 26.2632L9.5357 24.9023C11.4028 26.2641 13.6447 27 16 27C18.9382 27 21.7005 25.8558 23.7782 23.7782C25.8557 21.7005 27 18.9382 27 16C27 14.3408 26.639 12.7452 25.9271 11.2576Z" fill="#A59DC3"/>
</svg>
