<svg width="32" height="32" viewBox="0 0 32 32" fill="none" xmlns="http://www.w3.org/2000/svg">
<rect width="32" height="32" rx="8" fill="#F6F5FA"/>
<g clip-path="url(#clip0_2309_16822)">
<path d="M27.366 23.766L24.366 18.586C24.3435 18.5471 24.311 18.5149 24.2718 18.4929C24.2326 18.471 24.1882 18.46 24.1433 18.4611C24.0983 18.4622 24.0545 18.4754 24.0165 18.4993C23.9784 18.5233 23.9475 18.557 23.927 18.597C23.5248 19.3887 22.9048 20.0491 22.14 20.5004C21.3753 20.9518 20.4975 21.1754 19.61 21.145C19.5745 21.1436 19.539 21.1498 19.5061 21.1633C19.4731 21.1767 19.4434 21.1971 19.419 21.223C19.1345 21.5208 18.8105 21.7782 18.456 21.988C18.3999 22.0222 18.3594 22.0772 18.3433 22.1409C18.3272 22.2047 18.3368 22.2722 18.37 22.329L21.312 27.307C21.4087 27.4699 21.5498 27.6019 21.7186 27.6878C21.8875 27.7736 22.0773 27.8098 22.2658 27.7919C22.4544 27.7741 22.6341 27.7031 22.7839 27.5872C22.9337 27.4712 23.0475 27.3151 23.112 27.137L23.944 24.849L26.336 25.254C26.5233 25.2855 26.7156 25.2631 26.8906 25.1893C27.0656 25.1156 27.2159 24.9935 27.3241 24.8374C27.4322 24.6813 27.4937 24.4977 27.5013 24.308C27.5089 24.1182 27.4623 23.9302 27.367 23.766H27.366Z" fill="#A59DC3"/>
<path d="M12.583 21.224C12.5586 21.1981 12.5289 21.1777 12.496 21.1643C12.463 21.1508 12.4276 21.1446 12.392 21.146C11.5046 21.1765 10.627 20.9531 9.8621 20.5021C9.09723 20.0511 8.47692 19.3912 8.07402 18.6C8.05347 18.5601 8.02259 18.5264 7.9846 18.5025C7.94661 18.4786 7.9029 18.4653 7.85802 18.464C7.81298 18.4625 7.7684 18.4734 7.72909 18.4954C7.68978 18.5174 7.65725 18.5498 7.63502 18.589L4.63502 23.77C4.53992 23.9343 4.49355 24.1223 4.50133 24.3119C4.50911 24.5016 4.57072 24.6852 4.67895 24.8411C4.78719 24.9971 4.93758 25.119 5.11255 25.1927C5.28752 25.2663 5.47984 25.2886 5.66702 25.257L8.05802 24.852L8.89102 27.141C8.95588 27.3189 9.06993 27.4748 9.2199 27.5904C9.36987 27.7061 9.54959 27.7767 9.73816 27.7942C9.92673 27.8117 10.1164 27.7753 10.2851 27.6892C10.4538 27.6032 10.5945 27.471 10.691 27.308L13.632 22.332C13.6652 22.2752 13.6748 22.2077 13.6587 22.1439C13.6426 22.0802 13.6022 22.0252 13.546 21.991C13.1918 21.7801 12.8678 21.5221 12.583 21.224Z" fill="#A59DC3"/>
<path d="M18.813 19.5C19.3663 19.6753 19.9572 19.6952 20.5211 19.5576C21.085 19.42 21.6003 19.1302 22.0107 18.7198C22.4212 18.3093 22.711 17.794 22.8486 17.2301C22.9862 16.6662 22.9663 16.0754 22.791 15.522C23.306 15.2546 23.7377 14.8509 24.0391 14.3549C24.3404 13.859 24.4997 13.2898 24.4997 12.7095C24.4997 12.1292 24.3404 11.56 24.0391 11.0641C23.7377 10.5681 23.306 10.1644 22.791 9.897C22.9663 9.34365 22.9862 8.75278 22.8486 8.18888C22.711 7.62497 22.4212 7.10968 22.0107 6.69924C21.6003 6.28881 21.085 5.99898 20.5211 5.86139C19.9572 5.72379 19.3663 5.74372 18.813 5.919C18.5455 5.40375 18.1417 4.97184 17.6456 4.67039C17.1494 4.36894 16.58 4.20952 15.9995 4.20952C15.419 4.20952 14.8496 4.36894 14.3534 4.67039C13.8573 4.97184 13.4535 5.40375 13.186 5.919C12.6329 5.74403 12.0425 5.72422 11.479 5.86171C10.9154 5.9992 10.4005 6.28872 9.99014 6.69873C9.57982 7.10874 9.2899 7.62351 9.15199 8.18693C9.01407 8.75036 9.03344 9.34083 9.20799 9.894C8.69296 10.1614 8.26125 10.5651 7.95993 11.0611C7.65861 11.557 7.49927 12.1262 7.49927 12.7065C7.49927 13.2868 7.65861 13.856 7.95993 14.3519C8.26125 14.8479 8.69296 15.2516 9.20799 15.519C9.03188 16.0726 9.01135 16.664 9.14865 17.2285C9.28595 17.7931 9.5758 18.309 9.9865 18.7199C10.3972 19.1308 10.913 19.4209 11.4774 19.5585C12.0419 19.6961 12.6333 19.6758 13.187 19.5C13.4543 20.0153 13.858 20.4472 14.3541 20.7487C14.8501 21.0502 15.4195 21.2097 16 21.2097C16.5805 21.2097 17.1498 21.0502 17.6459 20.7487C18.142 20.4472 18.5457 20.0153 18.813 19.5ZM12.38 13.788C12.3084 13.7188 12.2513 13.636 12.212 13.5445C12.1728 13.453 12.1521 13.3545 12.1513 13.2549C12.1505 13.1554 12.1695 13.0566 12.2073 12.9645C12.245 12.8723 12.3008 12.7886 12.3712 12.7182C12.4417 12.6478 12.5254 12.5922 12.6176 12.5545C12.7098 12.5168 12.8086 12.4979 12.9082 12.4988C13.0077 12.4997 13.1061 12.5205 13.1976 12.5598C13.2891 12.5992 13.3718 12.6563 13.441 12.728L15.169 14.455L18.9 9.576C19.0209 9.41793 19.1997 9.31438 19.397 9.28812C19.5943 9.26187 19.7939 9.31506 19.952 9.436C20.1101 9.55694 20.2136 9.73572 20.2399 9.93301C20.2661 10.1303 20.2129 10.3299 20.092 10.488L16.36 15.362C16.2303 15.5328 16.0655 15.6739 15.8767 15.7756C15.6878 15.8773 15.4794 15.9373 15.2654 15.9516C15.0514 15.966 14.8368 15.9342 14.6361 15.8585C14.4354 15.7829 14.2533 15.665 14.102 15.513L12.38 13.788Z" fill="#A59DC3"/>
</g>
<defs>
<clipPath id="clip0_2309_16822">
<rect width="24" height="24" fill="white" transform="translate(4 4)"/>
</clipPath>
</defs>
</svg>
