<svg width="32" height="32" viewBox="0 0 32 32" fill="none" xmlns="http://www.w3.org/2000/svg">
<rect width="32" height="32" rx="8" fill="#F6F5FA"/>
<g clip-path="url(#clip0_1992_32901)">
<path d="M25.7805 19.9604C26.0263 19.4317 25.9713 19.1679 25.9713 17.5496C25.9713 15.2819 25.4956 13.0856 24.5571 11.0211C24.4316 10.7457 24.2498 10.5068 24.0289 10.3155C24.2993 9.84012 24.2524 9.48572 24.2524 8.78054C24.2524 7.83256 23.4815 7.06162 22.5335 7.06162H19.7832C18.8352 7.06162 18.0643 7.83256 18.0643 8.78054C18.0643 9.45517 18.0154 9.83651 18.2878 10.3155C18.0669 10.5068 17.8851 10.7457 17.7596 11.0211C16.2276 14.391 16.3454 16.9589 16.3454 19.094C16.3454 19.4034 16.4137 19.6969 16.5362 19.9604C16.3398 20.0485 16.1598 20.1662 16.0016 20.308C15.8435 20.1662 15.6634 20.0485 15.467 19.9604C15.5895 19.6969 15.6578 19.4034 15.6578 19.094C15.6578 16.9425 15.7771 14.3942 14.2436 11.0211C14.1181 10.7457 13.9363 10.5068 13.7155 10.3155C13.9858 9.84012 13.9389 9.48572 13.9389 8.78054C13.9389 7.83256 13.168 7.06162 12.22 7.06162H9.46974C8.52176 7.06162 7.75082 7.83256 7.75082 8.78054C7.75082 9.45517 7.70188 9.83651 7.97428 10.3155C7.7534 10.5068 7.57163 10.7457 7.44614 11.0211C6.50762 13.0856 6.03191 15.2819 6.03191 17.5496C6.03191 19.1312 5.97484 19.4272 6.22271 19.9604C3.8766 21.0122 5.12879 24.9383 8.09461 24.9383H13.5951C14.5663 24.9383 15.4339 24.4888 16.0016 23.7867C16.5693 24.4888 17.4369 24.9383 18.4081 24.9383H23.9086C26.906 24.9383 28.1015 21.001 25.7805 19.9604ZM18.4081 16.6875C18.4081 15.5501 19.3333 14.6248 20.4708 14.6248H21.8459C22.9834 14.6248 23.9086 15.5501 23.9086 16.6875V19.7816H22.5335V16.6875C22.5335 16.3085 22.2249 16 21.8459 16H20.4708C20.0918 16 19.7832 16.3085 19.7832 16.6875V19.7816H18.4081V16.6875ZM8.09461 16.6875C8.09461 15.5501 9.01981 14.6248 10.1573 14.6248H11.5324C12.6699 14.6248 13.5951 15.5501 13.5951 16.6875V19.7816H12.22V16.6875C12.22 16.3085 11.9115 16 11.5324 16H10.1573C9.77828 16 9.46974 16.3085 9.46974 16.6875V19.7816H8.09461V16.6875Z" fill="#A59DC3"/>
</g>
<defs>
<clipPath id="clip0_1992_32901">
<rect width="22" height="22" fill="white" transform="translate(5 5)"/>
</clipPath>
</defs>
</svg>
