<svg width="32" height="32" viewBox="0 0 32 32" fill="none" xmlns="http://www.w3.org/2000/svg">
<rect width="32" height="32" rx="8" fill="#F7F8F9"/>
<g clip-path="url(#clip0_1044_22988)">
<path fill-rule="evenodd" clip-rule="evenodd" d="M20.5834 6.83334C21.3128 6.83334 22.0122 7.12307 22.528 7.6388C23.0437 8.15453 23.3334 8.854 23.3334 9.58334V24.25C23.3333 24.4227 23.2844 24.5918 23.1924 24.7379C23.1005 24.884 22.9691 25.0011 22.8134 25.0758C22.6578 25.1505 22.4842 25.1798 22.3127 25.1602C22.1411 25.1406 21.9786 25.0729 21.8438 24.965L20.1251 23.59L18.4063 24.965C18.2302 25.1061 18.0083 25.1772 17.783 25.1649C17.5578 25.1526 17.3449 25.0576 17.1853 24.8981L16.0001 23.7128L14.8148 24.8981C14.6553 25.0577 14.4426 25.1529 14.2173 25.1654C13.992 25.1779 13.77 25.1069 13.5938 24.9659L11.8751 23.59L10.1563 24.965C10.0216 25.0729 9.85905 25.1406 9.68751 25.1602C9.51598 25.1798 9.34239 25.1505 9.18674 25.0758C9.0311 25.0011 8.89971 24.884 8.80772 24.7379C8.71572 24.5918 8.66686 24.4227 8.66675 24.25V9.58334C8.66675 8.854 8.95648 8.15453 9.4722 7.6388C9.98793 7.12307 10.6874 6.83334 11.4167 6.83334H20.5834ZM16.0001 16H13.2501C13.007 16 12.7738 16.0966 12.6019 16.2685C12.43 16.4404 12.3334 16.6736 12.3334 16.9167C12.3334 17.1598 12.43 17.393 12.6019 17.5649C12.7738 17.7368 13.007 17.8333 13.2501 17.8333H16.0001C16.2432 17.8333 16.4764 17.7368 16.6483 17.5649C16.8202 17.393 16.9167 17.1598 16.9167 16.9167C16.9167 16.6736 16.8202 16.4404 16.6483 16.2685C16.4764 16.0966 16.2432 16 16.0001 16ZM18.7501 12.3333H13.2501C13.0164 12.3336 12.7917 12.4231 12.6218 12.5835C12.4519 12.7438 12.3497 12.9631 12.336 13.1963C12.3223 13.4295 12.3982 13.6592 12.5482 13.8384C12.6981 14.0175 12.9108 14.1327 13.1428 14.1603L13.2501 14.1667H18.7501C18.9837 14.1664 19.2084 14.077 19.3783 13.9166C19.5482 13.7562 19.6505 13.537 19.6642 13.3037C19.6778 13.0705 19.602 12.8408 19.452 12.6617C19.302 12.4825 19.0893 12.3674 18.8573 12.3398L18.7501 12.3333Z" fill="#97ADB6"/>
</g>
<defs>
<clipPath id="clip0_1044_22988">
<rect width="22" height="22" fill="white" transform="translate(5 5)"/>
</clipPath>
</defs>
</svg>
