<svg width="32" height="32" viewBox="0 0 32 32" fill="none" xmlns="http://www.w3.org/2000/svg">
<rect width="32" height="32" rx="8" fill="#F7F8F9"/>
<path d="M22.6667 11H20.1667V9.33332C20.1667 8.41416 19.4192 7.66666 18.5001 7.66666H13.5001C12.5809 7.66666 11.8334 8.41416 11.8334 9.33332V11H9.33341C8.41425 11 7.66675 11.7475 7.66675 12.6667V15.1667H24.3334V12.6667C24.3334 11.7475 23.5859 11 22.6667 11ZM13.5001 9.33332H18.5001V11H13.5001V9.33332ZM17.6667 17.6667H14.3334V16H7.66675V21.8333C7.66675 22.7525 8.41425 23.5 9.33341 23.5H22.6667C23.5859 23.5 24.3334 22.7525 24.3334 21.8333V16H17.6667V17.6667Z" fill="#A59DC3"/>
</svg>
