<svg width="32" height="32" viewBox="0 0 32 32" fill="none" xmlns="http://www.w3.org/2000/svg">
<rect width="32" height="32" rx="8" fill="#ECDBC2"/>
<path d="M26 21.8333V12.6667H6V21.8333C6 22.9384 6.43899 23.9982 7.22039 24.7796C8.00179 25.561 9.0616 26 10.1667 26H21.8333C22.9384 26 23.9982 25.561 24.7796 24.7796C25.561 23.9982 26 22.9384 26 21.8333ZM12.6617 16.4133C12.6617 16.7442 12.5302 17.0615 12.2963 17.2954C12.0623 17.5294 11.745 17.6608 11.4142 17.6608C11.0833 17.6608 10.766 17.5294 10.5321 17.2954C10.2981 17.0615 10.1667 16.7442 10.1667 16.4133C10.1667 16.0825 10.2981 15.7652 10.5321 15.5312C10.766 15.2973 11.0833 15.1658 11.4142 15.1658C11.745 15.1658 12.0623 15.2973 12.2963 15.5312C12.5302 15.7652 12.6617 16.0825 12.6617 16.4133ZM12.6617 20.58C12.6617 20.9109 12.5302 21.2282 12.2963 21.4621C12.0623 21.6961 11.745 21.8275 11.4142 21.8275C11.0833 21.8275 10.766 21.6961 10.5321 21.4621C10.2981 21.2282 10.1667 20.9109 10.1667 20.58C10.1667 20.2491 10.2981 19.9318 10.5321 19.6979C10.766 19.4639 11.0833 19.3325 11.4142 19.3325C11.745 19.3325 12.0623 19.4639 12.2963 19.6979C12.5302 19.9318 12.6617 20.2491 12.6617 20.58ZM17.2483 16.4133C17.2483 16.7442 17.1169 17.0615 16.8829 17.2954C16.649 17.5294 16.3317 17.6608 16.0008 17.6608C15.67 17.6608 15.3527 17.5294 15.1187 17.2954C14.8848 17.0615 14.7533 16.7442 14.7533 16.4133C14.7533 16.0825 14.8848 15.7652 15.1187 15.5312C15.3527 15.2973 15.67 15.1658 16.0008 15.1658C16.3317 15.1658 16.649 15.2973 16.8829 15.5312C17.1169 15.7652 17.2483 16.0825 17.2483 16.4133ZM17.2483 20.58C17.2483 20.9109 17.1169 21.2282 16.8829 21.4621C16.649 21.6961 16.3317 21.8275 16.0008 21.8275C15.67 21.8275 15.3527 21.6961 15.1187 21.4621C14.8848 21.2282 14.7533 20.9109 14.7533 20.58C14.7533 20.2491 14.8848 19.9318 15.1187 19.6979C15.3527 19.4639 15.67 19.3325 16.0008 19.3325C16.3317 19.3325 16.649 19.4639 16.8829 19.6979C17.1169 19.9318 17.2483 20.2491 17.2483 20.58ZM21.8283 16.4133C21.8283 16.7442 21.6969 17.0615 21.4629 17.2954C21.229 17.5294 20.9117 17.6608 20.5808 17.6608C20.25 17.6608 19.9327 17.5294 19.6987 17.2954C19.4648 17.0615 19.3333 16.7442 19.3333 16.4133C19.3333 16.0825 19.4648 15.7652 19.6987 15.5312C19.9327 15.2973 20.25 15.1658 20.5808 15.1658C20.9117 15.1658 21.229 15.2973 21.4629 15.5312C21.6969 15.7652 21.8283 16.0825 21.8283 16.4133ZM26 10.1667C26 9.0616 25.561 8.00179 24.7796 7.22039C23.9982 6.43899 22.9384 6 21.8333 6H10.1667C9.0616 6 8.00179 6.43899 7.22039 7.22039C6.43899 8.00179 6 9.0616 6 10.1667V11H26V10.1667Z" fill="#957E5B"/>
</svg>
