<svg width="32" height="32" viewBox="0 0 32 32" fill="none" xmlns="http://www.w3.org/2000/svg">
<rect width="32" height="32" rx="8" fill="#E5DEFF"/>
<path fill-rule="evenodd" clip-rule="evenodd" d="M16.8035 25H13.778C10.657 25 9.096 25 7.975 24.265C7.489 23.946 7.073 23.537 6.749 23.061C6 21.96 6 20.428 6 17.364C6 14.299 6 12.767 6.75 11.667C7.07537 11.1892 7.49162 10.7801 7.975 10.463C8.696 9.991 9.598 9.821 10.978 9.761C11.637 9.761 12.204 9.271 12.333 8.636C12.527 7.685 13.378 7 14.366 7H17.634C18.1095 6.99681 18.5714 7.15787 18.9418 7.45595C19.3123 7.75404 19.5684 8.17087 19.667 8.636C19.796 9.271 20.363 9.761 21.022 9.761C22.403 9.821 23.305 9.99 24.025 10.463C24.5087 10.78 24.9253 11.1891 25.251 11.667C26 12.767 26 14.299 26 17.364C26 17.4195 26 17.4745 26 17.529C24.9382 16.5783 23.5362 16 22 16C21.3111 16 20.6492 16.1163 20.0329 16.3303C19.5664 14.5711 17.9374 13.273 16 13.273C13.699 13.273 11.833 15.104 11.833 17.363C11.833 19.623 13.699 21.455 16 21.455C16.0082 21.455 16.0163 21.455 16.0245 21.4549C16.0083 21.6345 16 21.8163 16 22C16 23.0926 16.2925 24.1173 16.8035 25ZM23.6135 24.4931C23.0421 24.7578 22.3493 24.8842 21.4253 24.9447C20.8583 24.8345 20.3166 24.5601 19.876 24.124C19.4686 23.7156 19.1875 23.1986 19.0662 22.6346C18.9449 22.0707 18.9886 21.4838 19.192 20.944C19.306 20.638 19.708 20.56 19.936 20.794C20.068 20.926 20.098 21.118 20.038 21.286C19.762 22.03 19.918 22.894 20.518 23.494C20.938 23.914 21.49 24.112 22.042 24.1V23.536C22.042 23.266 22.366 23.134 22.552 23.326L23.524 24.298C23.5793 24.3533 23.6091 24.4227 23.6135 24.4931ZM16.4234 19.7829C16.2858 19.806 16.1443 19.818 16 19.818C14.62 19.818 13.5 18.719 13.5 17.364C13.5 16.008 14.62 14.909 16 14.909C17.3014 14.909 18.3715 15.8863 18.4892 17.1348C17.5714 17.7985 16.8485 18.7155 16.4234 19.7829ZM21.556 13.273C21.095 13.273 20.722 13.639 20.722 14.091C20.723 14.1995 20.7454 14.3067 20.7879 14.4065C20.8304 14.5063 20.8921 14.5968 20.9696 14.6727C21.047 14.7487 21.1387 14.8087 21.2393 14.8492C21.3399 14.8897 21.4475 14.9101 21.556 14.909H22.667C22.8859 14.9109 23.0966 14.8258 23.2528 14.6724C23.409 14.519 23.4979 14.3099 23.5 14.091C23.5 13.639 23.126 13.273 22.666 13.273H21.556ZM23.9414 22.9808C23.9594 23.068 24.002 23.1482 24.064 23.212C24.292 23.446 24.688 23.368 24.802 23.056C25.0054 22.5162 25.0491 21.9293 24.9278 21.3654C24.8065 20.8014 24.5254 20.2844 24.118 19.876C23.524 19.276 22.738 18.994 21.958 19.006V18.52C21.9572 18.4613 21.9391 18.4041 21.9061 18.3555C21.8731 18.307 21.8266 18.2692 21.7723 18.2468C21.718 18.2245 21.6583 18.2185 21.6006 18.2298C21.543 18.241 21.4899 18.2689 21.448 18.31L20.476 19.282C20.356 19.402 20.356 19.588 20.476 19.708L21.454 20.674C21.64 20.866 21.964 20.734 21.964 20.464V19.9C22.51 19.888 23.062 20.092 23.482 20.512C24.082 21.112 24.238 21.976 23.962 22.72C23.9305 22.8032 23.9233 22.8937 23.9414 22.9808Z" fill="#A59DC3"/>
</svg>
