<svg width="32" height="32" viewBox="0 0 32 32" fill="none" xmlns="http://www.w3.org/2000/svg">
<rect width="32" height="32" rx="8" fill="#E5DEFF"/>
<path d="M18.0415 19.8176L19.4025 21.1785L22.1244 18.4566" stroke="#A59DC3" stroke-width="1.02074" stroke-linecap="round" stroke-linejoin="round"/>
<path fill-rule="evenodd" clip-rule="evenodd" d="M16.4649 21.859H14.4879C12.3641 21.859 11.3019 21.859 10.539 21.3589C10.2083 21.1418 9.92523 20.8635 9.70476 20.5396C9.19507 19.7903 9.19507 18.7478 9.19507 16.6628C9.19507 14.5771 9.19507 13.5346 9.70544 12.786C9.92685 12.4609 10.2101 12.1825 10.539 11.9667C11.0297 11.6455 11.6435 11.5299 12.5825 11.489C13.031 11.489 13.4168 11.1556 13.5046 10.7235C13.6366 10.0763 14.2157 9.6102 14.8881 9.6102H17.1119C17.4354 9.60803 17.7498 9.71763 18.0019 9.92047C18.2539 10.1233 18.4282 10.407 18.4953 10.7235C18.5831 11.1556 18.9689 11.489 19.4174 11.489C20.3572 11.5299 20.971 11.6449 21.4609 11.9667C21.7901 12.1825 22.0735 12.4608 22.2952 12.786C22.8049 13.5346 22.8049 14.5771 22.8049 16.6628C22.8049 16.6751 22.8049 16.6873 22.8049 16.6996C22.0714 16.0357 21.0985 15.6313 20.0313 15.6313C19.5699 15.6313 19.1261 15.7069 18.7117 15.8463C18.3563 14.707 17.2765 13.8789 16 13.8789C14.4342 13.8789 13.1644 15.1249 13.1644 16.6621C13.1644 18.1701 14.3852 19.3981 15.9089 19.4453C15.9008 19.5511 15.8967 19.658 15.8967 19.7659C15.8967 20.5297 16.1038 21.2451 16.4649 21.859ZM16.1543 18.3259C16.1035 18.3304 16.052 18.3327 16 18.3327C15.0609 18.3327 14.2987 17.5849 14.2987 16.6628C14.2987 15.7401 15.0609 14.9922 16 14.9922C16.8367 14.9922 17.533 15.5859 17.6748 16.3681C16.9868 16.8462 16.4508 17.5279 16.1543 18.3259ZM19.7808 13.8789C19.4671 13.8789 19.2132 14.128 19.2132 14.4356C19.214 14.5094 19.2292 14.5823 19.2581 14.6502C19.287 14.7182 19.329 14.7797 19.3817 14.8314C19.4344 14.8831 19.4968 14.9239 19.5653 14.9515C19.6337 14.9791 19.707 14.9929 19.7808 14.9922H20.5368C20.6858 14.9935 20.8291 14.9356 20.9354 14.8312C21.0417 14.7268 21.1022 14.5845 21.1036 14.4356C21.1036 14.128 20.8491 13.8789 20.5361 13.8789H19.7808Z" fill="#A59DC3"/>
<path d="M27.25 16C27.2545 18.9454 26.0998 21.7742 24.0353 23.875C23.967 23.948 23.8848 24.0066 23.7935 24.0474C23.7022 24.0882 23.6037 24.1103 23.5037 24.1125C23.4038 24.1147 23.3044 24.0968 23.2114 24.06C23.1185 24.0232 23.0338 23.9681 22.9624 23.8981C22.891 23.8281 22.8344 23.7446 22.7957 23.6523C22.7571 23.5601 22.7373 23.4611 22.7376 23.3611C22.7378 23.2611 22.758 23.1622 22.797 23.0701C22.836 22.978 22.893 22.8947 22.9647 22.825C24.7522 21.0038 25.7537 18.5538 25.7537 16.0019C25.7537 13.45 24.7522 11 22.9647 9.17875C22.8249 9.03677 22.7473 8.8451 22.7489 8.6459C22.7505 8.44671 22.8311 8.25629 22.9731 8.11656C23.1151 7.97682 23.3068 7.89921 23.506 7.90079C23.7052 7.90237 23.8956 7.98302 24.0353 8.125C26.0998 10.2258 27.2545 13.0546 27.25 16ZM9.0353 22.8231C9.10437 22.8934 9.15891 22.9766 9.19582 23.068C9.23273 23.1594 9.25128 23.2571 9.25041 23.3557C9.24954 23.4542 9.22926 23.5516 9.19075 23.6424C9.15223 23.7331 9.09623 23.8153 9.02593 23.8844C8.95563 23.9534 8.87242 24.008 8.78104 24.0449C8.68966 24.0818 8.59191 24.1003 8.49336 24.0995C8.39481 24.0986 8.2974 24.0783 8.20669 24.0398C8.11598 24.0013 8.03374 23.9453 7.96468 23.875C5.90047 21.7736 4.7439 18.9457 4.7439 16C4.7439 13.0543 5.90047 10.2264 7.96468 8.125C8.03298 8.05197 8.11519 7.99334 8.20648 7.95256C8.29777 7.91177 8.39629 7.88964 8.49625 7.88749C8.59622 7.88533 8.6956 7.90318 8.78856 7.94C8.88153 7.97681 8.96619 8.03184 9.03757 8.10185C9.10896 8.17186 9.16563 8.25544 9.20424 8.34767C9.24285 8.4399 9.26264 8.53892 9.26243 8.6389C9.26221 8.73889 9.24201 8.83782 9.20301 8.92989C9.164 9.02195 9.10698 9.10529 9.0353 9.175C7.24774 10.9962 6.24628 13.4462 6.24628 15.9981C6.24628 18.55 7.24774 21 9.0353 22.8212V22.8231Z" fill="#A59DC3"/>
</svg>
