<svg width="32" height="32" viewBox="0 0 32 32" fill="none" xmlns="http://www.w3.org/2000/svg">
<rect width="32" height="32" rx="8" fill="#E5DEFF"/>
<path d="M19 22L21 24L25 20" stroke="#A59DC3" stroke-width="1.5" stroke-linecap="round" stroke-linejoin="round"/>
<path fill-rule="evenodd" clip-rule="evenodd" d="M16.6831 25H13.778C10.657 25 9.096 25 7.975 24.265C7.489 23.946 7.073 23.537 6.749 23.061C6 21.96 6 20.428 6 17.364C6 14.299 6 12.767 6.75 11.667C7.07537 11.1892 7.49162 10.7801 7.975 10.463C8.696 9.991 9.598 9.821 10.978 9.761C11.637 9.761 12.204 9.271 12.333 8.636C12.527 7.685 13.378 7 14.366 7H17.634C18.1095 6.99681 18.5714 7.15787 18.9418 7.45595C19.3123 7.75404 19.5684 8.17087 19.667 8.636C19.796 9.271 20.363 9.761 21.022 9.761C22.403 9.821 23.305 9.99 24.025 10.463C24.5087 10.78 24.9253 11.1891 25.251 11.667C26 12.767 26 14.299 26 17.364C26 17.3821 26 17.4001 26 17.418C24.9221 16.4424 23.4925 15.8481 21.9241 15.8481C21.246 15.8481 20.5939 15.9592 19.9849 16.1641C19.4627 14.4899 17.8759 13.273 16 13.273C13.699 13.273 11.833 15.104 11.833 17.363C11.833 19.579 13.6271 21.3835 15.8661 21.4529C15.8542 21.6084 15.8481 21.7655 15.8481 21.9241C15.8481 23.0465 16.1525 24.0978 16.6831 25ZM16.2268 19.808C16.1521 19.8146 16.0764 19.818 16 19.818C14.62 19.818 13.5 18.719 13.5 17.364C13.5 16.008 14.62 14.909 16 14.909C17.2296 14.909 18.2528 15.7815 18.4612 16.9309C17.4501 17.6334 16.6625 18.6352 16.2268 19.808ZM21.556 13.273C21.095 13.273 20.722 13.639 20.722 14.091C20.723 14.1995 20.7454 14.3067 20.7879 14.4065C20.8304 14.5063 20.8921 14.5968 20.9696 14.6727C21.047 14.7487 21.1387 14.8087 21.2393 14.8492C21.3399 14.8897 21.4475 14.9101 21.556 14.909H22.667C22.8859 14.9109 23.0966 14.8258 23.2528 14.6724C23.409 14.519 23.4979 14.3099 23.5 14.091C23.5 13.639 23.126 13.273 22.666 13.273H21.556Z" fill="#A59DC3"/>
</svg>
