<svg width="32" height="32" viewBox="0 0 32 32" fill="none" xmlns="http://www.w3.org/2000/svg">
<g clip-path="url(#clip0_859_32454)">
<path d="M3.55556 0C2.61256 0 1.70819 0.51868 1.0414 1.44194C0.374602 2.36519 0 3.6174 0 4.92308L0 27.0769C0 28.3826 0.374602 29.6348 1.0414 30.5581C1.70819 31.4813 2.61256 32 3.55556 32H8.88889V0H3.55556ZM28.4444 0H23.1111V32H28.4444C29.3874 32 30.2918 31.4813 30.9586 30.5581C31.6254 29.6348 32 28.3826 32 27.0769V4.92308C32 3.6174 31.6254 2.36519 30.9586 1.44194C30.2918 0.51868 29.3874 0 28.4444 0Z" fill="#EA4335"/>
<path d="M9 0H23V32H9V0Z" fill="white"/>
<path d="M16.4101 18.9642C17.2088 19.0569 17.9248 19.1402 18.7228 19.2316L18.5194 18.5635C18.5045 18.5061 18.5065 18.4455 18.5253 18.3892C18.5441 18.3328 18.5789 18.2832 18.6254 18.2462L20.9448 16.3569L20.4648 16.1309C20.2534 16.0556 20.3114 15.9362 20.3881 15.6496L20.7421 14.3589L19.3948 14.6436C19.2634 14.6636 19.1761 14.5802 19.1561 14.5002L18.9821 13.8929L17.9168 15.0889C17.7654 15.2809 17.4588 15.2809 17.5541 14.8382L18.0094 12.4156L17.3981 12.7322C17.2268 12.8282 17.0554 12.8442 16.9601 12.6729L16.1168 11.0956L15.2734 12.6729C15.1774 12.8442 15.0061 12.8282 14.8348 12.7322L14.2241 12.4156L14.6794 14.8382C14.7754 15.2809 14.4681 15.2809 14.3168 15.0889L13.2514 13.8936L13.0781 14.5009C13.0581 14.5809 12.9701 14.6642 12.8388 14.6442L11.4914 14.3596L11.8454 15.6502C11.9208 15.9369 11.9794 16.0562 11.7681 16.1316L11.2881 16.3575L13.6074 18.2469C13.6994 18.3182 13.7461 18.4469 13.7128 18.5642L13.5094 19.2322L15.8228 18.9649C15.8934 18.9649 15.9401 19.0042 15.9394 19.0856L15.7968 21.5549H16.4341L16.2921 19.0856C16.2934 19.0036 16.3394 18.9642 16.4101 18.9642Z" fill="#EA4335"/>
</g>
<defs>
<clipPath id="clip0_859_32454">
<rect width="32" height="32" rx="8" fill="white"/>
</clipPath>
</defs>
</svg>
