<svg width="32" height="32" viewBox="0 0 32 32" fill="none" xmlns="http://www.w3.org/2000/svg">
<rect width="32" height="32" rx="8" fill="#FFE7E7"/>
<path d="M16 6C10.47 6 6 10.47 6 16C6 21.53 10.47 26 16 26C21.53 26 26 21.53 26 16C26 10.47 21.53 6 16 6ZM20.3 20.3C20.2075 20.3927 20.0976 20.4663 19.9766 20.5164C19.8557 20.5666 19.726 20.5924 19.595 20.5924C19.464 20.5924 19.3343 20.5666 19.2134 20.5164C19.0924 20.4663 18.9825 20.3927 18.89 20.3L16 17.41L13.11 20.3C12.923 20.487 12.6694 20.592 12.405 20.592C12.1406 20.592 11.887 20.487 11.7 20.3C11.513 20.113 11.408 19.8594 11.408 19.595C11.408 19.4641 11.4338 19.3344 11.4839 19.2135C11.534 19.0925 11.6074 18.9826 11.7 18.89L14.59 16L11.7 13.11C11.513 12.923 11.408 12.6694 11.408 12.405C11.408 12.1406 11.513 11.887 11.7 11.7C11.887 11.513 12.1406 11.408 12.405 11.408C12.6694 11.408 12.923 11.513 13.11 11.7L16 14.59L18.89 11.7C18.9826 11.6074 19.0925 11.534 19.2135 11.4839C19.3344 11.4338 19.4641 11.408 19.595 11.408C19.7259 11.408 19.8556 11.4338 19.9765 11.4839C20.0975 11.534 20.2074 11.6074 20.3 11.7C20.3926 11.7926 20.466 11.9025 20.5161 12.0235C20.5662 12.1444 20.592 12.2741 20.592 12.405C20.592 12.5359 20.5662 12.6656 20.5161 12.7865C20.466 12.9075 20.3926 13.0174 20.3 13.11L17.41 16L20.3 18.89C20.68 19.27 20.68 19.91 20.3 20.3Z" fill="#F38686"/>
</svg>
