<svg width="32" height="32" viewBox="0 0 32 32" fill="none" xmlns="http://www.w3.org/2000/svg">
<rect width="32" height="32" rx="8" fill="#F6F5FA"/>
<path d="M15.9999 8.67062C10.5168 8.67062 6.05395 13.1335 6.05396 18.6166C6.05396 20.1259 6.39086 21.5619 6.99474 22.8456C7.13319 23.1411 7.43013 23.3298 7.75646 23.3294L24.2593 23.2975C24.5854 23.2969 24.8819 23.1075 25.0196 22.8119C25.6135 21.5367 25.9463 20.1126 25.9463 18.6166C25.9463 13.1335 21.483 8.67062 15.9999 8.67062ZM15.9999 10.1927C16.1589 10.1929 16.3114 10.2563 16.4237 10.3689C16.536 10.4815 16.5991 10.6341 16.599 10.7931V12.2317C16.5991 12.3908 16.536 12.5434 16.4237 12.656C16.3114 12.7685 16.1589 12.8319 15.9999 12.8322C15.921 12.8322 15.8429 12.8168 15.77 12.7866C15.6972 12.7564 15.6309 12.7122 15.5752 12.6565C15.5194 12.6007 15.4752 12.5345 15.445 12.4616C15.4149 12.3887 15.3994 12.3106 15.3994 12.2317V10.7931C15.3994 10.7143 15.4149 10.6361 15.445 10.5633C15.4752 10.4904 15.5194 10.4242 15.5752 10.3684C15.6309 10.3126 15.6972 10.2684 15.77 10.2382C15.8429 10.2081 15.921 10.1926 15.9999 10.1927ZM21.0863 12.2017C21.2452 12.2017 21.3976 12.2648 21.51 12.377C21.6225 12.4895 21.6857 12.6421 21.6857 12.8012C21.6857 12.9604 21.6225 13.1129 21.51 13.2255L20.4929 14.2427C20.3803 14.3551 20.2278 14.4183 20.0686 14.4183C19.9095 14.4183 19.7569 14.3551 19.6444 14.2427C19.5886 14.1869 19.5444 14.1208 19.5142 14.0479C19.484 13.9751 19.4685 13.897 19.4685 13.8182C19.4685 13.7394 19.484 13.6613 19.5142 13.5885C19.5444 13.5156 19.5886 13.4495 19.6444 13.3937L20.6611 12.377C20.717 12.3213 20.7833 12.2771 20.8563 12.247C20.9292 12.2169 21.0074 12.2015 21.0863 12.2017ZM10.8811 12.2022C10.9652 12.1977 11.0492 12.211 11.1278 12.2411C11.2064 12.2712 11.2777 12.3175 11.3372 12.377L12.354 13.3937C12.4097 13.4495 12.454 13.5156 12.4842 13.5885C12.5143 13.6613 12.5299 13.7394 12.5299 13.8182C12.5299 13.897 12.5143 13.9751 12.4842 14.0479C12.454 14.1208 12.4097 14.1869 12.354 14.2427C12.2414 14.3551 12.0888 14.4183 11.9297 14.4183C11.7706 14.4183 11.618 14.3551 11.5055 14.2427L10.4883 13.2255C10.3758 13.1129 10.3126 12.9604 10.3126 12.8012C10.3126 12.6421 10.3758 12.4895 10.4883 12.377C10.5932 12.2722 10.7331 12.2099 10.8811 12.2022ZM13.1227 15.3339C13.2816 15.3339 13.434 15.397 13.5465 15.5092L16.4236 18.3864C16.4794 18.4421 16.5237 18.5083 16.5538 18.5811C16.584 18.654 16.5996 18.732 16.5996 18.8109C16.5996 18.8897 16.584 18.9678 16.5538 19.0406C16.5237 19.1134 16.4794 19.1796 16.4236 19.2353C16.3679 19.2911 16.3018 19.3353 16.2289 19.3655C16.1561 19.3957 16.078 19.4112 15.9992 19.4112C15.9204 19.4112 15.8423 19.3957 15.7695 19.3655C15.6966 19.3353 15.6305 19.2911 15.5747 19.2353L12.6975 16.3581C12.6418 16.3024 12.5975 16.2362 12.5673 16.1634C12.5372 16.0906 12.5216 16.0125 12.5216 15.9337C12.5216 15.8548 12.5372 15.7768 12.5673 15.7039C12.5975 15.6311 12.6418 15.5649 12.6975 15.5092C12.7534 15.4535 12.8197 15.4093 12.8927 15.3792C12.9656 15.3491 13.0438 15.3337 13.1227 15.3339ZM8.22942 17.2881H9.6699C9.82886 17.2885 9.98118 17.3519 10.0934 17.4645C10.2056 17.5771 10.2686 17.7296 10.2685 17.8886C10.2682 18.0473 10.2051 18.1995 10.0929 18.3118C9.98073 18.424 9.82862 18.4873 9.6699 18.4877H8.22942C8.0707 18.4873 7.91859 18.424 7.8064 18.3118C7.69421 18.1995 7.63108 18.0473 7.63083 17.8886C7.63071 17.7296 7.69367 17.5771 7.8059 17.4645C7.91813 17.3519 8.07046 17.2885 8.22942 17.2881ZM22.3304 17.2881H23.7685C23.8474 17.288 23.9256 17.3034 23.9985 17.3336C24.0714 17.3637 24.1377 17.4079 24.1935 17.4637C24.2493 17.5195 24.2936 17.5857 24.3238 17.6586C24.354 17.7315 24.3695 17.8097 24.3694 17.8886C24.3693 17.9674 24.3537 18.0454 24.3234 18.1181C24.2931 18.1909 24.2488 18.257 24.193 18.3126C24.1372 18.3682 24.071 18.4123 23.9982 18.4423C23.9253 18.4724 23.8473 18.4878 23.7685 18.4877H22.3304C22.2516 18.4878 22.1735 18.4724 22.1007 18.4423C22.0278 18.4123 21.9616 18.3682 21.9058 18.3126C21.85 18.257 21.8057 18.1909 21.7755 18.1181C21.7452 18.0454 21.7295 17.9674 21.7294 17.8886C21.7294 17.8097 21.7449 17.7315 21.775 17.6586C21.8052 17.5857 21.8495 17.5195 21.9053 17.4637C21.9611 17.4079 22.0274 17.3637 22.1004 17.3336C22.1733 17.3034 22.2514 17.288 22.3304 17.2881ZM8.76005 21.5008C8.87911 21.5007 9.01545 21.5083 9.16037 21.5083H22.8408C23.3046 21.5083 23.6806 21.4307 23.6808 21.7778C23.6808 22.1251 23.3048 22.0469 22.8408 22.0469H9.16037C8.69644 22.0469 8.31991 22.1251 8.3199 21.7778C8.32007 21.5392 8.49812 21.501 8.76005 21.5008Z" fill="#CCC8D9"/>
</svg>
