<svg width="32" height="32" viewBox="0 0 32 32" fill="none" xmlns="http://www.w3.org/2000/svg">
<rect width="32" height="32" rx="8" fill="#F6F5FA"/>
<g clip-path="url(#clip0_1492_29885)">
<path d="M27.6385 15.5184C27.6048 15.1121 27.567 14.6524 27.4932 14.2557C27.442 13.9782 27.3293 13.6087 26.9483 13.6087C26.9102 13.6087 26.8719 13.6125 26.8342 13.6164C26.8106 13.6186 26.7871 13.6218 26.7485 13.6225C26.7477 13.6225 26.7353 13.6105 26.7196 13.5649C26.6078 13.2445 26.1385 12.846 25.5367 12.3586C25.3885 12.239 25.211 12.0949 25.1354 12.0206C25.1632 11.8287 25.1591 11.5929 25.0254 11.4304C24.9633 11.3546 24.8465 11.264 24.6452 11.264C24.6156 11.264 24.5842 11.2659 24.5142 11.2721C24.369 11.2721 24.0778 11.2124 23.6747 11.129C22.6354 10.9158 20.7009 10.5183 17.8001 10.4558C13.5765 10.3722 10.2575 13.4201 10.1207 13.5485L10.0229 13.6394C9.8494 13.7232 9.30162 13.9236 7.62729 14.2528C5.25246 14.7204 4.79944 15.477 4.71386 15.7696C4.52429 15.9111 4.21726 16.2486 4.16862 16.6457C4.12952 16.9623 4.04098 17.0918 4.04098 17.0915L4 17.1443V19.3794L4.00463 19.4201C4.13335 20.0136 4.74848 20.3277 5.78347 20.3277C6.11355 20.3277 6.36117 20.294 6.35155 20.294C6.36594 20.2932 6.49358 20.291 6.71474 20.2865C6.69212 20.224 6.67152 20.1607 6.65374 20.096C6.63654 20.0335 6.62078 19.9706 6.60864 19.9062C6.57944 19.7546 6.56303 19.5986 6.56303 19.4384C6.56303 18.0649 7.68048 16.9474 9.05401 16.9474C10.4275 16.9474 11.5451 18.0649 11.5451 19.4384C11.5451 19.5626 11.5329 19.6831 11.5155 19.8025C11.5059 19.8673 11.4949 19.9316 11.4803 19.9945C11.4653 20.0596 11.4496 20.124 11.4298 20.1872C14.5404 20.1206 18.4985 20.0326 21.5639 19.9556C21.5504 19.8927 21.5418 19.829 21.5332 19.7647C21.5246 19.701 21.5197 19.6374 21.5164 19.5731C21.5141 19.5282 21.5097 19.4841 21.5097 19.4384C21.5097 18.0649 22.6272 16.9474 24.0006 16.9474C25.3547 16.9474 26.458 18.0342 26.4887 19.3815C26.4887 19.4002 26.4917 19.4192 26.4917 19.4384C26.4917 19.4867 26.4872 19.5338 26.4842 19.5817C26.4804 19.6498 26.4737 19.7175 26.4647 19.7842C27.05 19.6876 27.4902 19.3792 27.745 18.8804C28.181 18.0274 27.9587 16.8725 27.8023 16.6273C27.7178 16.4946 27.6758 15.9759 27.6385 15.5184Z" fill="#CCC8D9"/>
<path d="M7.12069 20.2775C7.44535 21.0238 8.18805 21.5458 9.0537 21.5458C9.95042 21.5458 10.7142 20.9848 11.0189 20.1959C11.043 20.133 11.0645 20.0686 11.0829 20.0028C11.1005 19.9399 11.1151 19.8755 11.1271 19.8104C11.1484 19.6896 11.1618 19.5653 11.1618 19.4381C11.1618 18.2738 10.2183 17.3303 9.05406 17.3303C7.88977 17.3303 6.94629 18.2738 6.94629 19.4381C6.94629 19.596 6.96501 19.7498 6.99811 19.898C7.01213 19.9624 7.02897 20.0256 7.04935 20.0874C7.07017 20.1526 7.09395 20.2154 7.12069 20.2775Z" fill="#CCC8D9"/>
<path d="M21.9559 19.9452C22.1835 20.8636 23.0114 21.5458 24.0001 21.5458C25.0338 21.5458 25.892 20.8007 26.0716 19.819C26.0832 19.7554 26.0921 19.6914 26.0985 19.6259C26.1041 19.5638 26.1079 19.5016 26.1079 19.438C26.1079 19.4365 26.1079 19.435 26.1079 19.4331C26.1056 18.2715 25.1625 17.3302 24.0001 17.3302C22.8362 17.3302 21.8923 18.2738 21.8923 19.438C21.8923 19.4803 21.8965 19.5214 21.8987 19.5634C21.9025 19.6281 21.9088 19.6917 21.9185 19.7546C21.9283 19.8191 21.941 19.8827 21.9559 19.9452Z" fill="#CCC8D9"/>
</g>
<defs>
<clipPath id="clip0_1492_29885">
<rect width="23.9999" height="24" fill="white" transform="translate(4 4)"/>
</clipPath>
</defs>
</svg>
