<svg width="32" height="32" viewBox="0 0 32 32" fill="none" xmlns="http://www.w3.org/2000/svg">
<rect width="32" height="32" rx="8" fill="#F6F5FA"/>
<g clip-path="url(#clip0_1492_29913)">
<path d="M26.241 11H26V10.75C26 9.233 24.766 8 23.25 8H6.75C5.234 8 4 9.233 4 10.75V20.25C4 21.767 5.234 23 6.75 23H23.25C24.766 23 26 21.767 26 20.25V20H26.241C27.206 20 27.991 19.215 27.991 18.25V12.75C27.991 11.785 27.206 11 26.241 11ZM17.917 14.77L14.421 20.269C14.328 20.416 14.167 20.5 14 20.5C13.943 20.5 13.886 20.49 13.831 20.471C13.611 20.391 13.475 20.17 13.504 19.938L13.934 16.5L12.496 16.498C12.308 16.498 12.137 16.393 12.052 16.227C11.967 16.06 11.981 15.86 12.09 15.707L15.666 10.708C15.801 10.52 16.05 10.45 16.264 10.537C16.479 10.626 16.604 10.851 16.567 11.08L16.088 14L17.496 14.002C17.679 14.002 17.846 14.102 17.934 14.262C18.021 14.421 18.015 14.616 17.917 14.77Z" fill="#CCC8D9"/>
</g>
<defs>
<clipPath id="clip0_1492_29913">
<rect width="24" height="24" fill="white" transform="translate(4 4)"/>
</clipPath>
</defs>
</svg>
