<svg width="32" height="32" viewBox="0 0 32 32" fill="none" xmlns="http://www.w3.org/2000/svg">
<rect width="32" height="32" rx="8" fill="#F6F5FA"/>
<path d="M25.8945 8.5527C25.6845 8.1347 25.2119 7.914 24.7578 8.0302L16.7578 10.0302C16.727 10.0379 16.7048 10.0591 16.6754 10.0694C13.8021 8.8103 9.6611 8 6 8V10C8.634 10 11.6168 10.4693 14.0383 11.2217L11.667 13H6V15H12C12.2168 15 12.4268 14.9297 12.5996 14.7998L16.2488 12.0629L24 15.6396V17.7812C24 19.0049 23.0049 20 21.7813 20H20.9495C20.6971 17.7562 18.8103 16 16.5 16C14.1897 16 12.303 17.7562 12.0505 20H6V22H12.2675C12.8863 23.7948 14.5853 25 16.5 25C18.418 25 20.1201 23.791 20.7227 22.0264C20.726 22.0179 20.7268 22.0085 20.73 22H21.7812C24.1074 22 26 20.1074 26 17.7813V15C26 14.6104 25.7734 14.2559 25.4189 14.0918L19.5637 11.3896L24.4638 10.1651L25.1054 11.4473C25.3534 11.9414 25.954 12.1397 26.4472 11.8946C26.9413 11.6475 27.1415 11.0469 26.8945 10.5528L25.8945 8.5527ZM18.8438 21.3428C18.5049 22.334 17.5625 23 16.5 23C15.4375 23 14.4951 22.334 14.1426 21.3076C14.0479 21.0615 14 20.7891 14 20.5C14 19.1211 15.1211 18 16.5 18C17.8789 18 19 19.1211 19 20.5C19 20.7891 18.9521 21.0615 18.8438 21.3428Z" fill="#A59DC3"/>
<path d="M6 13H15L16.5 11.5L24.5 15.5L24 19L22 21L16 16L13 21H6V13Z" fill="#A59DC3"/>
</svg>
