<svg width="32" height="32" viewBox="0 0 32 32" fill="none" xmlns="http://www.w3.org/2000/svg">
<rect width="32" height="32" rx="8" fill="#F6F5FA"/>
<path fill-rule="evenodd" clip-rule="evenodd" d="M22.8166 8.4375H9.18344L7.75 13.5903H6.71875L8.4375 7.40625H23.5625L25.2812 13.5903H24.25L22.8166 8.4375ZM7 21.9656C6.73343 21.9013 6.49778 21.7507 6.32581 21.5433C6.12258 21.31 6 21.0033 6 20.6667V16H8.25806H10.1935C10.1935 16.7367 10.771 17.3333 11.4839 17.3333H17.9355H20.5129C21.2258 17.3333 21.8032 16.7367 21.8032 16H23.7419H26V20.6667C26 21.0033 25.8774 21.31 25.6742 21.5433C25.5022 21.7507 25.2666 21.9013 25 21.9656V24.5456C25 24.7955 24.8125 25 24.5833 25H20.4167C20.1875 25 20 24.7955 20 24.5456V20.6667H19.871H14.0645H12.129H12V24.5456C12 24.7955 11.8125 25 11.5833 25H7.41667C7.1875 25 7 24.7955 7 24.5456V21.9656ZM13.5 21.75C13.7761 21.75 14 21.5261 14 21.25C14 20.9739 13.7761 20.75 13.5 20.75C13.2239 20.75 13 20.9739 13 21.25C13 21.5261 13.2239 21.75 13.5 21.75ZM19 21.25C19 21.5261 18.7761 21.75 18.5 21.75C18.2239 21.75 18 21.5261 18 21.25C18 20.9739 18.2239 20.75 18.5 20.75C18.7761 20.75 19 20.9739 19 21.25ZM11.3079 19.6667H21.1581L21.1613 18.3333H11.3079V19.6667Z" fill="#A59DC3"/>
<path d="M12.663 12H23.7772C25.0053 12 26 13.0729 26 14.3976V18H6V14.3976C6 13.0729 6.99472 12 8.22284 12H12.663Z" fill="#A59DC3"/>
<path fill-rule="evenodd" clip-rule="evenodd" d="M7.25 16.0903H8.3125V17.1563H7.25V16.0903ZM6.75 17.6563V15.5903H8.8125V17.6563H6.75ZM23.6841 16.0903H24.75V17.1563H23.6841V16.0903ZM23.1841 17.6563V15.5903H25.25V17.6563H23.1841Z" fill="#F7F8F9"/>
</svg>
