<svg width="32" height="32" viewBox="0 0 32 32" fill="none" xmlns="http://www.w3.org/2000/svg">
<rect width="32" height="32" rx="8" fill="#F6F5FA"/>
<path d="M24.3773 21.8541C24.0942 21.3709 23.6426 21.0093 23.1092 20.8389L23.0443 20.8195C22.9663 20.7946 22.8858 20.7783 22.8043 20.7708C22.3878 20.8738 21.996 21.0585 21.6514 21.314C21.3068 21.5695 21.0163 21.8909 20.7967 22.2595L20.4854 26.7027C20.4367 26.7027 20.4594 26.7027 20.4854 26.7027L20.4594 27.3514H20.7059C23.907 27.3514 24.507 24.64 24.5589 24.3643C24.8248 23.3557 24.7567 22.5092 24.3773 21.8541Z" fill="#CCC8D9"/>
<path d="M11.5145 26.7027L11.1902 22.2692C10.9145 22.0162 10.3015 20.8422 9.18258 20.7773C9.10139 20.7869 9.02112 20.8032 8.94258 20.8259H8.89718C8.35184 20.9916 7.88875 21.3563 7.59988 21.8476C7.21393 22.4962 7.15231 23.3492 7.41826 24.3578C7.47015 24.6303 8.06691 27.3449 11.2712 27.3449H11.5177L11.4918 26.6962C11.5404 26.7027 11.5599 26.7027 11.5145 26.7027Z" fill="#CCC8D9"/>
<path d="M13.5157 9.46163H14.1643V10.5189H13.0616V15.3254H18.9416V10.5189H17.8389V9.46163H18.4876C18.652 9.46168 18.8146 9.42708 18.9648 9.3601C19.115 9.29311 19.2494 9.19523 19.3593 9.07284C19.4691 8.95045 19.5519 8.80629 19.6023 8.64976C19.6528 8.49322 19.6696 8.32782 19.6519 8.16433L19.373 5.70271C19.3446 5.41256 19.2088 5.14351 18.9921 4.94846C18.7755 4.75341 18.4937 4.64646 18.2021 4.64865H13.7978C13.5074 4.6472 13.2268 4.75406 13.0109 4.94836C12.795 5.14267 12.6593 5.41046 12.6303 5.69946L12.3513 8.16757C12.3336 8.33107 12.3504 8.49647 12.4009 8.653C12.4513 8.80954 12.5341 8.9537 12.644 9.07609C12.7538 9.19848 12.8882 9.29635 13.0384 9.36334C13.1886 9.43033 13.3512 9.46492 13.5157 9.46487V9.46163ZM17.1903 10.5189H14.8097V9.46163H17.1903V10.5189Z" fill="#CCC8D9"/>
<path d="M22.6648 20.1384L22.7621 20.1157H22.8594H22.9275C22.668 18.5265 22.3307 15.9449 22.4831 13.8984C22.5549 13.4873 22.5428 13.0659 22.4475 12.6595C22.3522 12.2532 22.1757 11.8704 21.9286 11.5341C21.4258 10.9146 20.6313 10.5611 19.5902 10.5124V21.7957H12.4096V10.5319C11.3621 10.5903 10.574 10.9341 10.0713 11.5535C9.82357 11.8896 9.64646 12.2723 9.55059 12.6786C9.45472 13.085 9.44208 13.5065 9.51342 13.9178C9.66585 15.9643 9.32855 18.5459 9.06909 20.1351C9.08419 20.1367 9.0994 20.1367 9.1145 20.1351H9.17288H9.23125C10.4021 20.2032 11.1091 21.1081 11.5015 21.6076C11.5488 21.6751 11.5997 21.7401 11.654 21.8022L11.8258 21.9708L11.8615 22.2303V22.4573L12.2053 27.3222H12.1858V27.3514H19.8075L19.8594 26.0541H19.8918L20.174 22.0584L20.2583 21.9222C20.52 21.4792 20.8678 21.0932 21.2811 20.7868C21.6944 20.4805 22.1649 20.26 22.6648 20.1384Z" fill="#CCC8D9"/>
<path d="M13.0583 15.9741H18.9416V21.147H13.0583V15.9741Z" fill="#CCC8D9"/>
</svg>
