<svg width="32" height="32" viewBox="0 0 32 32" fill="none" xmlns="http://www.w3.org/2000/svg">
<rect width="32" height="32" rx="8" fill="#F6F5FA"/>
<g clip-path="url(#clip0_1492_29907)">
<path d="M23.52 11.23L23.535 11.215L19.81 7.50002L18.75 8.56L20.86 10.67C19.92 11.03 19.25 11.935 19.25 13C19.25 14.38 20.37 15.5 21.75 15.5C22.105 15.5 22.445 15.425 22.75 15.29V22.5C22.75 23.05 22.3 23.5 21.75 23.5C21.2 23.5 20.75 23.05 20.75 22.5V18C20.75 16.895 19.855 16 18.75 16H17.75V9.00002C17.75 7.89498 16.855 7 15.75 7H9.75002C8.64498 7 7.75 7.89498 7.75 9.00002V25H17.75V17.5H19.25V22.5C19.25 23.88 20.37 25 21.75 25C23.13 25 24.25 23.88 24.25 22.5V13C24.25 12.31 23.97 11.685 23.52 11.23ZM15.75 14H9.75002V9.00002H15.75V14ZM21.75 14C21.2 14 20.75 13.55 20.75 13C20.75 12.45 21.2 12 21.75 12C22.3 12 22.75 12.45 22.75 13C22.75 13.55 22.3 14 21.75 14Z" fill="#CCC8D9"/>
</g>
<defs>
<clipPath id="clip0_1492_29907">
<rect width="18" height="18" fill="white" transform="translate(7 7)"/>
</clipPath>
</defs>
</svg>
