<svg width="32" height="32" viewBox="0 0 32 32" fill="none" xmlns="http://www.w3.org/2000/svg">
<rect width="32" height="32" rx="8" fill="#F6F5FA"/>
<path d="M27.14 16.3536C26.9154 17.1464 26.4663 17.8335 25.8763 18.2876C25.4052 18.6509 24.8702 18.8409 24.344 18.8409C24.1459 18.8409 23.9522 18.8144 23.7606 18.7603C23.065 18.5612 22.5013 18.0087 22.2152 17.2438C21.9532 16.5466 21.9356 15.7263 22.1601 14.9333C22.3869 14.1405 22.836 13.4534 23.4238 12.9992C24.0711 12.5004 24.8416 12.328 25.5395 12.5266C26.2352 12.7256 26.801 13.2782 27.0872 14.043C27.347 14.7403 27.3667 15.5605 27.14 16.3536ZM12.4204 14.3497C13.2482 14.3497 14.0385 13.8889 14.5889 13.0849C15.0886 12.356 15.3638 11.4012 15.3638 10.396C15.3638 9.38983 15.0886 8.43503 14.5889 7.70608C14.0385 6.90231 13.2481 6.44148 12.4204 6.44148C11.5903 6.44148 10.8 6.90226 10.2496 7.70608C9.75209 8.43503 9.47689 9.38983 9.47689 10.396C9.47689 11.4012 9.75209 12.356 10.2496 13.0849C10.8 13.8889 11.5904 14.3497 12.4204 14.3497ZM19.5799 14.3497C20.4099 14.3497 21.2002 13.8889 21.7506 13.0849C22.2481 12.356 22.5233 11.4012 22.5233 10.396C22.5233 9.38983 22.2481 8.43503 21.7506 7.70608C21.2002 6.90231 20.4098 6.44148 19.5799 6.44148C18.752 6.44148 17.9617 6.90226 17.4113 7.70608C16.9116 8.43503 16.6364 9.38983 16.6364 10.396C16.6364 11.4012 16.9116 12.356 17.4113 13.0849C17.9617 13.8889 18.752 14.3497 19.5799 14.3497ZM9.84012 14.9338C9.61339 14.1406 9.16428 13.4535 8.57642 12.9992C7.92917 12.5004 7.15864 12.328 6.46072 12.5266C5.76284 12.7256 5.19922 13.2782 4.913 14.0431C4.65322 14.7403 4.63344 15.5606 4.86017 16.3536C5.08475 17.1464 5.53386 17.8335 6.12383 18.2877C6.59497 18.6509 7.12995 18.8409 7.65612 18.8409C7.85206 18.8409 8.048 18.8145 8.23733 18.7603C8.9352 18.5613 9.49883 18.0087 9.785 17.2439C10.0471 16.5467 10.0647 15.7263 9.84012 14.9338ZM20.3195 16.867C19.1131 15.5989 17.5808 14.901 16.0001 14.901C14.4194 14.901 12.8849 15.5989 11.6828 16.867C10.5336 18.0763 9.73226 19.7544 9.42401 21.5928C9.22808 22.7656 9.5847 23.8944 10.4059 24.6894C11.2601 25.5167 12.3763 25.7679 13.4683 25.3795C14.2763 25.0911 15.1283 24.945 16.0001 24.945C16.8719 24.945 17.7239 25.0912 18.5319 25.3795C18.8688 25.4993 19.2078 25.5585 19.5402 25.5585C20.2865 25.5585 21.0021 25.2617 21.5921 24.6894C22.4155 23.8944 22.7721 22.7657 22.5762 21.5928C22.268 19.7543 21.4666 18.0763 20.3195 16.867Z" fill="#CCC8D9"/>
</svg>
