<svg width="32" height="32" viewBox="0 0 32 32" fill="none" xmlns="http://www.w3.org/2000/svg">
<rect width="32" height="32" rx="8" fill="#F6F5FA"/>
<g clip-path="url(#clip0_1492_29927)">
<path d="M23.5849 15.7539L19.9837 15.2141C19.3949 15.1259 18.8147 15.4195 18.537 15.9462L18.1594 16.6626C18.9229 16.4711 19.6339 16.3465 20.2638 16.3465C21.7223 16.3465 22.7029 17.0332 22.9253 18.4875L23.1696 18.5241C23.9348 18.6388 24.6477 18.1116 24.7624 17.3466C24.877 16.5817 24.3498 15.8686 23.5849 15.7539Z" fill="#CCC8D9"/>
<path d="M12.8403 12.6521C12.6189 12.7698 12.4256 12.9195 12.262 13.0918C12.7011 14.046 13.0652 15.325 13.3583 16.3398C13.4825 16.7698 13.781 17.1376 14.1774 17.349C14.4187 17.4777 14.6908 17.5458 14.9641 17.5458C15.1367 17.5458 15.3075 17.5191 15.4719 17.4666C16.2176 17.2283 16.9313 16.9985 17.6102 16.8087L16.3199 14.3812L19.28 12.1799C19.9007 11.7183 20.0297 10.8409 19.568 10.2202C19.1065 9.59952 18.229 9.47057 17.6084 9.93215L14.2663 12.4175C13.7947 12.3401 13.2949 12.4105 12.8403 12.6521Z" fill="#CCC8D9"/>
<path d="M20.2638 17.3843C19.1018 17.3843 17.4589 17.9213 15.7877 18.4551C15.5189 18.541 15.2411 18.5835 14.9642 18.5835C14.5236 18.5835 14.0853 18.476 13.6892 18.2646C13.044 17.9205 12.5643 17.3302 12.3614 16.6277C11.6886 14.2983 10.9825 11.8566 9.73652 12.1675C7.6967 12.6766 6.69534 15.7027 7.49991 18.9265C7.92456 20.628 8.76745 22.0442 9.76868 22.9278C9.87418 23.0391 9.98892 23.1448 10.1114 23.2452C10.0724 23.5289 9.82906 25.2983 9.78966 25.5847C9.75945 25.8043 9.9304 26.0001 10.1518 26.0001H17.9164C18.1381 26.0001 18.3087 25.804 18.2785 25.5847C18.2488 25.3683 18.0397 23.8479 18.012 23.6462C20.6832 22.4947 22.3353 20.3365 21.8467 18.3787C21.6655 17.6523 21.0846 17.3843 20.2638 17.3843Z" fill="#CCC8D9"/>
<path d="M11.1256 11.5149C13.3606 11.8724 15.0934 9.5081 14.0116 7.47283C13.2924 6.11977 11.6125 5.60595 10.2594 6.32513C8.90637 7.04432 8.39256 8.72424 9.11178 10.0773C9.5295 10.8632 10.284 11.3803 11.1256 11.5149Z" fill="#CCC8D9"/>
</g>
<defs>
<clipPath id="clip0_1492_29927">
<rect width="20" height="20" fill="white" transform="translate(6 6)"/>
</clipPath>
</defs>
</svg>
