<svg width="32" height="32" viewBox="0 0 32 32" fill="none" xmlns="http://www.w3.org/2000/svg">
<rect width="32" height="32" rx="8" fill="white"/>
<g clip-path="url(#clip0_817_13106)">
<path d="M19.2454 10.5633H12.7566V22.0426H19.2454V10.5633Z" fill="#FF5F00"/>
<path d="M13.1684 16.303C13.1684 14.0721 14.219 11.9425 15.9906 10.5634C12.7771 8.06874 8.12159 8.61634 5.58787 11.8005C3.05414 14.9644 3.61033 19.548 6.84443 22.0427C9.54295 24.1317 13.3126 24.1317 16.0112 22.0427C14.219 20.6635 13.1684 18.534 13.1684 16.303Z" fill="#EB001B"/>
<path d="M28.0001 16.303C28.0001 20.339 24.6836 23.6043 20.5843 23.6043C18.9157 23.6043 17.309 23.0567 16.0112 22.0427C19.2247 19.548 19.7809 14.9644 17.2472 11.7802C16.8764 11.3341 16.4644 10.9081 16.0112 10.5634C19.2247 8.06874 23.9008 8.61634 26.4139 11.8005C27.4439 13.0783 28.0001 14.6602 28.0001 16.303Z" fill="#F79E1B"/>
<path d="M27.2995 20.8259V20.5826H27.4025V20.542H27.1553V20.5826H27.2583V20.8259H27.2995ZM27.7733 20.8259V20.542H27.6909L27.6085 20.7448L27.5261 20.542H27.4437V20.8259H27.5055V20.6028L27.5879 20.7854H27.6497L27.7321 20.6028V20.8259H27.7733Z" fill="#F79E1B"/>
</g>
<defs>
<clipPath id="clip0_817_13106">
<rect width="24" height="24" fill="white" transform="translate(4 4)"/>
</clipPath>
</defs>
</svg>
