<svg width="32" height="32" viewBox="0 0 32 32" fill="none" xmlns="http://www.w3.org/2000/svg">
<rect width="32" height="32" rx="8" fill="white"/>
<path d="M26 13V21C26 21.5304 25.7893 22.0391 25.4142 22.4142C25.0391 22.7893 24.5304 23 24 23H8C7.46957 23 6.96086 22.7893 6.58579 22.4142C6.21071 22.0391 6 21.5304 6 21V11C6 10.4696 6.21071 9.96086 6.58579 9.58579C6.96086 9.21071 7.46957 9 8 9H24C24.5304 9 25.0391 9.21071 25.4142 9.58579C25.7893 9.96086 26 10.4696 26 11V13ZM26 13H10" stroke="#3E4958" stroke-width="1.5" stroke-linecap="round" stroke-linejoin="round"/>
<path d="M20.5 17.382C20.7159 17.1889 20.983 17.0625 21.2691 17.0179C21.5552 16.9733 21.8481 17.0125 22.1124 17.1307C22.3768 17.2489 22.6012 17.4411 22.7588 17.6841C22.9163 17.9271 23.0001 18.2104 23.0001 18.5C23.0001 18.7896 22.9163 19.0729 22.7588 19.3159C22.6012 19.5589 22.3768 19.7511 22.1124 19.8693C21.8481 19.9875 21.5552 20.0267 21.2691 19.9821C20.983 19.9375 20.7159 19.8111 20.5 19.618M20.5 17.382C20.2842 17.1889 20.0171 17.0625 19.731 17.0179C19.4449 16.9733 19.152 17.0125 18.8877 17.1307C18.6233 17.2489 18.3988 17.4411 18.2413 17.6841C18.0838 17.9271 18 18.2104 18 18.5C18 18.7896 18.0838 19.0729 18.2413 19.3159C18.3988 19.5589 18.6233 19.7511 18.8877 19.8693C19.152 19.9875 19.4449 20.0267 19.731 19.9821C20.0171 19.9375 20.2842 19.8111 20.5 19.618" stroke="#3E4958" stroke-width="1.5" stroke-linecap="round" stroke-linejoin="round"/>
</svg>
