<svg width="32" height="32" viewBox="0 0 32 32" fill="none" xmlns="http://www.w3.org/2000/svg">
<rect width="32" height="32" rx="8" fill="white"/>
<g clip-path="url(#clip0_817_13159)">
<g clip-path="url(#clip1_817_13159)">
<path d="M19.6371 12C17.9352 12 16.4072 12.8856 16.4072 14.5106C16.4072 16.3821 19.1064 16.5099 19.1064 17.4411C19.1064 17.8337 18.6489 18.1897 17.8803 18.1897C16.7823 18.1897 15.9588 17.6968 15.9588 17.6968L15.6111 19.34C15.6111 19.34 16.5536 19.76 17.8162 19.76C19.6828 19.76 21.1468 18.8379 21.1468 17.1764C21.1468 15.2044 18.4384 15.0766 18.4384 14.2093C18.4384 13.8989 18.8136 13.5611 19.5822 13.5611C20.4514 13.5611 21.1651 13.9172 21.1651 13.9172L21.5128 12.3287C21.5036 12.3287 20.7259 12 19.6371 12ZM4.04575 12.1187L4 12.356C4 12.356 4.71369 12.4839 5.36332 12.7486C6.19596 13.0499 6.25086 13.2233 6.39726 13.762L7.92528 19.6322H9.97484L13.1132 12.1187H11.0728L9.05071 17.2312L8.22722 12.8947C8.15402 12.4017 7.76973 12.1187 7.29394 12.1187H4.04575ZM13.9367 12.1187L12.3355 19.6322H14.2844L15.8765 12.1187H13.9367ZM24.7884 12.1187C24.3218 12.1187 24.0747 12.3652 23.8917 12.8034L21.037 19.6322H23.0774L23.4708 18.491H25.9596L26.1975 19.6322H28L26.4354 12.1187H24.7884ZM25.0538 14.1545L25.6576 16.9755H24.0381L25.0538 14.1545Z" fill="#1434CB"/>
</g>
</g>
<defs>
<clipPath id="clip0_817_13159">
<rect width="24" height="24" fill="white" transform="translate(4 4)"/>
</clipPath>
<clipPath id="clip1_817_13159">
<rect width="24" height="7.76" fill="white" transform="translate(4 12)"/>
</clipPath>
</defs>
</svg>
