<svg width="32" height="32" viewBox="0 0 32 32" fill="none" xmlns="http://www.w3.org/2000/svg">
<rect width="32" height="32" rx="8" fill="#EAF6FF"/>
<path d="M16 6C10.48 6 6 10.48 6 16C6 21.52 10.48 26 16 26C21.52 26 26 21.52 26 16C26 10.48 21.52 6 16 6ZM16.91 22.15C16.8401 22.2185 16.7517 22.265 16.6556 22.2837C16.5595 22.3025 16.4601 22.2926 16.3696 22.2553C16.2791 22.2181 16.2015 22.155 16.1465 22.0741C16.0914 21.9932 16.0614 21.8979 16.06 21.8V21H16C14.72 21 13.44 20.51 12.46 19.54C11.781 18.8594 11.3124 17.9976 11.1103 17.0577C10.9081 16.1178 10.9809 15.1396 11.32 14.24C11.51 13.73 12.18 13.6 12.56 13.99C12.78 14.21 12.83 14.53 12.73 14.81C12.27 16.05 12.53 17.49 13.53 18.49C14.23 19.19 15.15 19.52 16.07 19.5V18.56C16.07 18.11 16.61 17.89 16.92 18.21L18.54 19.83C18.74 20.03 18.74 20.34 18.54 20.54L16.91 22.15ZM19.44 18.02C19.3366 17.9136 19.2657 17.78 19.2356 17.6347C19.2055 17.4895 19.2174 17.3387 19.27 17.2C19.73 15.96 19.47 14.52 18.47 13.52C17.77 12.82 16.85 12.48 15.94 12.5V13.44C15.94 13.89 15.4 14.11 15.09 13.79L13.46 12.18C13.26 11.98 13.26 11.67 13.46 11.47L15.08 9.85C15.1499 9.78148 15.2383 9.73498 15.3344 9.71626C15.4305 9.69753 15.5299 9.70742 15.6204 9.74468C15.7109 9.78195 15.7885 9.84496 15.8435 9.92589C15.8986 10.0068 15.9286 10.1021 15.93 10.2V11.01C17.23 10.99 18.54 11.46 19.53 12.46C20.209 13.1406 20.6776 14.0024 20.8797 14.9423C21.0819 15.8822 21.0091 16.8604 20.67 17.76C20.48 18.28 19.82 18.41 19.44 18.02Z" fill="#A6CDEA"/>
</svg>
