<svg width="32" height="32" viewBox="0 0 32 32" fill="none" xmlns="http://www.w3.org/2000/svg">
<rect width="32" height="32" rx="8" fill="#EAF6FF"/>
<g clip-path="url(#clip0_817_13125)">
<path d="M5.71437 16C5.71437 10.3197 10.3198 5.71429 16.0001 5.71429C21.6804 5.71429 26.2858 10.3197 26.2858 16C26.2858 21.6803 21.6804 26.2857 16.0001 26.2857C14.315 26.2881 12.6554 25.8748 11.1684 25.0823L7.07979 26.2454C6.89626 26.2976 6.70213 26.2998 6.51747 26.2518C6.33281 26.2038 6.16432 26.1073 6.0294 25.9724C5.89449 25.8375 5.79805 25.669 5.75005 25.4843C5.70205 25.2997 5.70423 25.1055 5.75637 24.922L6.91865 20.8334C6.12561 19.3459 5.71195 17.6857 5.71437 16ZM12.1429 14.0714C12.1429 14.4263 12.4309 14.7143 12.7858 14.7143H19.2144C19.3849 14.7143 19.5484 14.6466 19.6689 14.526C19.7895 14.4054 19.8572 14.2419 19.8572 14.0714C19.8572 13.9009 19.7895 13.7374 19.6689 13.6169C19.5484 13.4963 19.3849 13.4286 19.2144 13.4286H12.7858C12.6153 13.4286 12.4518 13.4963 12.3312 13.6169C12.2107 13.7374 12.1429 13.9009 12.1429 14.0714ZM12.7858 17.2857C12.6153 17.2857 12.4518 17.3535 12.3312 17.474C12.2107 17.5946 12.1429 17.7581 12.1429 17.9286C12.1429 18.0991 12.2107 18.2626 12.3312 18.3831C12.4518 18.5037 12.6153 18.5714 12.7858 18.5714H16.6429C16.8134 18.5714 16.9769 18.5037 17.0975 18.3831C17.2181 18.2626 17.2858 18.0991 17.2858 17.9286C17.2858 17.7581 17.2181 17.5946 17.0975 17.474C16.9769 17.3535 16.8134 17.2857 16.6429 17.2857H12.7858Z" fill="#A6CDEA"/>
</g>
<defs>
<clipPath id="clip0_817_13125">
<rect width="24" height="24" fill="white" transform="translate(4 3)"/>
</clipPath>
</defs>
</svg>
