<svg width="32" height="32" viewBox="0 0 32 32" fill="none" xmlns="http://www.w3.org/2000/svg">
<rect width="32" height="32" rx="8" fill="#EAF6FF"/>
<path d="M12.125 22V21.875H12H8C7.50272 21.875 7.02581 21.6775 6.67417 21.3258C6.32254 20.9742 6.125 20.4973 6.125 20V8C6.125 7.50272 6.32254 7.02581 6.67417 6.67417C7.02581 6.32254 7.50272 6.125 8 6.125H24C24.4973 6.125 24.9742 6.32254 25.3258 6.67417C25.6775 7.02581 25.875 7.50272 25.875 8V20C25.875 20.4973 25.6775 20.9742 25.3258 21.3258C24.9742 21.6775 24.4973 21.875 24 21.875H17.9H17.8481L17.8115 21.9117L14.1127 25.6205C13.9349 25.7889 13.7158 25.875 13.5 25.875H13C12.7679 25.875 12.5454 25.7828 12.3813 25.6187C12.2172 25.4546 12.125 25.2321 12.125 25V22ZM17.1318 20.125H24H24.125V20V8V7.875H24H8H7.875V8V20V20.125H8H13.875V23.08V23.3818L14.0884 23.1684L17.1318 20.125Z" fill="#A6CDEA" stroke="#EAF6FF" stroke-width="0.25"/>
<path d="M10 10.5H22" stroke="#A6CDEA" stroke-linecap="round"/>
<path d="M10 13.5H22" stroke="#A6CDEA" stroke-linecap="round"/>
<path d="M10 16.5H22" stroke="#A6CDEA" stroke-linecap="round"/>
</svg>
