<svg width="32" height="32" viewBox="0 0 32 32" fill="none" xmlns="http://www.w3.org/2000/svg">
<g clip-path="url(#clip0_721_23293)">
<rect width="32" height="32" rx="8" fill="white"/>
<path fill-rule="evenodd" clip-rule="evenodd" d="M23.1696 10.9302C23.3803 11.1411 23.4986 11.4271 23.4986 11.7252C23.4986 12.0233 23.3803 12.3093 23.1696 12.5202L14.0241 21.6657C13.9186 21.7712 13.793 21.8546 13.6549 21.9111C13.5168 21.9676 13.3688 21.996 13.2196 21.9948C13.0703 21.9935 12.9228 21.9626 12.7857 21.9038C12.6485 21.845 12.5244 21.7594 12.4206 21.6522L8.81613 17.9262C8.71246 17.8202 8.63077 17.6948 8.57574 17.5571C8.5207 17.4195 8.49343 17.2723 8.49547 17.1241C8.49751 16.9758 8.52883 16.8294 8.58763 16.6933C8.64643 16.5572 8.73155 16.4341 8.8381 16.331C8.94465 16.2279 9.07052 16.1469 9.20848 16.0927C9.34644 16.0384 9.49377 16.0119 9.64199 16.0148C9.79022 16.0176 9.93642 16.0497 10.0722 16.1093C10.208 16.1688 10.3306 16.2546 10.4331 16.3617L13.2426 19.2657L21.5796 10.9302C21.7906 10.7195 22.0765 10.6012 22.3746 10.6012C22.6728 10.6012 22.9587 10.7195 23.1696 10.9302Z" fill="#EA4335"/>
</g>
<defs>
<clipPath id="clip0_721_23293">
<rect width="32" height="32" fill="white"/>
</clipPath>
</defs>
</svg>
