<svg width="32" height="32" viewBox="0 0 32 32" fill="none" xmlns="http://www.w3.org/2000/svg">
<rect width="32" height="32" rx="8" fill="white"/>
<path d="M21.2499 10.7583C21.1728 10.6811 21.0813 10.6198 20.9805 10.578C20.8797 10.5362 20.7716 10.5146 20.6624 10.5146C20.5533 10.5146 20.4452 10.5362 20.3444 10.578C20.2436 10.6198 20.152 10.6811 20.0749 10.7583L15.9999 14.825L11.9249 10.75C11.8478 10.6729 11.7562 10.6117 11.6554 10.5699C11.5546 10.5281 11.4466 10.5067 11.3374 10.5067C11.2283 10.5067 11.1203 10.5281 11.0195 10.5699C10.9187 10.6117 10.8271 10.6729 10.7499 10.75C10.6728 10.8272 10.6116 10.9187 10.5698 11.0196C10.5281 11.1204 10.5066 11.2284 10.5066 11.3375C10.5066 11.4466 10.5281 11.5547 10.5698 11.6555C10.6116 11.7563 10.6728 11.8479 10.7499 11.925L14.8249 16L10.7499 20.075C10.6728 20.1522 10.6116 20.2437 10.5698 20.3446C10.5281 20.4454 10.5066 20.5534 10.5066 20.6625C10.5066 20.7716 10.5281 20.8797 10.5698 20.9805C10.6116 21.0813 10.6728 21.1729 10.7499 21.25C10.8271 21.3272 10.9187 21.3884 11.0195 21.4301C11.1203 21.4719 11.2283 21.4934 11.3374 21.4934C11.4466 21.4934 11.5546 21.4719 11.6554 21.4301C11.7562 21.3884 11.8478 21.3272 11.9249 21.25L15.9999 17.175L20.0749 21.25C20.1521 21.3272 20.2437 21.3884 20.3445 21.4301C20.4453 21.4719 20.5533 21.4934 20.6624 21.4934C20.7716 21.4934 20.8796 21.4719 20.9804 21.4301C21.0812 21.3884 21.1728 21.3272 21.2499 21.25C21.3271 21.1729 21.3883 21.0813 21.43 20.9805C21.4718 20.8797 21.4933 20.7716 21.4933 20.6625C21.4933 20.5534 21.4718 20.4454 21.43 20.3446C21.3883 20.2437 21.3271 20.1522 21.2499 20.075L17.1749 16L21.2499 11.925C21.5666 11.6083 21.5666 11.075 21.2499 10.7583Z" fill="#3E4958"/>
</svg>
