<svg width="32" height="32" viewBox="0 0 32 32" fill="none" xmlns="http://www.w3.org/2000/svg">
<rect width="32" height="32" rx="8" fill="#F6F5FA"/>
<path d="M21.0417 16C20.677 16 20.3273 15.8551 20.0694 15.5973C19.8115 15.3394 19.6667 14.9897 19.6667 14.625C19.6667 14.2603 19.8115 13.9106 20.0694 13.6527C20.3273 13.3949 20.677 13.25 21.0417 13.25C21.4063 13.25 21.7561 13.3949 22.0139 13.6527C22.2718 13.9106 22.4167 14.2603 22.4167 14.625C22.4167 14.9897 22.2718 15.3394 22.0139 15.5973C21.7561 15.8551 21.4063 16 21.0417 16ZM18.2917 12.3333C17.927 12.3333 17.5773 12.1885 17.3194 11.9306C17.0615 11.6727 16.9167 11.323 16.9167 10.9583C16.9167 10.5937 17.0615 10.2439 17.3194 9.98606C17.5773 9.7282 17.927 9.58333 18.2917 9.58333C18.6563 9.58333 19.0061 9.7282 19.2639 9.98606C19.5218 10.2439 19.6667 10.5937 19.6667 10.9583C19.6667 11.323 19.5218 11.6727 19.2639 11.9306C19.0061 12.1885 18.6563 12.3333 18.2917 12.3333ZM13.7083 12.3333C13.3437 12.3333 12.9939 12.1885 12.7361 11.9306C12.4782 11.6727 12.3333 11.323 12.3333 10.9583C12.3333 10.5937 12.4782 10.2439 12.7361 9.98606C12.9939 9.7282 13.3437 9.58333 13.7083 9.58333C14.073 9.58333 14.4227 9.7282 14.6806 9.98606C14.9385 10.2439 15.0833 10.5937 15.0833 10.9583C15.0833 11.323 14.9385 11.6727 14.6806 11.9306C14.4227 12.1885 14.073 12.3333 13.7083 12.3333ZM10.9583 16C10.5937 16 10.2439 15.8551 9.98606 15.5973C9.7282 15.3394 9.58333 14.9897 9.58333 14.625C9.58333 14.2603 9.7282 13.9106 9.98606 13.6527C10.2439 13.3949 10.5937 13.25 10.9583 13.25C11.323 13.25 11.6727 13.3949 11.9306 13.6527C12.1885 13.9106 12.3333 14.2603 12.3333 14.625C12.3333 14.9897 12.1885 15.3394 11.9306 15.5973C11.6727 15.8551 11.323 16 10.9583 16ZM16 7.75C13.812 7.75 11.7135 8.61919 10.1664 10.1664C8.61919 11.7135 7.75 13.812 7.75 16C7.75 18.188 8.61919 20.2865 10.1664 21.8336C11.7135 23.3808 13.812 24.25 16 24.25C16.3647 24.25 16.7144 24.1051 16.9723 23.8473C17.2301 23.5894 17.375 23.2397 17.375 22.875C17.375 22.5175 17.2375 22.1967 17.0175 21.9583C16.8067 21.7108 16.6692 21.39 16.6692 21.0417C16.6692 20.677 16.814 20.3273 17.0719 20.0694C17.3298 19.8115 17.6795 19.6667 18.0442 19.6667H19.6667C20.8822 19.6667 22.048 19.1838 22.9076 18.3242C23.7671 17.4647 24.25 16.2989 24.25 15.0833C24.25 11.0317 20.5558 7.75 16 7.75Z" fill="#A59DC3"/>
</svg>
