<svg width="40" height="40" viewBox="0 0 40 40" fill="none" xmlns="http://www.w3.org/2000/svg">
<rect x="4" y="3" width="32" height="32" rx="8" fill="white"/>
<g filter="url(#filter0_d_817_12884)">
<path d="M20.0004 22.5999C20.9552 22.5999 21.8708 22.2206 22.546 21.5455C23.2211 20.8704 23.6004 19.9547 23.6004 18.9999C23.6004 18.0451 23.2211 17.1294 22.546 16.4543C21.8708 15.7792 20.9552 15.3999 20.0004 15.3999C19.0456 15.3999 18.1299 15.7792 17.4548 16.4543C16.7797 17.1294 16.4004 18.0451 16.4004 18.9999C16.4004 19.9547 16.7797 20.8704 17.4548 21.5455C18.1299 22.2206 19.0456 22.5999 20.0004 22.5999ZM20.9004 10.2999C20.9004 10.0612 20.8056 9.83229 20.6368 9.66351C20.468 9.49472 20.2391 9.3999 20.0004 9.3999C19.7617 9.3999 19.5328 9.49472 19.364 9.66351C19.1952 9.83229 19.1004 10.0612 19.1004 10.2999V11.8551C17.514 12.0553 16.0394 12.7777 14.9088 13.9083C13.7781 15.0389 13.0558 16.5136 12.8556 18.0999H11.3004C11.0617 18.0999 10.8328 18.1947 10.664 18.3635C10.4952 18.5323 10.4004 18.7612 10.4004 18.9999C10.4004 19.2386 10.4952 19.4675 10.664 19.6363C10.8328 19.8051 11.0617 19.8999 11.3004 19.8999H12.8556C13.0558 21.4863 13.7781 22.9609 14.9088 24.0915C16.0394 25.2221 17.514 25.9445 19.1004 26.1447V27.6999C19.1004 27.9386 19.1952 28.1675 19.364 28.3363C19.5328 28.5051 19.7617 28.5999 20.0004 28.5999C20.2391 28.5999 20.468 28.5051 20.6368 28.3363C20.8056 28.1675 20.9004 27.9386 20.9004 27.6999V26.1447C22.4867 25.9445 23.9614 25.2221 25.092 24.0915C26.2226 22.9609 26.945 21.4863 27.1452 19.8999H28.7004C28.9391 19.8999 29.168 19.8051 29.3368 19.6363C29.5056 19.4675 29.6004 19.2386 29.6004 18.9999C29.6004 18.7612 29.5056 18.5323 29.3368 18.3635C29.168 18.1947 28.9391 18.0999 28.7004 18.0999H27.1452C26.945 16.5136 26.2226 15.0389 25.092 13.9083C23.9614 12.7777 22.4867 12.0553 20.9004 11.8551V10.2999ZM20.0004 24.3999C19.2913 24.3999 18.5891 24.2602 17.9339 23.9889C17.2787 23.7175 16.6835 23.3197 16.182 22.8183C15.6806 22.3168 15.2828 21.7216 15.0114 21.0664C14.7401 20.4112 14.6004 19.709 14.6004 18.9999C14.6004 18.2908 14.7401 17.5886 15.0114 16.9334C15.2828 16.2783 15.6806 15.683 16.182 15.1815C16.6835 14.6801 17.2787 14.2823 17.9339 14.011C18.5891 13.7396 19.2913 13.5999 20.0004 13.5999C21.4326 13.5999 22.8061 14.1688 23.8188 15.1815C24.8315 16.1942 25.4004 17.5677 25.4004 18.9999C25.4004 20.4321 24.8315 21.8056 23.8188 22.8183C22.8061 23.831 21.4326 24.3999 20.0004 24.3999Z" fill="#3E4958"/>
</g>
<defs>
<filter id="filter0_d_817_12884" x="-4" y="-4" width="48" height="48" filterUnits="userSpaceOnUse" color-interpolation-filters="sRGB">
<feFlood flood-opacity="0" result="BackgroundImageFix"/>
<feColorMatrix in="SourceAlpha" type="matrix" values="0 0 0 0 0 0 0 0 0 0 0 0 0 0 0 0 0 0 127 0" result="hardAlpha"/>
<feOffset dy="1"/>
<feGaussianBlur stdDeviation="4"/>
<feComposite in2="hardAlpha" operator="out"/>
<feColorMatrix type="matrix" values="0 0 0 0 0 0 0 0 0 0 0 0 0 0 0 0 0 0 0.15 0"/>
<feBlend mode="normal" in2="BackgroundImageFix" result="effect1_dropShadow_817_12884"/>
<feBlend mode="normal" in="SourceGraphic" in2="effect1_dropShadow_817_12884" result="shape"/>
</filter>
</defs>
</svg>
