<svg width="32" height="32" viewBox="0 0 32 32" fill="none" xmlns="http://www.w3.org/2000/svg">
<rect width="32" height="32" rx="8" fill="#FFE7E7"/>
<g clip-path="url(#clip0_818_7576)">
<path d="M20.4141 16L21.8281 14.586C22.0103 14.3974 22.111 14.1448 22.1088 13.8826C22.1065 13.6204 22.0013 13.3696 21.8159 13.1842C21.6305 12.9988 21.3797 12.8936 21.1175 12.8913C20.8553 12.889 20.6027 12.9898 20.4141 13.172L19.0001 14.586L17.5861 13.172C17.4938 13.0765 17.3835 13.0003 17.2615 12.9479C17.1395 12.8955 17.0083 12.8679 16.8755 12.8667C16.7427 12.8656 16.611 12.8909 16.4881 12.9412C16.3652 12.9915 16.2536 13.0657 16.1597 13.1596C16.0658 13.2535 15.9916 13.3651 15.9413 13.488C15.891 13.6109 15.8657 13.7426 15.8668 13.8754C15.868 14.0082 15.8956 14.1394 15.948 14.2614C16.0004 14.3834 16.0766 14.4938 16.1721 14.586L17.5861 16L16.1721 17.414C16.0766 17.5062 16.0004 17.6166 15.948 17.7386C15.8956 17.8606 15.868 17.9918 15.8668 18.1246C15.8657 18.2574 15.891 18.3891 15.9413 18.512C15.9916 18.6349 16.0658 18.7465 16.1597 18.8404C16.2536 18.9343 16.3652 19.0085 16.4881 19.0588C16.611 19.1091 16.7427 19.1344 16.8755 19.1333C17.0083 19.1321 17.1395 19.1045 17.2615 19.0521C17.3835 18.9997 17.4938 18.9235 17.5861 18.828L19.0001 17.414L20.4141 18.828C20.5063 18.9235 20.6167 18.9997 20.7387 19.0521C20.8607 19.1045 20.9919 19.1321 21.1247 19.1333C21.2575 19.1344 21.3892 19.1091 21.512 19.0588C21.6349 19.0085 21.7466 18.9343 21.8405 18.8404C21.9344 18.7465 22.0086 18.6349 22.0589 18.512C22.1092 18.3891 22.1345 18.2574 22.1333 18.1246C22.1322 17.9918 22.1046 17.8606 22.0522 17.7386C21.9998 17.6166 21.9236 17.5062 21.8281 17.414L20.4141 16ZM13.8281 9H24.0001C24.5305 9 25.0392 9.21071 25.4143 9.58579C25.7894 9.96086 26.0001 10.4696 26.0001 11V21C26.0001 21.5304 25.7894 22.0391 25.4143 22.4142C25.0392 22.7893 24.5305 23 24.0001 23H13.8281C13.2977 22.9999 12.7891 22.7891 12.4141 22.414L6.70709 16.707C6.51962 16.5195 6.41431 16.2652 6.41431 16C6.41431 15.7348 6.51962 15.4805 6.70709 15.293L12.4141 9.586C12.7891 9.2109 13.2977 9.00011 13.8281 9Z" fill="#F38686"/>
</g>
<defs>
<clipPath id="clip0_818_7576">
<rect width="24" height="24" fill="white" transform="translate(4 4)"/>
</clipPath>
</defs>
</svg>
