<svg width="32" height="32" viewBox="0 0 32 32" fill="none" xmlns="http://www.w3.org/2000/svg">
<rect width="32" height="32" rx="8" fill="#FFE7E7"/>
<g clip-path="url(#clip0_817_12900)">
<g clip-path="url(#clip1_817_12900)">
<path d="M9.125 7.25C8.79348 7.25 8.47554 7.3817 8.24112 7.61612C8.0067 7.85054 7.875 8.16848 7.875 8.5V9.75C7.875 10.0815 8.0067 10.3995 8.24112 10.6339C8.47554 10.8683 8.79348 11 9.125 11H9.75V22.25C9.75 22.913 10.0134 23.5489 10.4822 24.0178C10.9511 24.4866 11.587 24.75 12.25 24.75H19.75C20.413 24.75 21.0489 24.4866 21.5178 24.0178C21.9866 23.5489 22.25 22.913 22.25 22.25V11H22.875C23.2065 11 23.5245 10.8683 23.7589 10.6339C23.9933 10.3995 24.125 10.0815 24.125 9.75V8.5C24.125 8.16848 23.9933 7.85054 23.7589 7.61612C23.5245 7.3817 23.2065 7.25 22.875 7.25H18.5C18.5 6.91848 18.3683 6.60054 18.1339 6.36612C17.8995 6.1317 17.5815 6 17.25 6H14.75C14.4185 6 14.1005 6.1317 13.8661 6.36612C13.6317 6.60054 13.5 6.91848 13.5 7.25H9.125ZM12.875 12.25C13.0408 12.25 13.1997 12.3158 13.3169 12.4331C13.4342 12.5503 13.5 12.7092 13.5 12.875V21.625C13.5 21.7908 13.4342 21.9497 13.3169 22.0669C13.1997 22.1842 13.0408 22.25 12.875 22.25C12.7092 22.25 12.5503 22.1842 12.4331 22.0669C12.3158 21.9497 12.25 21.7908 12.25 21.625V12.875C12.25 12.7092 12.3158 12.5503 12.4331 12.4331C12.5503 12.3158 12.7092 12.25 12.875 12.25ZM16 12.25C16.1658 12.25 16.3247 12.3158 16.4419 12.4331C16.5592 12.5503 16.625 12.7092 16.625 12.875V21.625C16.625 21.7908 16.5592 21.9497 16.4419 22.0669C16.3247 22.1842 16.1658 22.25 16 22.25C15.8342 22.25 15.6753 22.1842 15.5581 22.0669C15.4408 21.9497 15.375 21.7908 15.375 21.625V12.875C15.375 12.7092 15.4408 12.5503 15.5581 12.4331C15.6753 12.3158 15.8342 12.25 16 12.25ZM19.75 12.875V21.625C19.75 21.7908 19.6842 21.9497 19.5669 22.0669C19.4497 22.1842 19.2908 22.25 19.125 22.25C18.9592 22.25 18.8003 22.1842 18.6831 22.0669C18.5658 21.9497 18.5 21.7908 18.5 21.625V12.875C18.5 12.7092 18.5658 12.5503 18.6831 12.4331C18.8003 12.3158 18.9592 12.25 19.125 12.25C19.2908 12.25 19.4497 12.3158 19.5669 12.4331C19.6842 12.5503 19.75 12.7092 19.75 12.875Z" fill="#F38686"/>
</g>
</g>
<defs>
<clipPath id="clip0_817_12900">
<rect width="24" height="24" fill="white" transform="translate(4 4)"/>
</clipPath>
<clipPath id="clip1_817_12900">
<rect width="20" height="20" fill="white" transform="translate(6 6)"/>
</clipPath>
</defs>
</svg>
