<svg width="32" height="32" viewBox="0 0 32 32" fill="none" xmlns="http://www.w3.org/2000/svg">
<rect width="32" height="32" rx="8" fill="#F7F8F9"/>
<g clip-path="url(#clip0_817_13202)">
<path d="M23.0834 7.66668H18.9167C18.8816 7.66653 18.847 7.65714 18.8166 7.63945C18.7862 7.62175 18.7609 7.59637 18.7434 7.56585C18.4613 7.08889 18.0598 6.69366 17.5785 6.41911C17.0971 6.14457 16.5526 6.00018 15.9984 6.00018C15.4443 6.00018 14.8997 6.14457 14.4184 6.41911C13.937 6.69366 13.5355 7.08889 13.2534 7.56585C13.2362 7.59589 13.2115 7.62096 13.1817 7.63863C13.1519 7.65629 13.118 7.66596 13.0834 7.66668H8.91675C8.58523 7.66668 8.26729 7.79838 8.03286 8.0328C7.79844 8.26722 7.66675 8.58516 7.66675 8.91668V24.75C7.66675 25.0815 7.79844 25.3995 8.03286 25.6339C8.26729 25.8683 8.58523 26 8.91675 26H23.0834C23.4149 26 23.7329 25.8683 23.9673 25.6339C24.2017 25.3995 24.3334 25.0815 24.3334 24.75V8.91668C24.3334 8.58516 24.2017 8.26722 23.9673 8.0328C23.7329 7.79838 23.4149 7.66668 23.0834 7.66668ZM21.8334 19.55C21.8337 20.0469 21.6563 20.5274 21.3334 20.905L19.7342 22.7717C19.5385 23.0001 19.2956 23.1833 19.0223 23.3089C18.749 23.4345 18.4517 23.4994 18.1509 23.4992H10.5834C10.4729 23.4992 10.3669 23.4553 10.2888 23.3771C10.2106 23.299 10.1667 23.193 10.1667 23.0825V10.5833C10.1667 10.4728 10.2106 10.3669 10.2888 10.2887C10.3669 10.2106 10.4729 10.1667 10.5834 10.1667H21.4167C21.5273 10.1667 21.6332 10.2106 21.7114 10.2887C21.7895 10.3669 21.8334 10.4728 21.8334 10.5833V19.55Z" fill="#97ADB6"/>
<path d="M19.3334 12.8742H12.6667C12.501 12.8742 12.342 12.94 12.2248 13.0572C12.1076 13.1744 12.0417 13.3334 12.0417 13.4992C12.0417 13.6649 12.1076 13.8239 12.2248 13.9411C12.342 14.0583 12.501 14.1242 12.6667 14.1242H19.3334C19.4992 14.1242 19.6581 14.0583 19.7754 13.9411C19.8926 13.8239 19.9584 13.6649 19.9584 13.4992C19.9584 13.3334 19.8926 13.1744 19.7754 13.0572C19.6581 12.94 19.4992 12.8742 19.3334 12.8742Z" fill="#97ADB6"/>
<path d="M19.3334 15.7908H12.6667C12.501 15.7908 12.342 15.8567 12.2248 15.9739C12.1076 16.0911 12.0417 16.2501 12.0417 16.4158C12.0417 16.5816 12.1076 16.7406 12.2248 16.8578C12.342 16.975 12.501 17.0408 12.6667 17.0408H19.3334C19.4992 17.0408 19.6581 16.975 19.7754 16.8578C19.8926 16.7406 19.9584 16.5816 19.9584 16.4158C19.9584 16.2501 19.8926 16.0911 19.7754 15.9739C19.6581 15.8567 19.4992 15.7908 19.3334 15.7908Z" fill="#97ADB6"/>
<path d="M16.4167 18.7075H12.6667C12.501 18.7075 12.342 18.7733 12.2248 18.8905C12.1076 19.0078 12.0417 19.1667 12.0417 19.3325C12.0417 19.4982 12.1076 19.6572 12.2248 19.7744C12.342 19.8916 12.501 19.9575 12.6667 19.9575H16.4167C16.5825 19.9575 16.7415 19.8916 16.8587 19.7744C16.9759 19.6572 17.0417 19.4982 17.0417 19.3325C17.0417 19.1667 16.9759 19.0078 16.8587 18.8905C16.7415 18.7733 16.5825 18.7075 16.4167 18.7075Z" fill="#97ADB6"/>
</g>
<defs>
<clipPath id="clip0_817_13202">
<rect width="20" height="20" fill="white" transform="translate(6 6)"/>
</clipPath>
</defs>
</svg>
