<svg width="32" height="32" viewBox="0 0 32 32" fill="none" xmlns="http://www.w3.org/2000/svg">
<rect width="32" height="32" rx="8" fill="#F7F8F9"/>
<g clip-path="url(#clip0_2094_33251)">
<path fill-rule="evenodd" clip-rule="evenodd" d="M20.1666 9.75V6.20667C20.1662 6.1517 20.144 6.09914 20.105 6.06043C20.066 6.02172 20.0132 6 19.9583 6H11C10.5579 6 10.134 6.17559 9.82146 6.48816C9.5089 6.80072 9.33331 7.22464 9.33331 7.66667C9.33331 7.66667 9.33319 11.6225 9.3333 11.8879C10.4317 11.3205 11.6784 11 13 11C17.4183 11 21 14.5817 21 19C21 22.0108 19.3368 24.6331 16.879 25.9983H24.3333C24.7753 25.9983 25.1992 25.8227 25.5118 25.5102C25.8243 25.1976 25.9999 24.7737 25.9999 24.3317V12.04C25.9995 11.985 25.9773 11.9325 25.9383 11.8938C25.8993 11.8551 25.8465 11.8333 25.7916 11.8333H22.2499C21.6974 11.8333 21.1675 11.6138 20.7768 11.2231C20.3861 10.8324 20.1666 10.3025 20.1666 9.75ZM22.25 11H25.5C25.5413 11.0001 25.5816 10.9879 25.6159 10.965C25.6503 10.9421 25.677 10.9096 25.6928 10.8714C25.7086 10.8333 25.7128 10.7914 25.7047 10.7509C25.6966 10.7105 25.6767 10.6733 25.6475 10.6442L21.3558 6.35417C21.3268 6.32506 21.2898 6.30519 21.2495 6.29706C21.2092 6.28894 21.1674 6.29293 21.1293 6.30852C21.0913 6.32411 21.0587 6.35061 21.0357 6.38469C21.0127 6.41876 21.0003 6.45888 21 6.5V9.75C21 10.0815 21.1317 10.3995 21.3661 10.6339C21.6005 10.8683 21.9185 11 22.25 11Z" fill="#A59DC3"/>
<path fill-rule="evenodd" clip-rule="evenodd" d="M13 26C16.866 26 20 22.866 20 19C20 15.134 16.866 12 13 12C9.13401 12 6 15.134 6 19C6 22.866 9.13401 26 13 26ZM16.7692 16.8389C16.7692 16.698 16.7098 16.5629 16.6039 16.4632C16.4979 16.3636 16.3543 16.3077 16.2045 16.3077C16.0547 16.3077 15.911 16.3636 15.805 16.4632L11.6161 20.4025L10.2044 19.0301C10.1529 18.9795 10.0913 18.9389 10.0231 18.9108C9.95483 18.8827 9.88138 18.8675 9.8069 18.8661C9.73242 18.8648 9.6584 18.8773 9.58908 18.9029C9.51976 18.9286 9.45651 18.9669 9.40298 19.0156C9.34944 19.0643 9.30668 19.1225 9.27713 19.1868C9.24759 19.2512 9.23185 19.3203 9.23082 19.3904C9.2298 19.4604 9.2435 19.53 9.27115 19.5951C9.2988 19.6601 9.33985 19.7194 9.39194 19.7695L11.203 21.5304C11.2552 21.5811 11.3175 21.6215 11.3865 21.6493C11.4554 21.6771 11.5295 21.6917 11.6045 21.6923C11.6794 21.6929 11.7538 21.6794 11.8232 21.6527C11.8926 21.626 11.9557 21.5866 12.0087 21.5368L16.6039 17.2146C16.7098 17.1149 16.7692 16.9798 16.7692 16.8389Z" fill="#A59DC3"/>
</g>
<defs>
<clipPath id="clip0_2094_33251">
<rect width="20" height="20" fill="white" transform="translate(6 6)"/>
</clipPath>
</defs>
</svg>
