<svg width="32" height="32" viewBox="0 0 32 32" fill="none" xmlns="http://www.w3.org/2000/svg">
<rect width="32" height="32" rx="8" fill="#F6F5FA"/>
<g clip-path="url(#clip0_2329_1093)">
<path d="M16 4C9.37204 4 4 9.37256 4 16C4 22.6274 9.37204 28 16 28C22.628 28 28 22.6269 28 16C28 9.37308 22.6274 4 16 4ZM16.7264 21.3454V22.7345C16.7264 22.9512 16.5577 23.1089 16.3405 23.1089H15.4146C15.1974 23.1089 15.0224 22.9512 15.0224 22.7345V21.4676C14.1702 21.429 13.3106 21.2472 12.6599 20.9997C12.3074 20.866 12.1111 20.4884 12.2045 20.1229L12.3555 19.5349C12.4082 19.3286 12.5461 19.1563 12.7346 19.0597C12.9231 18.9615 13.1445 18.9516 13.3424 19.0273C13.9623 19.267 14.6945 19.4414 15.4762 19.4414C16.4716 19.4414 17.1531 19.0571 17.1531 18.3583C17.1531 17.6946 16.5943 17.2753 15.3013 16.8382C13.4323 16.2094 12.1523 15.3363 12.1523 13.6417C12.1523 12.1048 13.2401 10.8995 15.0997 10.5324V9.2655C15.0997 9.04878 15.2851 8.85452 15.5023 8.85452H16.4282C16.6455 8.85452 16.8047 9.04878 16.8047 9.2655V10.4097C17.6178 10.4447 18.2048 10.5653 18.6957 10.7251C19.067 10.8463 19.2863 11.2353 19.1887 11.6144L19.056 12.1408C19.0043 12.3414 18.8717 12.5116 18.6899 12.6098C18.5082 12.708 18.2936 12.7257 18.0972 12.6583C17.6512 12.5053 17.0695 12.3664 16.3321 12.3664C15.1968 12.3664 14.8297 12.8557 14.8297 13.3451C14.8297 13.9216 15.4412 14.2882 16.9259 14.8475C19.0043 15.5812 19.8393 16.5421 19.8393 18.1134C19.8388 19.668 18.7406 20.9966 16.7264 21.3454Z" fill="#A59DC3"/>
</g>
<defs>
<clipPath id="clip0_2329_1093">
<rect width="24" height="24" fill="white" transform="translate(4 4)"/>
</clipPath>
</defs>
</svg>
