<svg width="32" height="32" viewBox="0 0 32 32" fill="none" xmlns="http://www.w3.org/2000/svg">
<rect width="32" height="32" rx="8" fill="white"/>
<path d="M12.5 11C12.697 11 12.892 10.9612 13.074 10.8858C13.256 10.8104 13.4214 10.6999 13.5607 10.5607C13.6999 10.4214 13.8104 10.256 13.8858 10.074C13.9612 9.89204 14 9.69698 14 9.5C14 9.30302 13.9612 9.10796 13.8858 8.92597C13.8104 8.74399 13.6999 8.57863 13.5607 8.43934C13.4214 8.30005 13.256 8.18956 13.074 8.11418C12.892 8.0388 12.697 8 12.5 8C12.1022 8 11.7206 8.15804 11.4393 8.43934C11.158 8.72064 11 9.10218 11 9.5C11 9.89782 11.158 10.2794 11.4393 10.5607C11.7206 10.842 12.1022 11 12.5 11ZM12.5 17.5C12.8978 17.5 13.2794 17.342 13.5607 17.0607C13.842 16.7794 14 16.3978 14 16C14 15.6022 13.842 15.2206 13.5607 14.9393C13.2794 14.658 12.8978 14.5 12.5 14.5C12.1022 14.5 11.7206 14.658 11.4393 14.9393C11.158 15.2206 11 15.6022 11 16C11 16.3978 11.158 16.7794 11.4393 17.0607C11.7206 17.342 12.1022 17.5 12.5 17.5ZM14 22.5C14 22.8978 13.842 23.2794 13.5607 23.5607C13.2794 23.842 12.8978 24 12.5 24C12.1022 24 11.7206 23.842 11.4393 23.5607C11.158 23.2794 11 22.8978 11 22.5C11 22.1022 11.158 21.7206 11.4393 21.4393C11.7206 21.158 12.1022 21 12.5 21C12.8978 21 13.2794 21.158 13.5607 21.4393C13.842 21.7206 14 22.1022 14 22.5ZM19.5 11C19.697 11 19.892 10.9612 20.074 10.8858C20.256 10.8104 20.4214 10.6999 20.5607 10.5607C20.6999 10.4214 20.8104 10.256 20.8858 10.074C20.9612 9.89204 21 9.69698 21 9.5C21 9.30302 20.9612 9.10796 20.8858 8.92597C20.8104 8.74399 20.6999 8.57863 20.5607 8.43934C20.4214 8.30005 20.256 8.18956 20.074 8.11418C19.892 8.0388 19.697 8 19.5 8C19.1022 8 18.7206 8.15804 18.4393 8.43934C18.158 8.72064 18 9.10218 18 9.5C18 9.89782 18.158 10.2794 18.4393 10.5607C18.7206 10.842 19.1022 11 19.5 11ZM21 16C21 16.3978 20.842 16.7794 20.5607 17.0607C20.2794 17.342 19.8978 17.5 19.5 17.5C19.1022 17.5 18.7206 17.342 18.4393 17.0607C18.158 16.7794 18 16.3978 18 16C18 15.6022 18.158 15.2206 18.4393 14.9393C18.7206 14.658 19.1022 14.5 19.5 14.5C19.8978 14.5 20.2794 14.658 20.5607 14.9393C20.842 15.2206 21 15.6022 21 16ZM19.5 24C19.8978 24 20.2794 23.842 20.5607 23.5607C20.842 23.2794 21 22.8978 21 22.5C21 22.1022 20.842 21.7206 20.5607 21.4393C20.2794 21.158 19.8978 21 19.5 21C19.1022 21 18.7206 21.158 18.4393 21.4393C18.158 21.7206 18 22.1022 18 22.5C18 22.8978 18.158 23.2794 18.4393 23.5607C18.7206 23.842 19.1022 24 19.5 24Z" fill="#97ADB6"/>
</svg>
