<svg width="32" height="32" viewBox="0 0 32 32" fill="none" xmlns="http://www.w3.org/2000/svg">
<rect width="32" height="32" rx="8" fill="#E5DEFF"/>
<g clip-path="url(#clip0_817_12901)">
<path d="M22.783 6L26 9.00257L23.5475 11.2925L20.3305 8.28996L22.783 6ZM11 20H14.217L22.0312 12.7067L18.8142 9.70417L11 16.9974V20Z" fill="#A59DC3"/>
<path d="M22.8889 23.8889H11.4446C11.4171 23.8889 11.3886 23.8994 11.3612 23.8994C11.3263 23.8994 11.2915 23.8899 11.2556 23.8889H8.11111V9.11111H15.3385L17.4496 7H8.11111C6.94683 7 6 7.94578 6 9.11111V23.8889C6 25.0542 6.94683 26 8.11111 26H22.8889C23.4488 26 23.9858 25.7776 24.3817 25.3817C24.7776 24.9858 25 24.4488 25 23.8889V14.7393L22.8889 16.8504V23.8889Z" fill="#A59DC3"/>
</g>
<defs>
<clipPath id="clip0_817_12901">
<rect width="24" height="24" fill="white" transform="translate(4 4)"/>
</clipPath>
</defs>
</svg>
