<svg width="32" height="32" viewBox="0 0 32 32" fill="none" xmlns="http://www.w3.org/2000/svg">
<rect width="32" height="32" rx="8" fill="#E8F0FF"/>
<path d="M24 8H8C6.9 8 6 8.9 6 10V22C6 23.1 6.9 24 8 24H24C25.1 24 26 23.1 26 22V10C26 8.9 25.1 8 24 8ZM23.6 12.25L17.06 16.34C16.41 16.75 15.59 16.75 14.94 16.34L8.4 12.25C8.29973 12.1937 8.21192 12.1177 8.14189 12.0265C8.07186 11.9352 8.02106 11.8308 7.99258 11.7194C7.96409 11.608 7.9585 11.4919 7.97616 11.3783C7.99381 11.2647 8.03434 11.1558 8.09528 11.0583C8.15623 10.9608 8.23632 10.8767 8.33073 10.811C8.42513 10.7453 8.53187 10.6995 8.6445 10.6763C8.75712 10.6531 8.87328 10.653 8.98595 10.6759C9.09863 10.6989 9.20546 10.7445 9.3 10.81L16 15L22.7 10.81C22.7945 10.7445 22.9014 10.6989 23.014 10.6759C23.1267 10.653 23.2429 10.6531 23.3555 10.6763C23.4681 10.6995 23.5749 10.7453 23.6693 10.811C23.7637 10.8767 23.8438 10.9608 23.9047 11.0583C23.9657 11.1558 24.0062 11.2647 24.0238 11.3783C24.0415 11.4919 24.0359 11.608 24.0074 11.7194C23.9789 11.8308 23.9281 11.9352 23.8581 12.0265C23.7881 12.1177 23.7003 12.1937 23.6 12.25Z" fill="#A6BEEA"/>
</svg>
