<svg width="32" height="32" viewBox="0 0 32 32" fill="none" xmlns="http://www.w3.org/2000/svg">
<rect width="32" height="32" rx="8" fill="#F6F5FA"/>
<g clip-path="url(#clip0_927_16743)">
<path d="M26.9157 16.3034L23.2829 8.43199C22.8347 7.46124 21.8547 6.83333 20.785 6.83333H11.215C10.1453 6.83333 9.16533 7.46125 8.718 8.43108L5.08433 16.3034C5.02842 16.4235 5 16.5546 5 16.6875V22.4167C5 23.9328 6.23383 25.1667 7.75 25.1667H24.25C25.7662 25.1667 27 23.9328 27 22.4167V16.6875C27 16.5546 26.9716 16.4235 26.9157 16.3034ZM10.3827 9.19924C10.5321 8.87566 10.8584 8.66666 11.215 8.66666H20.785C21.1416 8.66666 21.4679 8.87566 21.6173 9.19924L24.756 16H22.8686C22.1554 16 21.5376 16.4592 21.3323 17.1431L20.3487 20.4202C20.3202 20.5173 20.2323 20.5833 20.1305 20.5833H11.8695C11.7678 20.5833 11.6798 20.5173 11.6504 20.4192L10.6668 17.1431C10.4615 16.4592 9.84458 16 9.1305 16H7.244L10.3827 9.19924Z" fill="#CCC8D9"/>
</g>
<defs>
<clipPath id="clip0_927_16743">
<rect width="22" height="22" fill="white" transform="translate(5 5)"/>
</clipPath>
</defs>
</svg>
