<svg width="30" height="30" viewBox="0 0 30 30" fill="none" xmlns="http://www.w3.org/2000/svg">
<rect width="30" height="30" rx="8" fill="#F7F8F9"/>
<path d="M25.2532 14.7216C25.2231 14.6537 24.4952 13.0389 22.877 11.4207C20.7209 9.26453 17.9975 8.125 15 8.125C12.0025 8.125 9.27913 9.26453 7.12296 11.4207C5.50476 13.0389 4.77343 14.6562 4.74679 14.7216C4.7077 14.8095 4.6875 14.9046 4.6875 15.0009C4.6875 15.0971 4.7077 15.1922 4.74679 15.2802C4.77687 15.348 5.50476 16.962 7.12296 18.5802C9.27913 20.7355 12.0025 21.875 15 21.875C17.9975 21.875 20.7209 20.7355 22.877 18.5802C24.4952 16.962 25.2231 15.348 25.2532 15.2802C25.2923 15.1922 25.3125 15.0971 25.3125 15.0009C25.3125 14.9046 25.2923 14.8095 25.2532 14.7216ZM15 18.4375C14.3201 18.4375 13.6555 18.2359 13.0902 17.8582C12.5249 17.4805 12.0843 16.9436 11.8242 16.3155C11.564 15.6874 11.4959 14.9962 11.6285 14.3294C11.7612 13.6626 12.0886 13.0501 12.5693 12.5693C13.0501 12.0886 13.6626 11.7612 14.3294 11.6286C14.9962 11.4959 15.6873 11.564 16.3155 11.8242C16.9436 12.0843 17.4805 12.5249 17.8582 13.0902C18.2359 13.6555 18.4375 14.3201 18.4375 15C18.4375 15.9117 18.0753 16.786 17.4307 17.4307C16.786 18.0753 15.9117 18.4375 15 18.4375Z" fill="#3E4958"/>
</svg>
