<svg width="30" height="30" viewBox="0 0 30 30" fill="none" xmlns="http://www.w3.org/2000/svg">
<rect width="30" height="30" rx="8" fill="#F7F8F9"/>
<path d="M25.2667 13.6699C24.1066 12.3983 22.7808 11.2883 21.325 10.3699L24.9917 6.70783C25.0792 6.62328 25.1491 6.52213 25.1971 6.41029C25.2452 6.29845 25.2705 6.17817 25.2715 6.05645C25.2726 5.93474 25.2494 5.81403 25.2033 5.70138C25.1572 5.58872 25.0891 5.48637 25.0031 5.40031C24.917 5.31424 24.8146 5.24617 24.702 5.20008C24.5893 5.15399 24.4686 5.1308 24.3469 5.13186C24.2252 5.13291 24.1049 5.1582 23.9931 5.20624C23.8812 5.25428 23.7801 5.32412 23.6955 5.41167L23.679 5.42817C23.6476 5.52819 23.5933 5.61951 23.5204 5.69492L5.64545 23.5699C5.63811 23.5763 5.62895 23.5782 5.62161 23.5855C5.54125 23.7813 5.53113 23.9989 5.59299 24.2014C5.65484 24.4038 5.78486 24.5786 5.96095 24.6961C6.13705 24.8136 6.34838 24.8665 6.55905 24.8458C6.76972 24.8252 6.96676 24.7323 7.1167 24.5828L10.9172 20.7823C12.1645 21.3269 13.5072 21.6195 14.868 21.6431H15.143C19.0444 21.6431 22.9246 18.9078 25.2731 16.3264C25.5994 15.9606 25.7792 15.4872 25.778 14.9969C25.7769 14.5067 25.5948 14.0342 25.2667 13.6699ZM18.9536 16.1642C18.7545 16.8151 18.4002 17.4078 17.9211 17.8913C17.442 18.3749 16.8526 18.7347 16.2036 18.9398C15.2678 19.2378 14.2544 19.1757 13.3619 18.7657C13.3286 18.7495 13.2997 18.7256 13.2775 18.6959C13.2553 18.6663 13.2405 18.6318 13.2344 18.5952C13.2283 18.5587 13.2311 18.5212 13.2424 18.486C13.2537 18.4507 13.2734 18.4187 13.2996 18.3926L18.3963 13.2968C18.4222 13.2703 18.4542 13.2505 18.4894 13.239C18.5247 13.2274 18.5622 13.2246 18.5988 13.2306C18.6354 13.2366 18.67 13.2514 18.6997 13.2736C18.7294 13.2958 18.7533 13.3248 18.7694 13.3583C19.1737 14.2391 19.2393 15.238 18.9536 16.1642Z" fill="#3E4958"/>
<path d="M10.9804 16.2833C11.0085 16.255 11.0285 16.2196 11.0383 16.181C11.0481 16.1423 11.0474 16.1017 11.0363 16.0633C10.9343 15.7179 10.8801 15.3601 10.875 15C10.875 13.906 11.3096 12.8568 12.0831 12.0832C12.8567 11.3096 13.9059 10.875 15 10.875C15.36 10.8788 15.7178 10.9321 16.0633 11.0336C16.1017 11.0446 16.1424 11.0452 16.181 11.0352C16.2197 11.0252 16.255 11.005 16.2833 10.9767L18.0625 9.19658C18.0907 9.16848 18.1112 9.13364 18.122 9.09537C18.1329 9.05711 18.1338 9.0167 18.1246 8.978C18.1154 8.93931 18.0964 8.90361 18.0695 8.87432C18.0426 8.84502 18.0086 8.82311 17.9709 8.81067C17.0109 8.50255 16.0082 8.34848 15 8.35417C11.0583 8.301 7.11662 11.0583 4.7452 13.6699C4.41259 14.0323 4.22751 14.506 4.22632 14.9978C4.22514 15.4897 4.40793 15.9643 4.73879 16.3282C5.68589 17.3652 6.74255 18.2965 7.89029 19.1057C7.93537 19.1369 7.98993 19.1513 8.04451 19.1464C8.09909 19.1416 8.15025 19.1178 8.18912 19.0792L10.9804 16.2833Z" fill="#3E4958"/>
</svg>
