<svg width="32" height="32" viewBox="0 0 32 32" fill="none" xmlns="http://www.w3.org/2000/svg">
<rect width="32" height="31.8664" rx="8" fill="white"/>
<path d="M27 16C27 9.92491 22.0751 5 16 5C9.92491 5 5 9.92491 5 16C5 21.4904 9.02256 26.0412 14.2812 26.8664V19.1797H11.4883V16H14.2812V13.5766C14.2812 10.8197 15.9235 9.29688 18.4362 9.29688C19.6396 9.29688 20.8984 9.51172 20.8984 9.51172V12.2188H19.5114C18.1449 12.2188 17.7188 13.0667 17.7188 13.9366V16H20.7695L20.2818 19.1797H17.7188V26.8664C22.9774 26.0412 27 21.4905 27 16Z" fill="#1877F2"/>
</svg>
