<svg width="32" height="32" viewBox="0 0 32 32" fill="none" xmlns="http://www.w3.org/2000/svg">
<rect width="32" height="32" rx="8" fill="#FEBAC7"/>
<path d="M15.3878 9.47398C14.9887 9.00882 14.5126 8.63897 13.9873 8.38594C13.4619 8.1329 12.8978 8.00172 12.3278 8.00002C11.7577 7.99832 11.193 8.12613 10.6665 8.37603C10.14 8.62592 9.66228 8.99292 9.26099 9.45569C7.57303 11.4043 7.58103 14.5711 9.27699 16.5288L15.5538 23.7746C15.8138 24.0751 16.2358 24.0751 16.4958 23.7746L22.7407 16.57C23.5508 15.6249 24.0032 14.3536 24 13.0306C23.9968 11.7076 23.5384 10.4391 22.7237 9.49912C22.3241 9.03307 21.8474 8.66251 21.3213 8.40901C20.7953 8.15551 20.2303 8.02414 19.6594 8.02255C19.0885 8.02095 18.523 8.14916 17.9958 8.39972C17.4687 8.65027 16.9904 9.01816 16.5888 9.48198L15.9928 10.1711L15.3878 9.47398Z" fill="#FFE4E4"/>
</svg>
