<svg width="32" height="32" viewBox="0 0 32 32" fill="none" xmlns="http://www.w3.org/2000/svg">
<rect width="32" height="32" rx="8" fill="#FEBAC7"/>
<path fill-rule="evenodd" clip-rule="evenodd" d="M9.87868 6.87868C10.4413 6.31607 11.2044 6 12 6H20C20.7956 6 21.5587 6.31607 22.1213 6.87868C22.6839 7.44129 23 8.20435 23 9V25C22.9999 25.1704 22.9563 25.3379 22.8733 25.4867C22.7902 25.6355 22.6706 25.7606 22.5256 25.8502C22.3806 25.9398 22.2152 25.9908 22.045 25.9985C21.8748 26.0061 21.7054 25.9702 21.553 25.894L16 23.118L10.447 25.894C10.2946 25.9702 10.1252 26.0061 9.95501 25.9985C9.78479 25.9908 9.61935 25.9398 9.47439 25.8502C9.32944 25.7606 9.20977 25.6355 9.12674 25.4867C9.04372 25.3379 9.00009 25.1704 9 25V9C9 8.20435 9.31607 7.44129 9.87868 6.87868ZM14.9936 12.193C15.2563 12.3195 15.4943 12.5044 15.6939 12.737L15.9964 13.0856L16.2944 12.741C16.4952 12.5091 16.7343 12.3251 16.9979 12.1999C17.2615 12.0746 17.5442 12.0105 17.8297 12.0113C18.1152 12.0121 18.3976 12.0778 18.6607 12.2045C18.9237 12.3313 19.1621 12.5165 19.3618 12.7496C19.7692 13.2195 19.9984 13.8538 20 14.5153C20.0016 15.1768 19.7754 15.8125 19.3703 16.285L16.2479 19.8873C16.1179 20.0376 15.9069 20.0376 15.7769 19.8873L12.6385 16.2644C11.7905 15.2856 11.7865 13.7021 12.6305 12.7278C12.8311 12.4965 13.07 12.313 13.3333 12.188C13.5965 12.0631 13.8788 11.9992 14.1639 12C14.4489 12.0009 14.731 12.0664 14.9936 12.193Z" fill="#FFE4E4"/>
</svg>
