<svg width="32" height="32" viewBox="0 0 32 32" fill="none" xmlns="http://www.w3.org/2000/svg">
<rect width="32" height="32" rx="8" fill="#FEBAC7"/>
<path fill-rule="evenodd" clip-rule="evenodd" d="M12 6C11.2044 6 10.4413 6.31607 9.87868 6.87868C9.31607 7.44129 9 8.20435 9 9V25C9.00009 25.1704 9.04372 25.3379 9.12674 25.4867C9.20977 25.6355 9.32944 25.7606 9.47439 25.8502C9.61935 25.9398 9.78479 25.9908 9.95501 25.9985C10.1252 26.0061 10.2946 25.9702 10.447 25.894L16 23.118L21.553 25.894C21.7054 25.9702 21.8748 26.0061 22.045 25.9985C22.2152 25.9908 22.3806 25.9398 22.5256 25.8502C22.6706 25.7606 22.7902 25.6355 22.8733 25.4867C22.9563 25.3379 22.9999 25.1704 23 25V9C23 8.20435 22.6839 7.44129 22.1213 6.87868C21.5587 6.31607 20.7956 6 20 6H12Z" fill="#FFE4E4"/>
</svg>
