<svg width="32" height="32" viewBox="0 0 32 32" fill="none" xmlns="http://www.w3.org/2000/svg">
<rect width="32" height="32" rx="8" fill="#F6F5FA"/>
<path d="M8.20825 10.5H12.7916V19.6667H8.20825V10.5Z" fill="#A59DC3"/>
<path d="M7.2915 19.6667V10.7062C7.0045 10.8535 6.76141 11.0738 6.58678 11.345C6.41215 11.6162 6.31217 11.9286 6.29692 12.2508C5.9165 20.6979 5.68275 19.6667 7.2915 19.6667Z" fill="#A59DC3"/>
<path d="M14.7028 12.2508C14.6876 11.9286 14.5876 11.6162 14.413 11.345C14.2383 11.0738 13.9953 10.8535 13.7083 10.7062V19.6667C15.3628 19.6667 15.0833 20.4962 14.7028 12.2508Z" fill="#A59DC3"/>
<path d="M8.76742 9.58333H12.2324C12.3012 9.58472 12.3693 9.57063 12.4319 9.5421C12.4944 9.51357 12.5498 9.47133 12.5938 9.41851C12.6378 9.36569 12.6694 9.30365 12.6862 9.23697C12.7029 9.17029 12.7045 9.1007 12.6908 9.03333L12.4158 7.65833C12.3943 7.55325 12.3367 7.459 12.253 7.39201C12.1692 7.32501 12.0646 7.2895 11.9574 7.29167H9.04242C8.93519 7.2895 8.8306 7.32501 8.74686 7.39201C8.66311 7.459 8.60551 7.55325 8.58408 7.65833L8.30908 9.03333C8.29532 9.1007 8.29689 9.17029 8.31367 9.23697C8.33045 9.30365 8.36202 9.36569 8.40604 9.41851C8.45005 9.47133 8.50539 9.51357 8.56795 9.5421C8.6305 9.57063 8.69868 9.58472 8.76742 9.58333Z" fill="#A59DC3"/>
<path d="M19.2083 10.5H23.7916V19.6667H19.2083V10.5Z" fill="#A59DC3"/>
<path d="M18.2915 19.6667V10.7062C18.0045 10.8535 17.7614 11.0738 17.5868 11.345C17.4122 11.6162 17.3122 11.9286 17.2969 12.2508C16.9165 20.6979 16.6827 19.6667 18.2915 19.6667Z" fill="#A59DC3"/>
<path d="M25.7028 12.2508C25.6876 11.9286 25.5876 11.6162 25.413 11.345C25.2383 11.0738 24.9953 10.8535 24.7083 10.7062V19.6667C26.3628 19.6667 26.0833 20.4962 25.7028 12.2508Z" fill="#A59DC3"/>
<path d="M19.7674 9.58333H23.2324C23.3012 9.58472 23.3693 9.57063 23.4319 9.5421C23.4944 9.51357 23.5498 9.47133 23.5938 9.41851C23.6378 9.36569 23.6694 9.30365 23.6862 9.23697C23.7029 9.17029 23.7045 9.1007 23.6908 9.03333L23.4158 7.65833C23.3943 7.55325 23.3367 7.459 23.253 7.39201C23.1692 7.32501 23.0646 7.2895 22.9574 7.29167H20.0424C19.9352 7.2895 19.8306 7.32501 19.7469 7.39201C19.6631 7.459 19.6055 7.55325 19.5841 7.65833L19.3091 9.03333C19.2953 9.1007 19.2969 9.17029 19.3137 9.23697C19.3305 9.30365 19.362 9.36569 19.406 9.41851C19.4501 9.47133 19.5054 9.51357 19.5679 9.5421C19.6305 9.57063 19.6987 9.58472 19.7674 9.58333Z" fill="#A59DC3"/>
<path d="M26.0833 23.7917C25.5516 23.7917 25.7212 23.8604 25.7991 23.5579L26.2574 21.7246C26.2916 21.5893 26.2945 21.448 26.2658 21.3114C26.2371 21.1749 26.1776 21.0467 26.0918 20.9366C26.006 20.8265 25.8963 20.7375 25.7709 20.6763C25.6455 20.6151 25.5078 20.5833 25.3683 20.5833H17.6316C17.492 20.5833 17.3543 20.6151 17.2289 20.6763C17.1036 20.7375 16.9938 20.8265 16.908 20.9366C16.8223 21.0467 16.7628 21.1749 16.7341 21.3114C16.7054 21.448 16.7082 21.5893 16.7424 21.7246C17.2512 23.7504 17.2008 23.6313 17.3016 23.7917H14.6983C14.7991 23.6175 14.7808 23.6267 15.2574 21.7246C15.2916 21.5893 15.2945 21.448 15.2658 21.3114C15.2371 21.1749 15.1776 21.0467 15.0918 20.9366C15.006 20.8265 14.8963 20.7375 14.7709 20.6763C14.6455 20.6151 14.5078 20.5833 14.3683 20.5833H6.63159C6.49205 20.5833 6.35434 20.6151 6.22895 20.6763C6.10356 20.7375 5.9938 20.8265 5.90804 20.9366C5.82229 21.0467 5.76279 21.1749 5.73408 21.3114C5.70538 21.448 5.70823 21.5893 5.74242 21.7246C6.25117 23.7504 6.20075 23.6313 6.30159 23.7917H5.91659C5.79503 23.7917 5.67845 23.84 5.59249 23.9259C5.50654 24.0119 5.45825 24.1284 5.45825 24.25C5.45825 24.3716 5.50654 24.4881 5.59249 24.5741C5.67845 24.66 5.79503 24.7083 5.91659 24.7083H26.0833C26.2048 24.7083 26.3214 24.66 26.4073 24.5741C26.4933 24.4881 26.5416 24.3716 26.5416 24.25C26.5416 24.1284 26.4933 24.0119 26.4073 23.9259C26.3214 23.84 26.2048 23.7917 26.0833 23.7917Z" fill="#A59DC3"/>
</svg>
