<svg width="32" height="32" viewBox="0 0 32 32" fill="none" xmlns="http://www.w3.org/2000/svg">
<rect width="32" height="32" rx="8" fill="#F7F8F9"/>
<path d="M23.7509 8.24912L26.0554 8.70975C26.1791 8.7345 26.2809 8.82525 26.3166 8.94762C26.3347 9.00707 26.3363 9.0703 26.3213 9.13058C26.3063 9.19087 26.2752 9.24596 26.2314 9.29L24.3435 11.1792C24.1173 11.4042 23.8114 11.5307 23.4924 11.5312H21.9263L17.9937 15.4651C18.0688 15.7484 18.0826 16.0444 18.0342 16.3335C17.9859 16.6225 17.8765 16.8979 17.7134 17.1413C17.5502 17.3848 17.3371 17.5907 17.0881 17.7453C16.8392 17.8999 16.5602 17.9996 16.2696 18.038C15.9791 18.0763 15.6837 18.0522 15.4032 17.9674C15.1227 17.8826 14.8635 17.7391 14.6428 17.5462C14.4222 17.3534 14.2451 17.1158 14.1235 16.8491C14.0019 16.5825 13.9385 16.293 13.9375 16C13.9374 15.6835 14.0102 15.3712 14.1502 15.0874C14.2901 14.8035 14.4936 14.5557 14.7447 14.3631C14.9958 14.1704 15.2879 14.0382 15.5983 13.9766C15.9088 13.9149 16.2292 13.9255 16.5349 14.0076L20.4688 10.0724V8.509C20.4688 8.19 20.5952 7.88337 20.8207 7.65787L22.71 5.76862C22.754 5.7248 22.8091 5.69373 22.8694 5.67872C22.9297 5.66371 22.9929 5.66532 23.0524 5.68337C23.1747 5.71912 23.2655 5.82087 23.2902 5.94462L23.7509 8.24912Z" fill="#A59DC3"/>
<path d="M7.74995 16C7.75137 17.1797 8.00576 18.3454 8.49599 19.4184C8.98621 20.4914 9.70085 21.4468 10.5917 22.2202C11.4826 22.9935 12.5289 23.5668 13.6602 23.9014C14.7914 24.2359 15.9813 24.324 17.1495 24.1596C18.3177 23.9953 19.437 23.5823 20.432 22.9485C21.427 22.3148 22.2745 21.475 22.9174 20.4858C23.5603 19.4967 23.9835 18.3812 24.1586 17.2145C24.3337 16.0479 24.2565 14.8573 23.9323 13.723C23.8868 13.5905 23.8687 13.4501 23.8792 13.3104C23.8897 13.1706 23.9285 13.0345 23.9933 12.9103C24.058 12.786 24.1474 12.6762 24.256 12.5876C24.3645 12.499 24.4899 12.4334 24.6246 12.3949C24.7593 12.3563 24.9005 12.3455 25.0395 12.3632C25.1785 12.3809 25.3124 12.4267 25.4331 12.4979C25.5538 12.569 25.6588 12.6639 25.7417 12.7769C25.8245 12.8899 25.8835 13.0186 25.9151 13.1551C26.5428 15.3517 26.4236 17.6946 25.5761 19.8161C24.7286 21.9376 23.2008 23.7178 21.2324 24.8773C19.264 26.0368 16.9664 26.5101 14.7 26.2228C12.4336 25.9356 10.3266 24.9041 8.7097 23.2902C7.09455 21.6737 6.06197 19.5666 5.77408 17.2997C5.4862 15.0327 5.95931 12.7344 7.11914 10.7655C8.27896 8.79655 10.0598 7.26856 12.1821 6.42139C14.3044 5.57423 16.648 5.45586 18.8448 6.08487C19.1064 6.16134 19.3271 6.33824 19.4586 6.57692C19.5902 6.8156 19.6219 7.09665 19.5469 7.35864C19.4718 7.62064 19.2961 7.84228 19.0582 7.97513C18.8202 8.10798 18.5394 8.14123 18.277 8.06762C17.0485 7.71487 15.7549 7.65236 14.4981 7.88503C13.2414 8.11769 12.0559 8.63918 11.0351 9.40834C10.0143 10.1775 9.18625 11.1733 8.61615 12.3172C8.04604 13.4612 7.74952 14.7219 7.74995 16Z" fill="#A59DC3"/>
<path d="M11.8749 16C11.875 16.7516 12.0803 17.4888 12.4686 18.1323C12.8569 18.7758 13.4136 19.301 14.0785 19.6514C14.7434 20.0017 15.4913 20.1639 16.2416 20.1204C16.9919 20.0769 17.7161 19.8293 18.3361 19.4045C18.9559 18.9786 19.4475 18.3913 19.7577 17.7062C20.0679 17.0211 20.1849 16.2642 20.0961 15.5174C20.072 15.3362 20.0967 15.1518 20.1676 14.9833C20.2385 14.8148 20.353 14.6682 20.4994 14.5587C20.6458 14.4492 20.8187 14.3806 21.0003 14.3601C21.182 14.3397 21.3658 14.368 21.5329 14.4421C21.7 14.5153 21.8446 14.6315 21.9521 14.7789C22.0596 14.9262 22.1261 15.0994 22.1448 15.2809C22.2942 16.557 22.0426 17.848 21.425 18.9747C20.8074 20.1014 19.8543 21.0078 18.6981 21.5682C17.542 22.1287 16.24 22.3153 14.9729 22.1021C13.7059 21.889 12.5366 21.2867 11.6274 20.3789C10.7182 19.4711 10.1141 18.3027 9.89905 17.036C9.68401 15.7692 9.86863 14.467 10.4273 13.3099C10.986 12.1529 11.891 11.1985 13.0167 10.5792C14.1424 9.95981 15.4331 9.70628 16.7094 9.85375C16.8461 9.86643 16.9789 9.90626 17.0999 9.97092C17.221 10.0356 17.328 10.1237 17.4145 10.2303C17.5011 10.3368 17.5655 10.4595 17.604 10.5913C17.6425 10.723 17.6543 10.8611 17.6388 10.9975C17.6232 11.1339 17.5806 11.2658 17.5134 11.3854C17.4462 11.5051 17.3558 11.6102 17.2474 11.6945C17.1391 11.7788 17.0151 11.8406 16.8825 11.8763C16.75 11.912 16.6117 11.9209 16.4757 11.9025C15.8977 11.8354 15.3121 11.8913 14.7573 12.0666C14.2024 12.2419 13.691 12.5326 13.2565 12.9196C12.8219 13.3065 12.4742 13.7811 12.2361 14.312C11.998 14.8429 11.8749 15.4181 11.8749 16Z" fill="#A59DC3"/>
</svg>
