<svg width="32" height="32" viewBox="0 0 32 32" fill="none" xmlns="http://www.w3.org/2000/svg">
<rect width="32" height="32" rx="8" fill="white"/>
<g clip-path="url(#clip0_820_26551)">
<path d="M20.9986 13.8055C21.6565 13.8055 22.165 13.985 22.5538 14.3439C22.9426 14.7028 23.1221 15.1813 23.1221 15.7795V18.6507H22.2846V17.9928H22.2547C21.8958 18.5312 21.3874 18.8004 20.7892 18.8004C20.2807 18.8004 19.8321 18.6508 19.4732 18.3517C19.1442 18.0526 18.9348 17.6339 18.9348 17.1853C18.9348 16.7068 19.1143 16.3179 19.4732 16.0188C19.8321 15.7197 20.3405 15.6001 20.9387 15.6001C21.4771 15.6001 21.8958 15.6899 22.2248 15.8992V15.6899C22.2248 15.4107 22.1206 15.1316 21.9121 14.9497L21.8659 14.9122C21.6266 14.7028 21.3275 14.5832 20.9986 14.5832C20.4901 14.5832 20.1013 14.7926 19.8321 15.2113L19.0545 14.7327C19.533 14.1046 20.1611 13.8055 20.9986 13.8055ZM16.7814 11.7717C17.3181 11.7717 17.8281 11.9585 18.2358 12.3067L18.3068 12.3698C18.7255 12.7288 18.9348 13.2671 18.9348 13.8354C18.9348 14.4037 18.7255 14.9121 18.3068 15.3009C17.888 15.6898 17.3796 15.8991 16.7814 15.8991L15.3458 15.8692V18.6507H14.4485V11.7717H16.7814ZM21.1181 16.3179C20.7593 16.3179 20.4602 16.4076 20.2209 16.587C19.9816 16.7366 19.862 16.9459 19.862 17.2151C19.862 17.4544 19.9817 17.6637 20.1611 17.7834C20.3705 17.9329 20.6097 18.0226 20.849 18.0226C21.184 18.0226 21.5189 17.8924 21.781 17.6561L21.836 17.6039C22.1351 17.3348 22.2846 17.0057 22.2846 16.6468C22.0155 16.4375 21.6266 16.3178 21.1182 16.3178M16.8413 12.6091H15.3458V15.0019H16.8413C17.1702 15.0019 17.4993 14.8823 17.7086 14.643C18.1871 14.1944 18.1871 13.4467 17.7386 12.998L17.7086 12.9681C17.4693 12.7288 17.1702 12.5793 16.8412 12.6092M27.9673 13.9551L25.0063 20.7444H24.1091L25.2157 18.3816L23.2716 13.985H24.2287L25.6344 17.3647H25.6643L27.0401 13.985H27.9673V13.9551Z" fill="#5F6368"/>
<path d="M11.7866 15.2711C11.7866 15.0019 11.7567 14.7327 11.7268 14.4636H7.98828V15.9889H10.1118C10.0221 16.4674 9.75289 16.9161 9.33418 17.1853V18.1722H10.6202C11.368 17.4844 11.7867 16.4674 11.7867 15.2711" fill="#4285F4"/>
<path d="M7.98821 19.1293C9.06489 19.1293 9.96216 18.7704 10.6202 18.1722L9.33411 17.1853C8.97518 17.4245 8.52655 17.5741 7.98821 17.5741C6.97127 17.5741 6.07401 16.8862 5.77492 15.9291H4.45898V16.946C5.14687 18.2919 6.49277 19.1293 7.98821 19.1293Z" fill="#34A853"/>
<path d="M5.77488 15.9291C5.59546 15.4505 5.59546 14.9122 5.77488 14.4037V13.3868H4.45894C3.89064 14.4935 3.89064 15.8094 4.45894 16.946L5.77488 15.9291Z" fill="#FBBC04"/>
<path d="M7.98812 12.7886C8.55638 12.7886 9.09472 12.998 9.51348 13.3868L10.65 12.2503C9.93215 11.5923 8.9751 11.2035 8.01799 11.2334C6.52255 11.2334 5.14678 12.0708 4.48877 13.4167L5.80475 14.4336C6.07392 13.4765 6.97118 12.7886 7.98812 12.7886Z" fill="#EA4335"/>
</g>
<defs>
<clipPath id="clip0_820_26551">
<rect width="24" height="9.53642" fill="white" transform="translate(4 11.2318)"/>
</clipPath>
</defs>
</svg>
