<svg width="32" height="32" viewBox="0 0 32 32" fill="none" xmlns="http://www.w3.org/2000/svg">
<rect width="32" height="32" rx="8" fill="white"/>
<path d="M25.1306 16.1613C25.1306 15.412 25.0684 14.8652 24.9338 14.2982H16.1809V17.6801H21.3187C21.2151 18.5205 20.6558 19.7862 19.4127 20.6367L19.3953 20.7499L22.1628 22.8456L22.3546 22.8643C24.1155 21.2746 25.1306 18.9356 25.1306 16.1613Z" fill="#4285F4"/>
<path d="M16.1808 25.0717C18.6979 25.0717 20.811 24.2616 22.3544 22.8643L19.4126 20.6367C18.6254 21.1733 17.5688 21.548 16.1808 21.548C13.7155 21.548 11.6231 19.9583 10.8772 17.7611L10.7679 17.7702L7.89017 19.9472L7.85254 20.0494C9.38558 23.0263 12.5346 25.0717 16.1808 25.0717Z" fill="#34A853"/>
<path d="M10.8772 17.7611C10.6804 17.1941 10.5665 16.5865 10.5665 15.9588C10.5665 15.331 10.6804 14.7235 10.8669 14.1564L10.8616 14.0357L7.94788 11.8237L7.85255 11.8681C7.22071 13.1034 6.85815 14.4906 6.85815 15.9588C6.85815 17.427 7.22071 18.8141 7.85255 20.0494L10.8772 17.7611Z" fill="#FBBC05"/>
<path d="M16.1808 10.3695C17.9313 10.3695 19.1122 11.1087 19.7855 11.7264L22.4166 9.21525C20.8007 7.74707 18.6979 6.8459 16.1808 6.8459C12.5346 6.8459 9.38558 8.89122 7.85254 11.8681L10.8668 14.1565C11.6231 11.9592 13.7155 10.3695 16.1808 10.3695Z" fill="#EB4335"/>
</svg>
