<svg width="32" height="32" viewBox="0 0 32 32" fill="none" xmlns="http://www.w3.org/2000/svg">
<rect width="32" height="32" rx="8" fill="white"/>
<path d="M6 9.75C6 8.37109 7.12109 7.25 8.5 7.25H23.5C24.8789 7.25 26 8.37109 26 9.75V22.25C26 23.6289 24.8789 24.75 23.5 24.75H8.5C7.12109 24.75 6 23.6289 6 22.25V9.75ZM18.6484 13.9102C18.4727 13.6523 18.1836 13.5 17.875 13.5C17.5664 13.5 17.2734 13.6523 17.1016 13.9102L13.7031 18.8945L12.668 17.6016C12.4883 17.3789 12.2188 17.25 11.9375 17.25C11.6562 17.25 11.3828 17.3789 11.207 17.6016L8.70703 20.7266C8.48047 21.0078 8.4375 21.3945 8.59375 21.7188C8.75 22.043 9.07812 22.25 9.4375 22.25H22.5625C22.9102 22.25 23.2305 22.0586 23.3906 21.75C23.5508 21.4414 23.5312 21.0703 23.3359 20.7852L18.6484 13.9102ZM10.375 13.5C10.8723 13.5 11.3492 13.3025 11.7008 12.9508C12.0525 12.5992 12.25 12.1223 12.25 11.625C12.25 11.1277 12.0525 10.6508 11.7008 10.2992C11.3492 9.94754 10.8723 9.75 10.375 9.75C9.87772 9.75 9.40081 9.94754 9.04917 10.2992C8.69754 10.6508 8.5 11.1277 8.5 11.625C8.5 12.1223 8.69754 12.5992 9.04917 12.9508C9.40081 13.3025 9.87772 13.5 10.375 13.5Z" fill="#3E4958"/>
</svg>
