<svg width="32" height="32" viewBox="0 0 32 32" fill="none" xmlns="http://www.w3.org/2000/svg">
<rect width="32" height="32" rx="8" fill="#EAF6FF"/>
<g clip-path="url(#clip0_818_7577)">
<path d="M16 26C21.523 26 26 21.523 26 16C26 10.477 21.523 6 16 6C10.477 6 6 10.477 6 16C6 21.523 10.477 26 16 26ZM16 13C15.7348 13 15.4804 12.8946 15.2929 12.7071C15.1054 12.5196 15 12.2652 15 12C15 11.7348 15.1054 11.4804 15.2929 11.2929C15.4804 11.1054 15.7348 11 16 11C16.2652 11 16.5196 11.1054 16.7071 11.2929C16.8946 11.4804 17 11.7348 17 12C17 12.2652 16.8946 12.5196 16.7071 12.7071C16.5196 12.8946 16.2652 13 16 13ZM16 22C15.7551 22 15.5187 21.91 15.3356 21.7473C15.1526 21.5845 15.0357 21.3603 15.007 21.117L15 21V15C15.0003 14.7451 15.0979 14.5 15.2728 14.3146C15.4478 14.1293 15.687 14.0178 15.9414 14.0028C16.1958 13.9879 16.4464 14.0707 16.6418 14.2343C16.8373 14.3979 16.9629 14.6299 16.993 14.883L17 15V21C17 21.2652 16.8946 21.5196 16.7071 21.7071C16.5196 21.8946 16.2652 22 16 22Z" fill="#A6CDEA"/>
</g>
<defs>
<clipPath id="clip0_818_7577">
<rect width="24" height="24" fill="white" transform="translate(4 4)"/>
</clipPath>
</defs>
</svg>
