<svg width="32" height="32" viewBox="0 0 32 32" fill="none" xmlns="http://www.w3.org/2000/svg">
<rect width="32" height="32" rx="8" fill="#F6F5FA"/>
<g clip-path="url(#clip0_1958_19098)">
<path d="M24.9375 9.8125H7.0625C5.92512 9.8125 5 10.7376 5 11.875V20.125C5 21.2624 5.92512 22.1875 7.0625 22.1875H24.9375C26.0749 22.1875 27 21.2624 27 20.125V11.875C27 10.7376 26.0749 9.8125 24.9375 9.8125ZM7.46555 13.1855C7.31129 12.8384 7.4677 12.4323 7.81445 12.278C8.16121 12.1238 8.5677 12.2802 8.72195 12.627L9.46875 14.3075L10.2155 12.627C10.3698 12.2802 10.7763 12.1238 11.123 12.278C11.4698 12.4323 11.6262 12.8384 11.472 13.1855L10.2211 16L11.472 18.8145C11.6751 19.2717 11.3372 19.7812 10.8442 19.7812C10.5808 19.7812 10.3294 19.6291 10.2155 19.373L9.46875 17.693L8.72195 19.373C8.60809 19.6291 8.35672 19.7812 8.09332 19.7812C7.60064 19.7812 7.2623 19.2719 7.46555 18.8145L8.71637 16L7.46555 13.1855ZM16 16.6875H15.6562C15.2764 16.6875 14.9688 16.3798 14.9688 16C14.9688 15.6202 15.2764 15.3125 15.6562 15.3125H16C16.1895 15.3125 16.3438 15.1582 16.3438 14.9688V13.9375C16.3438 13.748 16.1895 13.5938 16 13.5938H14.625C14.2452 13.5938 13.9375 13.2861 13.9375 12.9062C13.9375 12.5264 14.2452 12.2188 14.625 12.2188H16C16.9479 12.2188 17.7188 12.9896 17.7188 13.9375C17.7188 14.94 17.801 15.4335 17.3741 16C17.5907 16.2875 17.7188 16.6445 17.7188 17.0312V18.0625C17.7188 19.0104 16.9479 19.7812 16 19.7812H14.625C14.2452 19.7812 13.9375 19.4736 13.9375 19.0938C13.9375 18.7139 14.2452 18.4062 14.625 18.4062H16C16.1895 18.4062 16.3438 18.252 16.3438 18.0625V17.0312C16.3438 16.8418 16.1895 16.6875 16 16.6875ZM13.25 16.6875H12.2188C11.8389 16.6875 11.5312 16.3798 11.5312 16C11.5312 15.6202 11.8389 15.3125 12.2188 15.3125H13.25C13.6298 15.3125 13.9375 15.6202 13.9375 16C13.9375 16.3798 13.6298 16.6875 13.25 16.6875ZM21.8438 18.4062C22.2236 18.4062 22.5312 18.7139 22.5312 19.0938C22.5312 19.4736 22.2236 19.7812 21.8438 19.7812H19.0938C18.5461 19.7812 18.2168 19.1688 18.5218 18.7122L20.6999 15.4453C20.9986 14.9975 21.1562 14.4759 21.1562 13.9375C21.1562 13.748 21.002 13.5938 20.8125 13.5938H20.125C19.9355 13.5938 19.7812 13.748 19.7812 13.9375C19.7812 14.3173 19.4736 14.625 19.0938 14.625C18.7139 14.625 18.4062 14.3173 18.4062 13.9375C18.4062 12.9896 19.1771 12.2188 20.125 12.2188H20.8125C21.7604 12.2188 22.5312 12.9896 22.5312 13.9375C22.5312 14.7483 22.2936 15.5334 21.8438 16.208L20.3785 18.4062H21.8438ZM24.5938 19.0938C24.5938 19.4736 24.2861 19.7812 23.9062 19.7812C23.5264 19.7812 23.2188 19.4736 23.2188 19.0938V12.9062C23.2188 12.5264 23.5264 12.2188 23.9062 12.2188C24.2861 12.2188 24.5938 12.5264 24.5938 12.9062V19.0938Z" fill="#A59DC3"/>
</g>
<defs>
<clipPath id="clip0_1958_19098">
<rect width="22" height="22" fill="white" transform="translate(5 5)"/>
</clipPath>
</defs>
</svg>
