<svg width="32" height="32" viewBox="0 0 32 32" fill="none" xmlns="http://www.w3.org/2000/svg">
<rect width="32" height="32" rx="8" fill="#F7F8F9"/>
<path d="M26 16C26 17.8825 25.4686 19.7268 24.467 21.3208C23.4653 22.9147 22.0341 24.1935 20.3379 25.0101C18.6417 25.8268 16.7495 26.148 14.8788 25.9369C13.0081 25.7259 11.2351 24.9911 9.76348 23.817C8.2919 22.643 7.18161 21.0774 6.56031 19.3003C5.93901 17.5233 5.83194 15.6069 6.25142 13.7717C6.67089 11.9365 7.59987 10.257 8.93151 8.92636C10.2631 7.59569 11.9433 6.66793 13.7788 6.2498L14.3682 8.83679C13.0197 9.14399 11.7853 9.82559 10.807 10.8032C9.82866 11.7808 9.14616 13.0147 8.83798 14.363C8.52981 15.7112 8.60847 17.1191 9.06492 18.4247C9.52137 19.7302 10.3371 20.8804 11.4182 21.7429C12.4993 22.6055 13.802 23.1453 15.1763 23.3004C16.5506 23.4555 17.9408 23.2195 19.1869 22.6195C20.4331 22.0196 21.4846 21.08 22.2204 19.909C22.9563 18.738 23.3467 17.383 23.3467 16H26Z" fill="#A59DC3"/>
</svg>
