<svg width="32" height="32" viewBox="0 0 32 32" fill="none" xmlns="http://www.w3.org/2000/svg">
<rect y="-0.00183105" width="32" height="32" rx="8" fill="#F6F5FA"/>
<path d="M16 5.99817C18.2543 5.99817 20.4163 6.86538 22.0104 8.40901C23.6045 9.95265 24.5 12.0463 24.5 14.2293C24.5 17.7075 21.9762 21.498 16.9938 25.6414C16.7168 25.8719 16.3636 25.9985 15.9984 25.9982C15.6331 25.9979 15.2802 25.8707 15.0035 25.6398L14.674 25.3629C9.91226 21.3275 7.5 17.6298 7.5 14.2293C7.5 12.0463 8.39553 9.95265 9.98959 8.40901C11.5837 6.86538 13.7457 5.99817 16 5.99817ZM16 11.0635C15.1329 11.0635 14.3014 11.397 13.6883 11.9907C13.0752 12.5844 12.7308 13.3897 12.7308 14.2293C12.7308 15.0689 13.0752 15.8742 13.6883 16.4679C14.3014 17.0616 15.1329 17.3951 16 17.3951C16.8671 17.3951 17.6986 17.0616 18.3117 16.4679C18.9248 15.8742 19.2692 15.0689 19.2692 14.2293C19.2692 13.3897 18.9248 12.5844 18.3117 11.9907C17.6986 11.397 16.8671 11.0635 16 11.0635Z" fill="#A59DC3"/>
</svg>
