<svg width="32" height="32" viewBox="0 0 32 32" fill="none" xmlns="http://www.w3.org/2000/svg">
<rect width="32" height="31.9982" rx="8" fill="#F7F8F9"/>
<path fill-rule="evenodd" clip-rule="evenodd" d="M9 12.9982C9.00034 11.6565 9.38627 10.3432 10.1118 9.2146C10.8374 8.08601 11.872 7.18971 13.0924 6.63242C14.3129 6.07513 15.6678 5.88033 16.9959 6.07121C18.3239 6.26209 19.5691 6.83062 20.5833 7.70909C21.5974 8.58756 22.3377 9.73897 22.716 11.0262C23.0943 12.3135 23.0947 13.6823 22.7171 14.9698C22.3396 16.2573 21.6 17.4091 20.5864 18.2882C19.5728 19.1673 18.3279 19.7365 17 19.9282V24.9982C17 25.2634 16.8946 25.5178 16.7071 25.7053C16.5196 25.8929 16.2652 25.9982 16 25.9982C15.7348 25.9982 15.4804 25.8929 15.2929 25.7053C15.1054 25.5178 15 25.2634 15 24.9982V19.9282C13.3338 19.6875 11.8101 18.8544 10.7082 17.5817C9.6062 16.3089 8.99978 14.6817 9 12.9982ZM14.94 11.9382C15.221 11.6568 15.6023 11.4986 16 11.4982C16.2652 11.4982 16.5196 11.3929 16.7071 11.2053C16.8946 11.0178 17 10.7634 17 10.4982C17 10.233 16.8946 9.97864 16.7071 9.7911C16.5196 9.60356 16.2652 9.49821 16 9.49821C15.0717 9.49821 14.1815 9.86696 13.5251 10.5233C12.8687 11.1797 12.5 12.07 12.5 12.9982C12.5 13.2634 12.6054 13.5178 12.7929 13.7053C12.9804 13.8929 13.2348 13.9982 13.5 13.9982C13.7652 13.9982 14.0196 13.8929 14.2071 13.7053C14.3946 13.5178 14.5 13.2634 14.5 12.9982C14.5 12.6002 14.658 12.2182 14.94 11.9382Z" fill="#EA4335"/>
</svg>
