<svg width="32" height="32" viewBox="0 0 32 32" fill="none" xmlns="http://www.w3.org/2000/svg">
<rect width="32" height="32" rx="8" fill="#F6F5FA"/>
<g clip-path="url(#clip0_817_13200)">
<path d="M21.5081 22.5C21.2428 22.5 20.9885 22.6053 20.801 22.7929C20.6134 22.9804 20.5081 23.2348 20.5081 23.5V24C20.5081 24.1326 20.4554 24.2598 20.3616 24.3535C20.2678 24.4473 20.1407 24.5 20.0081 24.5H14.5081C14.3754 24.5 14.2483 24.4473 14.1545 24.3535C14.0607 24.2598 14.0081 24.1326 14.0081 24V7.99999C14.0081 7.86738 14.0607 7.7402 14.1545 7.64643C14.2483 7.55266 14.3754 7.49999 14.5081 7.49999H20.0081C20.1407 7.49999 20.2678 7.55266 20.3616 7.64643C20.4554 7.7402 20.5081 7.86738 20.5081 7.99999V8.99999C20.5081 9.2652 20.6134 9.51956 20.801 9.70709C20.9885 9.89463 21.2428 9.99999 21.5081 9.99999C21.7733 9.99999 22.0276 9.89463 22.2152 9.70709C22.4027 9.51956 22.5081 9.2652 22.5081 8.99999V6.49999C22.5081 6.23477 22.4027 5.98042 22.2152 5.79288C22.0276 5.60534 21.7733 5.49999 21.5081 5.49999H14.0081V4.49999C14.008 4.42517 13.9912 4.35131 13.9588 4.28386C13.9265 4.21641 13.8794 4.15708 13.821 4.11025C13.7627 4.06342 13.6946 4.03028 13.6217 4.01327C13.5489 3.99627 13.4731 3.99583 13.4001 4.01199L4.40006 6.01199C4.28893 6.03657 4.18952 6.09833 4.11825 6.18706C4.04697 6.27579 4.0081 6.38618 4.00806 6.49999V25.5C4.00787 25.614 4.04664 25.7246 4.11793 25.8135C4.18923 25.9025 4.28877 25.9644 4.40006 25.989L13.4001 27.989C13.4733 28.0045 13.549 28.0036 13.6218 27.9863C13.6946 27.969 13.7626 27.9357 13.8211 27.889C13.8794 27.8421 13.9265 27.7828 13.9589 27.7153C13.9913 27.6478 14.0081 27.5738 14.0081 27.499V26.499H21.5081C21.7733 26.499 22.0276 26.3936 22.2152 26.2061C22.4027 26.0186 22.5081 25.7642 22.5081 25.499V23.499C22.5078 23.2339 22.4023 22.9798 22.2148 22.7925C22.0273 22.6052 21.7731 22.5 21.5081 22.5ZM11.5081 16.5C11.5081 16.7967 11.4201 17.0867 11.2553 17.3333C11.0904 17.58 10.8562 17.7723 10.5821 17.8858C10.308 17.9993 10.0064 18.029 9.71542 17.9712C9.42445 17.9133 9.15718 17.7704 8.9474 17.5606C8.73762 17.3509 8.59476 17.0836 8.53688 16.7926C8.479 16.5017 8.50871 16.2001 8.62224 15.926C8.73577 15.6519 8.92803 15.4176 9.1747 15.2528C9.42138 15.088 9.71139 15 10.0081 15C10.4059 15 10.7874 15.158 11.0687 15.4393C11.35 15.7206 11.5081 16.1022 11.5081 16.5Z" fill="#CCC8D9"/>
<path d="M27.5459 15.668L22.6709 12.418C22.5204 12.3178 22.3454 12.2603 22.1647 12.2516C21.984 12.243 21.8044 12.2835 21.6449 12.3689C21.4855 12.4543 21.3522 12.5813 21.2592 12.7365C21.1662 12.8916 21.117 13.0691 21.1169 13.25V15H16.9919C16.5941 15 16.2126 15.158 15.9313 15.4393C15.65 15.7206 15.4919 16.1021 15.4919 16.5C15.4919 16.8978 15.65 17.2793 15.9313 17.5606C16.2126 17.8419 16.5941 18 16.9919 18H21.1169V19.75C21.117 19.9309 21.1662 20.1083 21.2592 20.2635C21.3522 20.4186 21.4855 20.5457 21.6449 20.6311C21.8044 20.7164 21.984 20.757 22.1647 20.7483C22.3454 20.7397 22.5204 20.6822 22.6709 20.582L27.5459 17.332C27.6829 17.2406 27.7952 17.1169 27.8729 16.9718C27.9505 16.8267 27.9912 16.6646 27.9912 16.5C27.9912 16.3354 27.9505 16.1733 27.8729 16.0282C27.7952 15.883 27.6829 15.7593 27.5459 15.668Z" fill="#CCC8D9"/>
</g>
<defs>
<clipPath id="clip0_817_13200">
<rect width="24" height="24" fill="white" transform="translate(4 4)"/>
</clipPath>
</defs>
</svg>
