<svg width="32" height="32" viewBox="0 0 32 32" fill="none" xmlns="http://www.w3.org/2000/svg">
<rect width="32" height="32" rx="8" fill="#DBF9DB"/>
<path d="M26.909 22.5961H5.09092C4.49092 22.5961 4 22.1461 4 21.5961V10.5961C4 10.0461 4.49092 9.5961 5.09092 9.5961H26.9091C27.5091 9.5961 28 10.0461 28 10.5961V21.5961C28 22.1461 27.509 22.5961 26.909 22.5961Z" fill="#0E9347"/>
<path d="M24.1817 13.9961C22.9272 13.9961 21.7817 14.5461 21.1272 15.4461C20.5817 15.1961 19.9817 14.9961 19.2727 14.9961C17.3636 14.9961 15.7818 16.2961 15.509 17.9961H26.909C27.4544 17.9961 27.8908 17.6461 27.9999 17.1461C27.7817 15.3961 26.1454 13.9961 24.1817 13.9961Z" fill="#0D8944"/>
<path d="M24.5953 21.1517H7.19525C7.19525 20.1406 6.21652 19.3133 5.02026 19.3133V12.8789C6.21652 12.8789 7.19525 12.0517 7.19525 11.0406H24.5953C24.5953 12.0517 25.574 12.8789 26.7703 12.8789V19.3133C25.574 19.3133 24.5953 20.1406 24.5953 21.1517Z" fill="#3BB54A"/>
<path d="M16.2703 20.4294C18.7555 20.4294 20.7703 18.4893 20.7703 16.0961C20.7703 13.7029 18.7555 11.7628 16.2703 11.7628C13.785 11.7628 11.7703 13.7029 11.7703 16.0961C11.7703 18.4893 13.785 20.4294 16.2703 20.4294Z" fill="#0E9347"/>
<path d="M9.45469 17.0877C10.0572 17.0877 10.5456 16.64 10.5456 16.0877C10.5456 15.5354 10.0572 15.0877 9.45469 15.0877C8.85219 15.0877 8.36377 15.5354 8.36377 16.0877C8.36377 16.64 8.85219 17.0877 9.45469 17.0877Z" fill="#0E9347"/>
<path d="M23.2953 17.0877C23.8978 17.0877 24.3862 16.64 24.3862 16.0877C24.3862 15.5354 23.8978 15.0877 23.2953 15.0877C22.6928 15.0877 22.2043 15.5354 22.2043 16.0877C22.2043 16.64 22.6928 17.0877 23.2953 17.0877Z" fill="#0E9347"/>
<path d="M16.8328 15.6146H15.7077C15.3702 15.6146 15.1452 15.422 15.1452 15.1331C15.1452 14.8442 15.3703 14.6516 15.7077 14.6516H17.3952C17.7328 14.6516 17.9577 14.459 17.9577 14.1702C17.9577 13.8813 17.7327 13.6887 17.3952 13.6887H16.8328C16.8328 13.3998 16.6077 13.2072 16.2703 13.2072C15.9328 13.2072 15.7078 13.3998 15.7078 13.6887C14.7515 13.6887 14.0203 14.3146 14.0203 15.1332C14.0203 15.9517 14.7515 16.5776 15.7078 16.5776H16.8328C17.1703 16.5776 17.3953 16.7702 17.3953 17.0591C17.3953 17.348 17.1703 17.5406 16.8328 17.5406H15.1453C14.8078 17.5406 14.5828 17.7332 14.5828 18.022C14.5828 18.3109 14.8078 18.5035 15.1453 18.5035H15.7078C15.7078 18.7924 15.9328 18.985 16.2703 18.985C16.6078 18.985 16.8328 18.7924 16.8328 18.5035C17.789 18.5035 18.5203 17.8776 18.5203 17.0591C18.5203 16.2405 17.789 15.6146 16.8328 15.6146Z" fill="#3BB54A"/>
<path d="M24 8.5L9 23.5" stroke="#D0F6D5" stroke-width="2" stroke-linecap="round"/>
</svg>
