<svg width="32" height="32" viewBox="0 0 32 32" fill="none" xmlns="http://www.w3.org/2000/svg">
<rect width="32" height="32" rx="8" fill="#FFE4E4"/>
<g clip-path="url(#clip0_817_13121)">
<path d="M14.9848 28C16.7959 28 18.3109 26.7089 18.6588 25H11.3108C11.6589 26.7089 13.1739 28 14.9848 28Z" fill="#FEBAC7"/>
<path d="M21.997 15.9991C21.9929 15.9991 21.9889 16 21.9849 16C18.1259 16 14.9849 12.8599 14.9849 9.00006C14.9849 7.93896 15.229 6.93591 15.654 6.03394C15.4339 6.01306 15.2109 6.00006 14.9849 6.00006C11.119 6.00006 7.985 9.13391 7.985 13V15.788C7.985 17.767 7.11799 19.635 5.59694 20.921C5.08992 21.354 4.86488 22.0439 5.04689 22.717C5.25892 23.5 6.03291 24.0001 6.84498 24.0001H23.1199C23.9719 24.0001 24.775 23.448 24.9479 22.613C25.0819 21.967 24.8519 21.322 24.351 20.901C22.8969 19.6821 22.0559 17.8909 21.997 15.9991Z" fill="#FEBAC7"/>
<path d="M26.9848 9.00006C26.9848 11.7615 24.7463 13.9999 21.9847 13.9999C19.2233 13.9999 16.9849 11.7615 16.9849 9.00006C16.9849 6.23865 19.2233 4 21.9847 4C24.7463 4 26.9848 6.23865 26.9848 9.00006Z" fill="#FEBAC7"/>
</g>
<defs>
<clipPath id="clip0_817_13121">
<rect width="24" height="24" fill="white" transform="translate(4 4)"/>
</clipPath>
</defs>
</svg>
