<svg width="32" height="32" viewBox="0 0 32 32" fill="none" xmlns="http://www.w3.org/2000/svg">
<rect width="32" height="32" rx="8" fill="#F7F8F9"/>
<g clip-path="url(#clip0_1044_23205)">
<path d="M15.9799 14.1483H17.3457L17.0139 15.6022H15.6242L15.9799 14.1483ZM8.66675 9.12501C8.66675 8.51722 8.90819 7.93433 9.33796 7.50456C9.76773 7.07479 10.3506 6.83334 10.9584 6.83334H21.5001C21.801 6.83334 22.099 6.89262 22.3771 7.00779C22.6551 7.12295 22.9077 7.29176 23.1205 7.50456C23.3333 7.71736 23.5021 7.96999 23.6173 8.24803C23.7325 8.52607 23.7917 8.82406 23.7917 9.12501V22.1875C23.7917 22.3698 23.7193 22.5447 23.5904 22.6736C23.4615 22.8026 23.2866 22.875 23.1042 22.875H10.0417C10.0417 23.1181 10.1383 23.3513 10.3102 23.5232C10.4821 23.6951 10.7153 23.7917 10.9584 23.7917H23.1042C23.2866 23.7917 23.4615 23.8641 23.5904 23.993C23.7193 24.122 23.7917 24.2968 23.7917 24.4792C23.7917 24.6615 23.7193 24.8364 23.5904 24.9653C23.4615 25.0942 23.2866 25.1667 23.1042 25.1667H10.9584C10.3506 25.1667 9.76773 24.9252 9.33796 24.4955C8.90819 24.0657 8.66675 23.4828 8.66675 22.875V9.12501ZM15.1054 11.9392L14.901 12.7733H13.9192L13.8257 12.7798C13.6612 12.8024 13.5103 12.8838 13.4011 13.009C13.2919 13.1342 13.2318 13.2947 13.2317 13.4608L13.2382 13.5543C13.2608 13.7189 13.3422 13.8698 13.4674 13.979C13.5926 14.0882 13.7531 14.1483 13.9192 14.1483H14.5637L14.208 15.6022L13.4783 15.6031L13.3848 15.6095C13.2202 15.6321 13.0694 15.7135 12.9602 15.8387C12.851 15.9639 12.7908 16.1245 12.7908 16.2906L12.7972 16.3841C12.8198 16.5487 12.9013 16.6995 13.0265 16.8087C13.1517 16.9179 13.3122 16.9781 13.4783 16.9781H13.8716L13.7588 17.4419L13.7423 17.5336C13.7249 17.699 13.7681 17.8651 13.8639 18.0012C13.9596 18.1372 14.1014 18.2339 14.263 18.2733L14.3547 18.2898C14.5201 18.3072 14.6862 18.2641 14.8222 18.1683C14.9583 18.0726 15.055 17.9308 15.0944 17.7692L15.2869 16.9772H16.6977L16.5895 17.452L16.5748 17.5437C16.5598 17.7094 16.6054 17.875 16.7031 18.0097C16.8009 18.1444 16.9442 18.239 17.1065 18.2761L17.1982 18.2908C17.3639 18.3058 17.5295 18.2602 17.6642 18.1624C17.7989 18.0647 17.8935 17.9214 17.9306 17.7591L18.1084 16.9772L18.9701 16.9781L19.0636 16.9717C19.2283 16.9493 19.3794 16.8679 19.4888 16.7427C19.5982 16.6175 19.6585 16.4569 19.6585 16.2906L19.6521 16.1971C19.6295 16.0325 19.5481 15.8817 19.4229 15.7725C19.2976 15.6633 19.1371 15.6031 18.971 15.6031H18.4237L18.7565 14.1483H19.4165L19.51 14.1419C19.6746 14.1193 19.8254 14.0379 19.9346 13.9127C20.0438 13.7875 20.104 13.627 20.104 13.4608L20.0976 13.3683C20.0752 13.2035 19.9938 13.0524 19.8686 12.9431C19.7434 12.8337 19.5828 12.7734 19.4165 12.7733H19.0718L19.191 12.2563L19.2057 12.1647C19.2205 11.9991 19.1748 11.8337 19.077 11.6992C18.9793 11.5647 18.8361 11.4702 18.674 11.4332L18.5823 11.4185C18.4167 11.4037 18.2514 11.4494 18.1169 11.5471C17.9824 11.6449 17.8879 11.7881 17.8508 11.9502L17.6611 12.7733H16.3154L16.4401 12.2664L16.4566 12.1748C16.4756 12.0009 16.4277 11.8264 16.3226 11.6866C16.2175 11.5469 16.063 11.4524 15.8907 11.4225C15.7184 11.3926 15.5412 11.4295 15.3951 11.5256C15.2491 11.6218 15.1451 11.77 15.1045 11.9401" fill="#97ADB6"/>
</g>
<defs>
<clipPath id="clip0_1044_23205">
<rect width="22" height="22" fill="white" transform="translate(5 5)"/>
</clipPath>
</defs>
</svg>
