<svg width="34" height="34" viewBox="0 0 34 34" fill="none" xmlns="http://www.w3.org/2000/svg">
<rect width="34" height="34" rx="8" fill="#F7F8F9"/>
<path d="M11.5001 7.83334C11.0139 7.83334 10.5475 8.02649 10.2037 8.37031C9.8599 8.71412 9.66675 9.18044 9.66675 9.66667V24.3333C9.66675 24.8196 9.8599 25.2859 10.2037 25.6297C10.5475 25.9735 11.0139 26.1667 11.5001 26.1667H22.5001C22.9863 26.1667 23.4526 25.9735 23.7964 25.6297C24.1403 25.2859 24.3334 24.8196 24.3334 24.3333V9.66667C24.3334 9.18044 24.1403 8.71412 23.7964 8.37031C23.4526 8.02649 22.9863 7.83334 22.5001 7.83334H11.5001ZM17.0001 10.5833C18.2157 10.5833 19.3814 11.0662 20.241 11.9258C21.1005 12.7853 21.5834 13.9511 21.5834 15.1667C21.5834 16.3822 21.1005 17.548 20.241 18.4076C19.3814 19.2671 18.2157 19.75 17.0001 19.75C15.7845 19.75 14.6187 19.2671 13.7592 18.4076C12.8996 17.548 12.4167 16.3822 12.4167 15.1667C12.4167 13.9511 12.8996 12.7853 13.7592 11.9258C14.6187 11.0662 15.7845 10.5833 17.0001 10.5833ZM17.0001 11.5C16.6242 12.0683 16.3126 12.6825 16.1201 13.3333H17.8801C17.6832 12.6804 17.3864 12.062 17.0001 11.5ZM15.8084 11.7017C14.9651 11.9858 14.2501 12.5725 13.8284 13.3333H15.1667C15.3317 12.765 15.5334 12.215 15.8084 11.7017ZM18.1826 11.7017C18.4576 12.215 18.6684 12.765 18.8334 13.3333H20.1717C19.7501 12.5725 19.0259 11.995 18.1826 11.7017ZM13.4526 14.25C13.3792 14.5433 13.3334 14.8458 13.3334 15.1667C13.3334 15.4875 13.3792 15.79 13.4526 16.0833H15.0017C14.9651 15.7808 14.9376 15.4783 14.9376 15.1667C14.9376 14.855 14.9651 14.5525 15.0017 14.25H13.4526ZM15.9276 14.25C15.8817 14.5433 15.8542 14.855 15.8542 15.1667C15.8542 15.4783 15.8817 15.7808 15.9276 16.0833H18.0726C18.1092 15.7808 18.1459 15.4783 18.1459 15.1667C18.1459 14.855 18.1092 14.5433 18.0726 14.25H15.9276ZM18.9984 14.25C19.0351 14.5525 19.0626 14.855 19.0626 15.1667C19.0626 15.4783 19.0351 15.7808 18.9984 16.0833H20.5476C20.6209 15.79 20.6667 15.4875 20.6667 15.1667C20.6667 14.8458 20.6209 14.5433 20.5476 14.25H18.9984ZM13.8284 17C14.2501 17.7608 14.9651 18.3383 15.8084 18.6317C15.5334 18.1183 15.3317 17.5775 15.1667 17H13.8284ZM16.1201 17C16.3126 17.66 16.6242 18.265 17.0001 18.8333C17.3851 18.265 17.6876 17.66 17.8801 17H16.1201ZM18.8334 17C18.6684 17.5775 18.4576 18.1183 18.1826 18.6317C19.0259 18.3383 19.7501 17.7608 20.1717 17H18.8334ZM12.4167 21.5833H21.5834V23.4167H12.4167V21.5833Z" fill="#A59DC3"/>
</svg>
