<svg width="30" height="30" viewBox="0 0 30 30" fill="none" xmlns="http://www.w3.org/2000/svg">
<rect width="30" height="30" rx="8" fill="#E5DEFF"/>
<path d="M15.0001 19.5833C15.4863 19.5833 15.9526 19.3902 16.2964 19.0464C16.6403 18.7026 16.8334 18.2362 16.8334 17.75C16.8334 17.2638 16.6403 16.7975 16.2964 16.4536C15.9526 16.1098 15.4863 15.9167 15.0001 15.9167C14.5139 15.9167 14.0475 16.1098 13.7037 16.4536C13.3599 16.7975 13.1667 17.2638 13.1667 17.75C13.1667 18.2362 13.3599 18.7026 13.7037 19.0464C14.0475 19.3902 14.5139 19.5833 15.0001 19.5833ZM20.5001 11.3333C20.9863 11.3333 21.4526 11.5265 21.7964 11.8703C22.1403 12.2141 22.3334 12.6804 22.3334 13.1667V22.3333C22.3334 22.8196 22.1403 23.2859 21.7964 23.6297C21.4526 23.9735 20.9863 24.1667 20.5001 24.1667H9.50008C9.01385 24.1667 8.54754 23.9735 8.20372 23.6297C7.8599 23.2859 7.66675 22.8196 7.66675 22.3333V13.1667C7.66675 12.6804 7.8599 12.2141 8.20372 11.8703C8.54754 11.5265 9.01385 11.3333 9.50008 11.3333H10.4167V9.50001C10.4167 8.28443 10.8996 7.11864 11.7592 6.2591C12.6187 5.39956 13.7845 4.91667 15.0001 4.91667C15.602 4.91667 16.198 5.03522 16.754 5.26556C17.3101 5.49589 17.8154 5.8335 18.241 6.2591C18.6666 6.6847 19.0042 7.18996 19.2345 7.74604C19.4649 8.30211 19.5834 8.89811 19.5834 9.50001V11.3333H20.5001ZM15.0001 6.75001C14.2707 6.75001 13.5713 7.03974 13.0555 7.55546C12.5398 8.07119 12.2501 8.77066 12.2501 9.50001V11.3333H17.7501V9.50001C17.7501 8.77066 17.4604 8.07119 16.9446 7.55546C16.4289 7.03974 15.7294 6.75001 15.0001 6.75001Z" fill="#A59DC3"/>
</svg>
