<svg width="32" height="32" viewBox="0 0 32 32" fill="none" xmlns="http://www.w3.org/2000/svg">
<rect width="32" height="32" rx="8" fill="white"/>
<g clip-path="url(#clip0_820_26573)">
<path d="M21.9051 7.55676C20.9823 6.50497 19.3142 6.05405 17.1802 6.05405H10.9869C10.7757 6.05405 10.5715 6.12938 10.4109 6.26648C10.2504 6.40358 10.144 6.59347 10.1109 6.80199L7.53208 23.1574C7.48082 23.4799 7.73056 23.772 8.05745 23.772H11.881L12.8413 17.6812L12.8115 17.8719C12.8799 17.4414 13.2481 17.1238 13.6841 17.1238H15.5011C19.0705 17.1238 21.8654 15.674 22.6818 11.4801C22.7061 11.356 22.7271 11.2353 22.7452 11.1174C22.6422 11.0628 22.6422 11.0628 22.7452 11.1174C22.9883 9.56723 22.7435 8.51206 21.9051 7.55676Z" fill="#27346A"/>
<path d="M14.3043 10.5589C14.4089 10.5092 14.5232 10.4834 14.639 10.4834H19.4945C20.0694 10.4834 20.6057 10.5209 21.0958 10.5997C21.2329 10.6216 21.3693 10.6477 21.5049 10.678C21.6969 10.7204 21.8868 10.7723 22.0737 10.8335C22.3147 10.9139 22.539 11.0076 22.7453 11.1174C22.9883 9.56663 22.7435 8.51206 21.9051 7.55676C20.9818 6.50497 19.3142 6.05405 17.1802 6.05405H10.9863C10.5502 6.05405 10.1792 6.37153 10.1109 6.80199L7.53208 23.1568C7.48082 23.4799 7.73056 23.7715 8.05692 23.7715H11.881L13.8733 11.1378C13.8929 11.0136 13.9423 10.896 14.0174 10.7952C14.0925 10.6944 14.191 10.6133 14.3043 10.5589Z" fill="#27346A"/>
<path d="M22.6818 11.4801C21.8654 15.6734 19.0705 17.1238 15.5011 17.1238H13.6836C13.2476 17.1238 12.8793 17.4414 12.8115 17.8719L11.6169 25.4451C11.5723 25.7273 11.7905 25.9831 12.0761 25.9831H15.2993C15.4839 25.9831 15.6625 25.9171 15.8028 25.7972C15.9432 25.6773 16.0362 25.5112 16.065 25.3288L16.0964 25.1646L16.7039 21.3145L16.7431 21.1017C16.7719 20.9194 16.8649 20.7533 17.0052 20.6333C17.1456 20.5134 17.3241 20.4475 17.5087 20.4474H17.9911C21.1134 20.4474 23.5583 19.1789 24.2727 15.5103C24.5709 13.9772 24.4166 12.6972 23.6278 11.7981C23.3885 11.5258 23.0913 11.3009 22.7452 11.1173C22.7264 11.2359 22.7061 11.356 22.6818 11.4801Z" fill="#2790C3"/>
<path d="M21.8908 10.7767C21.7635 10.7395 21.635 10.7066 21.5055 10.678C21.3699 10.6482 21.2335 10.6223 21.0964 10.6003C20.6058 10.5209 20.0699 10.4834 19.4944 10.4834H14.6395C14.5236 10.4831 14.4092 10.5091 14.3049 10.5595C14.1914 10.6136 14.0928 10.6947 14.0177 10.7955C13.9426 10.8964 13.8931 11.014 13.8737 11.1383L12.8418 17.6812L12.812 17.8719C12.8799 17.4414 13.2481 17.1238 13.6842 17.1238H15.5017C19.0711 17.1238 21.8659 15.674 22.6823 11.4801C22.7066 11.356 22.727 11.2358 22.7458 11.1173C22.539 11.0082 22.3153 10.9139 22.0743 10.834C22.0135 10.8138 21.9523 10.7947 21.8908 10.7767" fill="#1F264F"/>
</g>
<defs>
<clipPath id="clip0_820_26573">
<rect width="16.9583" height="20" fill="white" transform="translate(7.52075 6)"/>
</clipPath>
</defs>
</svg>
