<svg width="32" height="32" viewBox="0 0 32 32" fill="none" xmlns="http://www.w3.org/2000/svg">
<rect width="32" height="32" rx="8" fill="#EAF6FF"/>
<g clip-path="url(#clip0_817_13123)">
<path d="M19.5559 17.906L19.1009 18.359C19.1009 18.359 18.0179 19.435 15.0629 16.497C12.1079 13.559 13.1909 12.483 13.1909 12.483L13.4769 12.197C14.1839 11.495 14.2509 10.367 13.6339 9.54298L12.3739 7.85998C11.6099 6.83998 10.1349 6.70498 9.25988 7.57498L7.68988 9.13498C7.25688 9.56698 6.96688 10.125 7.00188 10.745C7.09188 12.332 7.80988 15.745 11.8139 19.727C16.0609 23.949 20.0459 24.117 21.6749 23.965C22.1909 23.917 22.6389 23.655 22.9999 23.295L24.4199 21.883C25.3799 20.93 25.1099 19.295 23.8819 18.628L21.9719 17.589C21.1659 17.152 20.1859 17.28 19.5559 17.906Z" fill="#A6CDEA"/>
</g>
<defs>
<clipPath id="clip0_817_13123">
<rect width="24" height="24" fill="white" transform="translate(4 3)"/>
</clipPath>
</defs>
</svg>
