<svg width="32" height="32" viewBox="0 0 32 32" fill="none" xmlns="http://www.w3.org/2000/svg">
<rect width="32" height="32" rx="8" fill="#EAF6FF"/>
<path d="M18.5561 19.548L18.1011 20.028C18.1011 20.028 17.0181 21.167 14.0631 18.056C11.1081 14.945 12.1911 13.806 12.1911 13.806L12.4781 13.503C13.1841 12.759 13.2511 11.565 12.6341 10.693L11.3741 8.91C10.6101 7.83 9.1351 7.688 8.2601 8.609L6.6911 10.26C6.2581 10.717 5.9681 11.308 6.0031 11.965C6.0931 13.645 6.8111 17.258 10.8151 21.475C15.0621 25.945 19.0471 26.123 20.6761 25.962C21.1921 25.912 21.6401 25.633 22.0011 25.253L23.4211 23.757C24.3811 22.747 24.1111 21.017 22.8831 20.311L20.9731 19.211C20.1671 18.748 19.1861 18.884 18.5561 19.547" fill="#A6CDEA"/>
<path fill-rule="evenodd" clip-rule="evenodd" d="M18.932 7.28627C19.5645 6.93435 20.2763 6.74976 21 6.74999C21.6405 6.75041 22.2726 6.89558 22.8491 7.17466C23.4256 7.45374 23.9315 7.85951 24.3292 8.36163C24.7268 8.86376 25.0057 9.44926 25.1452 10.0744C25.2847 10.6995 25.2811 11.348 25.1347 11.9716C24.9883 12.5951 24.7028 13.1775 24.2997 13.6752C23.8965 14.1728 23.3861 14.573 22.8065 14.8456C22.227 15.1183 21.5933 15.2565 20.9528 15.2498C20.3124 15.2431 19.6817 15.0917 19.108 14.807C18.7676 14.6341 18.3757 14.5914 18.006 14.687L17.06 14.94L17.313 13.994C17.418 13.602 17.353 13.212 17.193 12.892C16.8708 12.2439 16.7195 11.5243 16.7533 10.8014C16.7871 10.0784 17.005 9.37609 17.3863 8.76094C17.7676 8.14579 18.2996 7.6382 18.932 7.28627ZM16.4118 7.53558C15.6582 8.53333 15.2503 9.74958 15.25 11C15.2489 11.8883 15.4543 12.7647 15.85 13.56C15.8569 13.5724 15.8616 13.586 15.864 13.6V13.607L15.566 14.72C15.5025 14.9574 15.5026 15.2073 15.5663 15.4446C15.63 15.6819 15.755 15.8983 15.9288 16.072C16.1026 16.2457 16.3191 16.3706 16.5564 16.4341C16.7938 16.4977 17.0437 16.4976 17.281 16.434L18.393 16.137H18.4C18.414 16.1391 18.4275 16.1434 18.44 16.15C19.5597 16.7067 20.8303 16.8833 22.0593 16.6529C23.2883 16.4225 24.4087 15.7978 25.2508 14.8735C26.0928 13.9491 26.6106 12.7754 26.7256 11.5303C26.8407 10.2852 26.5467 9.03648 25.8882 7.97347C25.2298 6.91046 24.2428 6.09106 23.0767 5.63944C21.9107 5.18783 20.6293 5.12861 19.4266 5.47077C18.2239 5.81293 17.1655 6.53782 16.4118 7.53558ZM19.0227 11.3497C18.8772 11.4952 18.6798 11.577 18.4741 11.577C18.2683 11.577 18.071 11.4952 17.9255 11.3497C17.78 11.2042 17.6982 11.0069 17.6982 10.8011C17.6982 10.5954 17.78 10.398 17.9255 10.2525C18.071 10.1071 18.2683 10.0253 18.4741 10.0253C18.6798 10.0253 18.8772 10.1071 19.0227 10.2525C19.1681 10.398 19.2499 10.5954 19.2499 10.8011C19.2499 11.0069 19.1681 11.2042 19.0227 11.3497ZM21.5448 11.3497C21.3993 11.4952 21.2019 11.577 20.9962 11.577C20.7904 11.577 20.5931 11.4952 20.4476 11.3497C20.3021 11.2042 20.2203 11.0069 20.2203 10.8011C20.2203 10.5954 20.3021 10.398 20.4476 10.2525C20.5931 10.1071 20.7904 10.0253 20.9962 10.0253C21.2019 10.0253 21.3993 10.1071 21.5448 10.2525C21.6902 10.398 21.772 10.5954 21.772 10.8011C21.772 11.0069 21.6902 11.2042 21.5448 11.3497ZM24.0668 11.3506C23.9214 11.4961 23.724 11.5779 23.5183 11.5779C23.3125 11.5779 23.1152 11.4961 22.9697 11.3506C22.8242 11.2051 22.7424 11.0078 22.7424 10.802C22.7424 10.5963 22.8242 10.3989 22.9697 10.2535C23.1152 10.108 23.3125 10.0262 23.5183 10.0262C23.724 10.0262 23.9214 10.108 24.0668 10.2535C24.2123 10.3989 24.2941 10.5963 24.2941 10.802C24.2941 11.0078 24.2123 11.2051 24.0668 11.3506Z" fill="#A6CDEA"/>
</svg>
