<svg width="32" height="32" viewBox="0 0 32 32" fill="none" xmlns="http://www.w3.org/2000/svg">
<rect width="32" height="32" rx="8" fill="#EAF6FF"/>
<path d="M18.5561 19.548L18.1011 20.028C18.1011 20.028 17.0181 21.167 14.0631 18.056C11.1081 14.945 12.1911 13.806 12.1911 13.806L12.4781 13.503C13.1841 12.759 13.2511 11.565 12.6341 10.693L11.3741 8.91C10.6101 7.83 9.1351 7.688 8.2601 8.609L6.6911 10.26C6.2581 10.717 5.9681 11.308 6.0031 11.965C6.0931 13.645 6.8111 17.258 10.8151 21.475C15.0621 25.945 19.0471 26.123 20.6761 25.962C21.1921 25.912 21.6401 25.633 22.0011 25.253L23.4211 23.757C24.3811 22.747 24.1111 21.017 22.8831 20.311L20.9731 19.211C20.1671 18.748 19.1861 18.884 18.5561 19.547" fill="#A6CDEA"/>
<path fill-rule="evenodd" clip-rule="evenodd" d="M24.0127 14.9899C23.1451 15.6452 22.0874 15.9998 21.0001 16C20.2277 16.001 19.4656 15.8223 18.7741 15.478C18.5973 15.3865 18.3932 15.3627 18.2001 15.411L17.0871 15.709C16.9769 15.7385 16.8609 15.7385 16.7507 15.709C16.6405 15.6794 16.54 15.6214 16.4594 15.5407C16.3787 15.4601 16.3207 15.3596 16.2912 15.2494C16.2616 15.1392 16.2616 15.0232 16.2911 14.913L16.5891 13.8C16.6375 13.6069 16.6136 13.4028 16.5221 13.226C16.038 12.2524 15.8845 11.1475 16.0849 10.0788C16.2852 9.01006 16.8285 8.03578 17.6323 7.30358C18.4362 6.57139 19.4568 6.12118 20.5395 6.02119C21.6222 5.9212 22.708 6.17688 23.6324 6.74949C24.5567 7.32209 25.2692 8.18041 25.6619 9.19436C26.0545 10.2083 26.106 11.3226 25.8084 12.3684C25.5108 13.4142 24.8804 14.3345 24.0127 14.9899ZM18.8192 11.6055C18.6585 11.7662 18.4405 11.8565 18.2132 11.8565C17.9859 11.8565 17.7679 11.7662 17.6072 11.6055C17.4465 11.4448 17.3562 11.2268 17.3562 10.9995C17.3562 10.7722 17.4465 10.5542 17.6072 10.3935C17.7679 10.2328 17.9859 10.1425 18.2132 10.1425C18.4405 10.1425 18.6585 10.2328 18.8192 10.3935C18.9799 10.5542 19.0702 10.7722 19.0702 10.9995C19.0702 11.2268 18.9799 11.4448 18.8192 11.6055ZM21.6052 11.6055C21.4445 11.7662 21.2265 11.8565 20.9992 11.8565C20.7719 11.8565 20.5539 11.7662 20.3932 11.6055C20.2325 11.4448 20.1422 11.2268 20.1422 10.9995C20.1422 10.7722 20.2325 10.5542 20.3932 10.3935C20.5539 10.2328 20.7719 10.1425 20.9992 10.1425C21.2265 10.1425 21.4445 10.2328 21.6052 10.3935C21.7659 10.5542 21.8562 10.7722 21.8562 10.9995C21.8562 11.2268 21.7659 11.4448 21.6052 11.6055ZM24.3912 11.6065C24.2305 11.7672 24.0125 11.8575 23.7852 11.8575C23.5579 11.8575 23.3399 11.7672 23.1792 11.6065C23.0185 11.4458 22.9282 11.2278 22.9282 11.0005C22.9282 10.7732 23.0185 10.5552 23.1792 10.3945C23.3399 10.2338 23.5579 10.1435 23.7852 10.1435C24.0125 10.1435 24.2305 10.2338 24.3912 10.3945C24.5519 10.5552 24.6422 10.7732 24.6422 11.0005C24.6422 11.2278 24.5519 11.4458 24.3912 11.6065Z" fill="#A6CDEA"/>
</svg>
