<svg width="32" height="32" viewBox="0 0 32 32" fill="none" xmlns="http://www.w3.org/2000/svg">
<rect y="-0.00183105" width="32" height="32" rx="8" fill="white"/>
<rect x="5" y="4.99817" width="22" height="22" rx="11" fill="#EA4335"/>
<path d="M13 11.9982H15.5185C16.5959 11.9982 17.4114 12.1477 17.9649 12.4469C18.5185 12.746 18.7952 13.2713 18.7952 14.0228C18.7952 14.3256 18.7454 14.5992 18.6458 14.8436C18.5498 15.088 18.4096 15.2886 18.2251 15.4455C18.0406 15.6024 17.8155 15.7045 17.5498 15.7519V15.8067C17.8192 15.8614 18.0627 15.9562 18.2804 16.0912C18.4982 16.2225 18.6716 16.4159 18.8007 16.6712C18.9336 16.9229 19 17.2585 19 17.6781C19 18.1632 18.8801 18.5791 18.6402 18.9257C18.4004 19.2722 18.0572 19.5385 17.6107 19.7246C17.1679 19.907 16.6402 19.9982 16.0277 19.9982H13V11.9982ZM14.7159 15.1664H15.7122C16.2103 15.1664 16.5554 15.0898 16.7472 14.9366C16.9391 14.7797 17.0351 14.5499 17.0351 14.2471C17.0351 13.9407 16.9207 13.7218 16.6919 13.5905C16.4668 13.4555 16.1089 13.388 15.6181 13.388H14.7159V15.1664ZM14.7159 16.5125V18.5973H15.8339C16.3506 18.5973 16.7103 18.4989 16.9133 18.3019C17.1162 18.1049 17.2177 17.8404 17.2177 17.5084C17.2177 17.3114 17.1734 17.1382 17.0849 16.9886C16.9963 16.839 16.8469 16.7223 16.6365 16.6384C16.4299 16.5545 16.1439 16.5125 15.7786 16.5125H14.7159Z" fill="white"/>
</svg>
