<svg width="32" height="32" viewBox="0 0 32 32" fill="none" xmlns="http://www.w3.org/2000/svg">
<rect y="-0.00183105" width="32" height="32" rx="8" fill="white"/>
<rect x="5" y="4.99817" width="22" height="22" rx="11" fill="#EA4335"/>
<path d="M16.6948 13.3714C16.3752 13.3714 16.0916 13.4335 15.8438 13.5577C15.5996 13.6784 15.3932 13.854 15.2244 14.0847C15.0592 14.3153 14.9336 14.5939 14.8474 14.9203C14.7612 15.2468 14.7181 15.614 14.7181 16.0221C14.7181 16.5721 14.7864 17.0423 14.9228 17.4326C15.0628 17.8194 15.2783 18.1157 15.5691 18.3215C15.86 18.5238 16.2352 18.6249 16.6948 18.6249C17.0144 18.6249 17.3339 18.5894 17.6535 18.5185C17.9767 18.4475 18.3268 18.3464 18.7038 18.2151V19.599C18.3555 19.7409 18.0126 19.842 17.675 19.9024C17.3375 19.9662 16.9587 19.9982 16.5386 19.9982C15.7271 19.9982 15.0592 19.8332 14.535 19.5032C14.0144 19.1696 13.6284 18.7048 13.377 18.1086C13.1257 17.5089 13 16.8099 13 16.0115C13 15.4224 13.0808 14.8831 13.2424 14.3934C13.4039 13.9037 13.6409 13.4797 13.9533 13.1213C14.2657 12.7629 14.6517 12.4861 15.1113 12.2909C15.5709 12.0958 16.0987 11.9982 16.6948 11.9982C17.0862 11.9982 17.4776 12.0478 17.8689 12.1472C18.2639 12.243 18.6409 12.3761 19 12.5464L18.4614 13.8877C18.167 13.7493 17.8707 13.6287 17.5727 13.5258C17.2747 13.4229 16.982 13.3714 16.6948 13.3714Z" fill="white"/>
</svg>
