<svg width="32" height="32" viewBox="0 0 32 32" fill="none" xmlns="http://www.w3.org/2000/svg">
<rect y="-0.00183105" width="32" height="32" rx="8" fill="white"/>
<rect x="4" y="3.99817" width="24" height="24" rx="12" fill="#D5DDE0"/>
<path d="M18.109 19.9982L17.5088 18.1017H14.4912L13.891 19.9982H12L14.9214 11.9982H17.0672L20 19.9982H18.109ZM17.0899 16.6848L16.4897 14.832C16.452 14.7084 16.401 14.5504 16.3369 14.3578C16.2765 14.1617 16.2142 13.9637 16.15 13.7638C16.0896 13.5604 16.0406 13.3842 16.0028 13.2352C15.9651 13.3842 15.9122 13.5695 15.8443 13.7911C15.7801 14.0091 15.7179 14.2162 15.6575 14.4123C15.5971 14.6085 15.5537 14.7484 15.5272 14.832L14.9328 16.6848H17.0899Z" fill="#3E4958"/>
</svg>
