<svg width="32" height="32" viewBox="0 0 32 32" fill="none" xmlns="http://www.w3.org/2000/svg">
<rect width="32" height="32" rx="8" fill="#F7F8F9"/>
<path d="M22.6458 9.5H9.58333V7.66667H12.5625C12.942 7.66667 13.25 7.35867 13.25 6.97917V4.6875C13.25 4.308 12.942 4 12.5625 4H8.66667C8.16067 4 7.75 4.40975 7.75 4.91667V9.88867C6.13392 10.5982 5 12.2087 5 14.0833V20.5C5 21.0069 5.41067 21.4167 5.91667 21.4167H13.25C13.2903 21.4167 13.3252 21.3983 13.3646 21.3938C13.4031 21.4002 13.4388 21.4167 13.4792 21.4167H16V25.0833C16 25.5903 16.4107 26 16.9167 26C17.4227 26 17.8333 25.5903 17.8333 25.0833V21.4167H26.3125C26.692 21.4167 27 21.1087 27 20.7292V13.8542C27 11.4534 25.0466 9.5 22.6458 9.5ZM12.3333 19.5833H6.83333V14.0833C6.83333 12.5672 8.06717 11.3333 9.58333 11.3333C11.0995 11.3333 12.3333 12.5672 12.3333 14.0833V19.5833Z" fill="#A59DC3"/>
</svg>
