<svg width="32" height="32" viewBox="0 0 32 32" fill="none" xmlns="http://www.w3.org/2000/svg">
<rect width="32" height="32" rx="8" fill="#F7F8F9"/>
<path d="M9.75 23.5C9.75 23.5 8.5 23.5 8.5 22.25C8.5 21 9.75 17.25 16 17.25C22.25 17.25 23.5 21 23.5 22.25C23.5 23.5 22.25 23.5 22.25 23.5H9.75ZM16 16C16.9946 16 17.9484 15.6049 18.6517 14.9017C19.3549 14.1984 19.75 13.2446 19.75 12.25C19.75 11.2554 19.3549 10.3016 18.6517 9.59835C17.9484 8.89509 16.9946 8.5 16 8.5C15.0054 8.5 14.0516 8.89509 13.3483 9.59835C12.6451 10.3016 12.25 11.2554 12.25 12.25C12.25 13.2446 12.6451 14.1984 13.3483 14.9017C14.0516 15.6049 15.0054 16 16 16Z" fill="#A59DC3"/>
</svg>
