<svg width="32" height="32" viewBox="0 0 32 32" fill="none" xmlns="http://www.w3.org/2000/svg">
<rect width="32" height="32" rx="8" fill="#E8F0FF"/>
<path fill-rule="evenodd" clip-rule="evenodd" d="M12.5161 5.9191C12.723 5.77093 12.9214 5.61107 13.1101 5.4403L13.1192 5.43253C13.8476 4.8125 14.2133 4.50114 14.5957 4.3183C15.0341 4.10876 15.5138 4 15.9997 4C16.4856 4 16.9653 4.10876 17.4037 4.3183C17.7861 4.50114 18.1518 4.8125 18.8802 5.43252L18.8893 5.4403C19.0783 5.61077 19.2766 5.77062 19.4833 5.9191C19.841 6.15888 20.2428 6.32529 20.6653 6.4087C20.9164 6.44997 21.1696 6.47721 21.4237 6.4903L21.425 6.4904C22.3853 6.56714 22.8663 6.60556 23.2669 6.7471C23.7252 6.90891 24.1414 7.17126 24.4851 7.51492C24.8287 7.85858 25.0911 8.27482 25.2529 8.7331C25.3944 9.13373 25.4329 9.61469 25.5096 10.5751L25.5097 10.5763C25.5228 10.8304 25.5501 11.0836 25.5913 11.3347C25.6747 11.7572 25.8411 12.159 26.0809 12.5167C26.2291 12.7237 26.3889 12.922 26.5597 13.1107L26.5675 13.1199C27.1875 13.8482 27.4989 14.2139 27.6817 14.5963C28.1053 15.4843 28.1053 16.5163 27.6817 17.4043C27.4989 17.7867 27.1875 18.1524 26.5675 18.8807L26.5597 18.8899C26.3101 19.1815 26.1853 19.3279 26.0809 19.4839C25.8421 19.8415 25.6753 20.2435 25.5913 20.6659C25.5553 20.8495 25.5397 21.0415 25.5097 21.4243L25.5096 21.4255C25.4329 22.3859 25.3944 22.8669 25.2529 23.2675C25.0911 23.7258 24.8287 24.142 24.4851 24.4857C24.1414 24.8293 23.7252 25.0917 23.2669 25.2535C22.8663 25.395 22.3853 25.4335 21.425 25.5102L21.4237 25.5103C21.0409 25.5403 20.8489 25.5559 20.6653 25.5919C20.2429 25.6759 19.8409 25.8415 19.4833 26.0815C19.3273 26.1859 19.1809 26.3107 18.8893 26.5603L18.8801 26.5681C18.1518 27.1881 17.7861 27.4995 17.4037 27.6823C16.5157 28.1059 15.4837 28.1059 14.5957 27.6823C14.2133 27.4995 13.8476 27.1881 13.1193 26.5681L13.1101 26.5603C12.8185 26.3107 12.6721 26.1859 12.5161 26.0815C12.1585 25.8427 11.7565 25.6759 11.3341 25.5919C11.1505 25.5559 10.9585 25.5403 10.5757 25.5103L10.5744 25.5102C9.61405 25.4335 9.13311 25.395 8.7325 25.2535C8.27422 25.0917 7.85798 24.8293 7.51432 24.4857C7.17066 24.142 6.9083 23.7258 6.7465 23.2675C6.60496 22.8669 6.56653 22.3859 6.4898 21.4256L6.4897 21.4243C6.4597 21.0415 6.4441 20.8495 6.4081 20.6659C6.3241 20.2435 6.1585 19.8415 5.9185 19.4839C5.8141 19.3279 5.6893 19.1815 5.4397 18.8899L5.43192 18.8808C4.8119 18.1524 4.50054 17.7867 4.3177 17.4043C3.8941 16.5163 3.8941 15.4843 4.3177 14.5963C4.50053 14.2139 4.81189 13.8482 5.43189 13.1199L5.4397 13.1107C5.6893 12.8191 5.8141 12.6727 5.9185 12.5167C6.1585 12.1591 6.3241 11.7571 6.4081 11.3347C6.44937 11.0836 6.47661 10.8304 6.4897 10.5763L6.4898 10.575C6.56653 9.61468 6.60496 9.13373 6.7465 8.7331C6.9083 8.27482 7.17066 7.85858 7.51432 7.51492C7.85798 7.17126 8.27422 6.90891 8.7325 6.7471C9.13312 6.60556 9.61408 6.56714 10.5744 6.4904L10.5757 6.4903C10.9585 6.4603 11.1505 6.4447 11.3341 6.4087C11.7565 6.3247 12.1585 6.1591 12.5161 5.9191ZM24.0033 11.124C24.0033 10.8259 23.8849 10.5399 23.6743 10.329C23.4633 10.1183 23.1774 10 22.8793 10C22.5811 10 22.2952 10.1183 22.0843 10.329L13.7473 18.6645L10.9378 15.7605C10.8353 15.6534 10.7126 15.5676 10.5768 15.5081C10.4411 15.4485 10.2949 15.4164 10.1466 15.4136C9.9984 15.4107 9.85108 15.4372 9.71312 15.4915C9.57516 15.5457 9.44929 15.6267 9.34274 15.7298C9.23619 15.8329 9.15107 15.9561 9.09227 16.0921C9.03347 16.2282 9.00215 16.3746 9.00011 16.5229C8.99806 16.6711 9.02534 16.8183 9.08037 16.9559C9.1354 17.0936 9.2171 17.219 9.32077 17.325L12.9253 21.051C13.0291 21.1582 13.1531 21.2438 13.2903 21.3026C13.4275 21.3614 13.575 21.3923 13.7242 21.3936C13.8734 21.3948 14.0214 21.3664 14.1595 21.3099C14.2977 21.2534 14.4232 21.17 14.5288 21.0645L23.6743 11.919C23.8849 11.7081 24.0033 11.4221 24.0033 11.124Z" fill="#A6BEEA"/>
</svg>
