<svg width="32" height="32" viewBox="0 0 32 32" fill="none" xmlns="http://www.w3.org/2000/svg">
<rect width="32" height="32" rx="8" fill="#E8F0FF"/>
<path fill-rule="evenodd" clip-rule="evenodd" d="M13.1101 5.4403C12.9214 5.61107 12.723 5.77093 12.5161 5.9191C12.1585 6.1591 11.7565 6.3247 11.3341 6.4087C11.1505 6.4447 10.9585 6.4603 10.5757 6.4903C9.6145 6.5671 9.1333 6.6055 8.7325 6.7471C8.27422 6.90891 7.85798 7.17126 7.51432 7.51492C7.17066 7.85858 6.9083 8.27482 6.7465 8.7331C6.6049 9.1339 6.5665 9.6151 6.4897 10.5763C6.47661 10.8304 6.44937 11.0836 6.4081 11.3347C6.3241 11.7571 6.1585 12.1591 5.9185 12.5167C5.8141 12.6727 5.6893 12.8191 5.4397 13.1107C4.8145 13.8451 4.5013 14.2123 4.3177 14.5963C3.8941 15.4843 3.8941 16.5163 4.3177 17.4043C4.5013 17.7883 4.8145 18.1555 5.4397 18.8899C5.6893 19.1815 5.8141 19.3279 5.9185 19.4839C6.1585 19.8415 6.3241 20.2435 6.4081 20.6659C6.4441 20.8495 6.4597 21.0415 6.4897 21.4243C6.5665 22.3855 6.6049 22.8667 6.7465 23.2675C6.9083 23.7258 7.17066 24.142 7.51432 24.4857C7.85798 24.8293 8.27422 25.0917 8.7325 25.2535C9.1333 25.3951 9.6145 25.4335 10.5757 25.5103C10.9585 25.5403 11.1505 25.5559 11.3341 25.5919C11.7565 25.6759 12.1585 25.8427 12.5161 26.0815C12.6721 26.1859 12.8185 26.3107 13.1101 26.5603C13.8445 27.1855 14.2117 27.4987 14.5957 27.6823C15.4837 28.1059 16.5157 28.1059 17.4037 27.6823C17.7877 27.4987 18.1549 27.1855 18.8893 26.5603C19.1809 26.3107 19.3273 26.1859 19.4833 26.0815C19.8409 25.8415 20.2429 25.6759 20.6653 25.5919C20.8489 25.5559 21.0409 25.5403 21.4237 25.5103C22.3849 25.4335 22.8661 25.3951 23.2669 25.2535C23.7252 25.0917 24.1414 24.8293 24.4851 24.4857C24.8287 24.142 25.0911 23.7258 25.2529 23.2675C25.3945 22.8667 25.4329 22.3855 25.5097 21.4243C25.5397 21.0415 25.5553 20.8495 25.5913 20.6659C25.6753 20.2435 25.8421 19.8415 26.0809 19.4839C26.1853 19.3279 26.3101 19.1815 26.5597 18.8899C27.1849 18.1555 27.4981 17.7883 27.6817 17.4043C28.1053 16.5163 28.1053 15.4843 27.6817 14.5963C27.4981 14.2123 27.1849 13.8451 26.5597 13.1107C26.3889 12.922 26.2291 12.7237 26.0809 12.5167C25.8411 12.159 25.6747 11.7572 25.5913 11.3347C25.5501 11.0836 25.5228 10.8304 25.5097 10.5763C25.4329 9.6151 25.3945 9.1339 25.2529 8.7331C25.0911 8.27482 24.8287 7.85858 24.4851 7.51492C24.1414 7.17126 23.7252 6.90891 23.2669 6.7471C22.8661 6.6055 22.3849 6.5671 21.4237 6.4903C21.1696 6.47721 20.9164 6.44997 20.6653 6.4087C20.2428 6.32529 19.841 6.15888 19.4833 5.9191C19.2766 5.77062 19.0783 5.61077 18.8893 5.4403C18.1549 4.8151 17.7877 4.5019 17.4037 4.3183C16.9653 4.10876 16.4856 4 15.9997 4C15.5138 4 15.0341 4.10876 14.5957 4.3183C14.2117 4.5019 13.8445 4.8151 13.1101 5.4403ZM20.5969 11.4043C20.7797 11.5874 20.8823 11.8356 20.8823 12.0943C20.8823 12.353 20.7797 12.6012 20.5969 12.7843L12.7837 20.5987C12.6947 20.6961 12.5868 20.7745 12.4667 20.8291C12.3465 20.8837 12.2165 20.9134 12.0846 20.9164C11.9526 20.9194 11.8215 20.8956 11.699 20.8464C11.5765 20.7973 11.4652 20.7239 11.3719 20.6305C11.2785 20.5372 11.2051 20.4259 11.156 20.3034C11.1068 20.1809 11.083 20.0498 11.086 19.9178C11.089 19.7859 11.1187 19.6559 11.1733 19.5357C11.2279 19.4156 11.3063 19.3077 11.4037 19.2187L19.2157 11.4055C19.3988 11.2227 19.647 11.1201 19.9057 11.1201C20.1644 11.1201 20.4126 11.2227 20.5957 11.4055M20.5561 19.2571C20.5561 19.6024 20.4189 19.9336 20.1748 20.1778C19.9306 20.4219 19.5994 20.5591 19.2541 20.5591C18.9088 20.5591 18.5776 20.4219 18.3334 20.1778C18.0893 19.9336 17.9521 19.6024 17.9521 19.2571C17.9521 18.9118 18.0893 18.5806 18.3334 18.3364C18.5776 18.0923 18.9088 17.9551 19.2541 17.9551C19.5994 17.9551 19.9306 18.0923 20.1748 18.3364C20.4189 18.5806 20.5561 18.9118 20.5561 19.2571ZM12.7441 14.0491C13.0894 14.0491 13.4206 13.9119 13.6648 13.6678C13.9089 13.4236 14.0461 13.0924 14.0461 12.7471C14.0461 12.4018 13.9089 12.0706 13.6648 11.8264C13.4206 11.5823 13.0894 11.4451 12.7441 11.4451C12.3988 11.4451 12.0676 11.5823 11.8234 11.8264C11.5793 12.0706 11.4421 12.4018 11.4421 12.7471C11.4421 13.0924 11.5793 13.4236 11.8234 13.6678C12.0676 13.9119 12.3988 14.0491 12.7441 14.0491Z" fill="#A6BEEA"/>
</svg>
