<svg width="32" height="32" viewBox="0 0 32 32" fill="none" xmlns="http://www.w3.org/2000/svg">
<rect width="32" height="32" rx="8" fill="#E5DEFF"/>
<path fill-rule="evenodd" clip-rule="evenodd" d="M16 5C9.925 5 5 9.925 5 16C5 22.075 9.925 27 16 27C22.075 27 27 22.075 27 16C27 9.925 22.075 5 16 5ZM14.892 12.935C15.122 12.482 15.292 12.267 15.433 12.155C15.539 12.071 15.683 12 16 12C16.625 12 17 12.47 17 12.978C17 13.256 16.946 13.394 16.798 13.57C16.591 13.816 16.208 14.115 15.45 14.616L15 14.912V17C15 17.2652 15.1054 17.5196 15.2929 17.7071C15.4804 17.8946 15.7348 18 16 18C16.2652 18 16.5196 17.8946 16.7071 17.7071C16.8946 17.5196 17 17.2652 17 17V15.983C17.542 15.609 17.997 15.251 18.327 14.859C18.804 14.293 19 13.689 19 12.978C19 11.508 17.867 10 16 10C15.316 10 14.711 10.176 14.192 10.587C13.708 10.97 13.378 11.497 13.108 12.032C13.0453 12.1495 13.0066 12.2783 12.9943 12.4109C12.982 12.5435 12.9964 12.6772 13.0365 12.8042C13.0766 12.9312 13.1416 13.0489 13.2278 13.1504C13.314 13.2519 13.4196 13.3352 13.5385 13.3953C13.6573 13.4555 13.7869 13.4913 13.9198 13.5006C14.0526 13.51 14.186 13.4927 14.3121 13.4499C14.4381 13.407 14.5544 13.3394 14.654 13.2509C14.7536 13.1625 14.8345 13.0551 14.892 12.935ZM17 20.5C17 20.2348 16.8946 19.9804 16.7071 19.7929C16.5196 19.6054 16.2652 19.5 16 19.5C15.7348 19.5 15.4804 19.6054 15.2929 19.7929C15.1054 19.9804 15 20.2348 15 20.5V21C15 21.2652 15.1054 21.5196 15.2929 21.7071C15.4804 21.8946 15.7348 22 16 22C16.2652 22 16.5196 21.8946 16.7071 21.7071C16.8946 21.5196 17 21.2652 17 21V20.5Z" fill="#A59DC3"/>
</svg>
