<svg width="32" height="32" viewBox="0 0 32 32" fill="none" xmlns="http://www.w3.org/2000/svg">
<rect width="32" height="32" rx="8" fill="#F7F8F9"/>
<path d="M16 5.5C10.2102 5.5 5.5 10.2102 5.5 16C5.5 21.7898 10.2102 26.5 16 26.5C21.7898 26.5 26.5 21.7898 26.5 16C26.5 10.2102 21.7898 5.5 16 5.5ZM16.1875 22.75C14.3595 22.75 12.6469 22.0286 11.3652 20.7189C11.0393 20.386 11.0451 19.8517 11.3784 19.5258C11.7104 19.1995 12.2452 19.2048 12.5715 19.539C13.5331 20.5216 14.8172 21.0625 16.1875 21.0625C18.9791 21.0625 21.25 18.7916 21.25 16C21.25 13.2084 18.9791 10.9375 16.1875 10.9375C13.8792 10.9375 11.9311 12.4917 11.3243 14.6076L11.3722 14.5597C11.7018 14.2301 12.2357 14.2301 12.5653 14.5597C12.8949 14.8893 12.8949 15.4232 12.5653 15.7528L10.8778 17.4403C10.713 17.6051 10.4971 17.6875 10.2812 17.6875C10.0654 17.6875 9.84949 17.6051 9.68469 17.4403L7.99719 15.7528C7.6676 15.4232 7.6676 14.8893 7.99719 14.5597C8.32678 14.2301 8.86072 14.2301 9.19031 14.5597L9.53468 14.9041C10.0608 11.7027 12.8396 9.25 16.1875 9.25C19.9094 9.25 22.9375 12.2781 22.9375 16C22.9375 19.7219 19.9094 22.75 16.1875 22.75Z" fill="#A59DC3"/>
</svg>
