<svg width="32" height="32" viewBox="0 0 32 32" fill="none" xmlns="http://www.w3.org/2000/svg">
<rect width="32" height="32" rx="8" fill="#F7F8F9"/>
<path d="M23.3334 12.3333L17.8334 6.83334H10.5001C10.0139 6.83334 9.54754 7.0265 9.20372 7.37031C8.8599 7.71413 8.66675 8.18045 8.66675 8.66668V23.3333C8.66675 23.8196 8.8599 24.2859 9.20372 24.6297C9.54754 24.9735 10.0139 25.1667 10.5001 25.1667H21.5001C21.9863 25.1667 22.4526 24.9735 22.7964 24.6297C23.1403 24.2859 23.3334 23.8196 23.3334 23.3333V12.3333ZM13.2501 22.4167H11.4167V14.1667H13.2501V22.4167ZM16.9167 22.4167H15.0834V16.9167H16.9167V22.4167ZM20.5834 22.4167H18.7501V19.6667H20.5834V22.4167ZM17.8334 13.25H16.9167V8.66668L21.5001 13.25H17.8334Z" fill="#97ADB6"/>
</svg>
