<svg width="32" height="32" viewBox="0 0 32 32" fill="none" xmlns="http://www.w3.org/2000/svg">
<rect width="32" height="32" rx="8" fill="#E5DEFF"/>
<path d="M16 5.5C21.7898 5.5 26.5 10.2102 26.5 16C26.5 21.7898 21.7898 26.5 16 26.5C10.2102 26.5 5.5 21.7898 5.5 16C5.5 10.2102 10.2102 5.5 16 5.5ZM15.8125 22.75C17.6405 22.75 19.3531 22.0286 20.6348 20.7189C20.9607 20.386 20.9549 19.8517 20.6216 19.5258C20.2896 19.1995 19.7548 19.2048 19.4285 19.539C18.4669 20.5216 17.1828 21.0625 15.8125 21.0625C13.0209 21.0625 10.75 18.7916 10.75 16C10.75 13.2084 13.0209 10.9375 15.8125 10.9375C18.1208 10.9375 20.0689 12.4917 20.6757 14.6076L20.6278 14.5597C20.2982 14.2301 19.7643 14.2301 19.4347 14.5597C19.1051 14.8893 19.1051 15.4232 19.4347 15.7528L21.1222 17.4403C21.287 17.6051 21.5029 17.6875 21.7188 17.6875C21.9346 17.6875 22.1505 17.6051 22.3153 17.4403L24.0028 15.7528C24.3324 15.4232 24.3324 14.8893 24.0028 14.5597C23.6732 14.2301 23.1393 14.2301 22.8097 14.5597L22.4653 14.9041C21.9392 11.7027 19.1604 9.25 15.8125 9.25C12.0906 9.25 9.0625 12.2781 9.0625 16C9.0625 19.7219 12.0906 22.75 15.8125 22.75ZM13.9697 16.9697C13.6768 17.2627 13.6768 17.7373 13.9697 18.0303C14.1162 18.1768 14.3081 18.25 14.5 18.25C14.6919 18.25 14.8838 18.1768 15.0303 18.0303L16.5303 16.5303C16.6709 16.3896 16.75 16.1989 16.75 16V13C16.75 12.5858 16.4142 12.25 16 12.25C15.5858 12.25 15.25 12.5858 15.25 13V15.6895L13.9697 16.9697Z" fill="#A59DC3"/>
</svg>
