<svg width="32" height="32" viewBox="0 0 32 32" fill="none" xmlns="http://www.w3.org/2000/svg">
<rect width="32" height="32" rx="8" fill="#EAF6FF"/>
<path d="M26.2333 14.0435H25.1983L22.5361 7.92935C22.4156 7.65272 22.2191 7.4177 21.9704 7.25275C21.7218 7.0878 21.4316 7 21.135 7H9.865C9.56843 7 9.27823 7.0878 9.02956 7.25275C8.78088 7.4177 8.5844 7.65272 8.46392 7.92935L5.80167 14.0435H4.76667C4.56333 14.0435 4.36833 14.1259 4.22455 14.2727C4.08077 14.4195 4 14.6185 4 14.8261C4 15.0336 4.08077 15.2327 4.22455 15.3795C4.36833 15.5262 4.56333 15.6087 4.76667 15.6087H5.53333V23.4348C5.53333 23.8499 5.69488 24.248 5.98244 24.5416C6.26999 24.8351 6.66 25 7.06667 25H9.36667C9.77333 25 10.1633 24.8351 10.4509 24.5416C10.7385 24.248 10.9 23.8499 10.9 23.4348V21.8696H20.1V23.4348C20.1 23.8499 20.2615 24.248 20.5491 24.5416C20.8367 24.8351 21.2267 25 21.6333 25H23.9333C24.34 25 24.73 24.8351 25.0176 24.5416C25.3051 24.248 25.4667 23.8499 25.4667 23.4348V15.6087H26.2333C26.4367 15.6087 26.6317 15.5262 26.7754 15.3795C26.9192 15.2327 27 15.0336 27 14.8261C27 14.6185 26.9192 14.4195 26.7754 14.2727C26.6317 14.1259 26.4367 14.0435 26.2333 14.0435ZM10.9 18.7391H9.36667C9.16333 18.7391 8.96833 18.6567 8.82455 18.5099C8.68077 18.3631 8.6 18.1641 8.6 17.9565C8.6 17.749 8.68077 17.5499 8.82455 17.4031C8.96833 17.2564 9.16333 17.1739 9.36667 17.1739H10.9C11.1033 17.1739 11.2983 17.2564 11.4421 17.4031C11.5859 17.5499 11.6667 17.749 11.6667 17.9565C11.6667 18.1641 11.5859 18.3631 11.4421 18.5099C11.2983 18.6567 11.1033 18.7391 10.9 18.7391ZM20.1 18.7391C19.8967 18.7391 19.7017 18.6567 19.5579 18.5099C19.4141 18.3631 19.3333 18.1641 19.3333 17.9565C19.3333 17.749 19.4141 17.5499 19.5579 17.4031C19.7017 17.2564 19.8967 17.1739 20.1 17.1739H21.6333C21.8367 17.1739 22.0317 17.2564 22.1754 17.4031C22.3192 17.5499 22.4 17.749 22.4 17.9565C22.4 18.1641 22.3192 18.3631 22.1754 18.5099C22.0317 18.6567 21.8367 18.7391 21.6333 18.7391H20.1Z" fill="#A6CDEA"/>
</svg>
