<svg width="32" height="32" viewBox="0 0 32 32" fill="none" xmlns="http://www.w3.org/2000/svg">
<rect width="32" height="32" rx="8" fill="#F7F8F9"/>
<path d="M11.875 9.125C11.875 10.6438 10.6438 11.875 9.125 11.875C7.60622 11.875 6.375 10.6438 6.375 9.125C6.375 7.60622 7.60622 6.375 9.125 6.375C10.6438 6.375 11.875 7.60622 11.875 9.125Z" fill="#A59DC3"/>
<path d="M25.625 22.875C25.625 24.3938 24.3938 25.625 22.875 25.625C21.3562 25.625 20.125 24.3938 20.125 22.875C20.125 21.3562 21.3562 20.125 22.875 20.125C24.3938 20.125 25.625 21.3562 25.625 22.875Z" fill="#A59DC3"/>
<path d="M17.375 11.1875C17.375 10.0484 18.2984 9.125 19.4375 9.125C20.5766 9.125 21.5 10.0484 21.5 11.1875V17.375H24.25V11.1875C24.25 8.52962 22.0954 6.375 19.4375 6.375C16.7796 6.375 14.625 8.52962 14.625 11.1875V20.8125C14.625 21.9516 13.7016 22.875 12.5625 22.875C11.4234 22.875 10.5 21.9516 10.5 20.8125V14.625H7.75V20.8125C7.75 23.4704 9.90462 25.625 12.5625 25.625C15.2204 25.625 17.375 23.4704 17.375 20.8125V11.1875Z" fill="#A59DC3"/>
</svg>
