<svg width="32" height="32" viewBox="0 0 32 32" fill="none" xmlns="http://www.w3.org/2000/svg">
<rect width="32" height="32" rx="8" fill="#F6F5FA"/>
<path d="M18.9166 17.6667H18.2583L18.025 17.4417C18.5458 16.8366 18.9264 16.124 19.1396 15.3547C19.3528 14.5854 19.3934 13.7785 19.2583 12.9917C18.8666 10.675 16.9333 8.82501 14.6 8.54168C13.7797 8.4379 12.9465 8.52315 12.1642 8.79092C11.3819 9.05868 10.6712 9.50186 10.0865 10.0865C9.50183 10.6712 9.05865 11.3819 8.79089 12.1642C8.52312 12.9465 8.43787 13.7797 8.54165 14.6C8.82498 16.9333 10.675 18.8667 12.9916 19.2583C13.7784 19.3934 14.5854 19.3528 15.3547 19.1396C16.124 18.9264 16.8366 18.5458 17.4416 18.025L17.6666 18.2583V18.9167L21.2083 22.4583C21.55 22.8 22.1083 22.8 22.45 22.4583C22.7916 22.1167 22.7916 21.5583 22.45 21.2167L18.9166 17.6667ZM13.9166 17.6667C11.8416 17.6667 10.1666 15.9917 10.1666 13.9167C10.1666 11.8417 11.8416 10.1667 13.9166 10.1667C15.9916 10.1667 17.6666 11.8417 17.6666 13.9167C17.6666 15.9917 15.9916 17.6667 13.9166 17.6667Z" fill="#A59DC3"/>
</svg>
