<svg width="32" height="32" viewBox="0 0 32 32" fill="none" xmlns="http://www.w3.org/2000/svg">
<rect width="32" height="32" rx="8" fill="#E5DEFF"/>
<path d="M16.0001 19.2083C15.1492 19.2083 14.3331 18.8703 13.7315 18.2686C13.1298 17.667 12.7918 16.8509 12.7918 16C12.7918 15.1491 13.1298 14.333 13.7315 13.7314C14.3331 13.1297 15.1492 12.7917 16.0001 12.7917C16.851 12.7917 17.6671 13.1297 18.2687 13.7314C18.8704 14.333 19.2084 15.1491 19.2084 16C19.2084 16.8509 18.8704 17.667 18.2687 18.2686C17.6671 18.8703 16.851 19.2083 16.0001 19.2083ZM22.8109 16.8892C22.8476 16.5958 22.8751 16.3025 22.8751 16C22.8751 15.6975 22.8476 15.395 22.8109 15.0833L24.7451 13.5892C24.9193 13.4517 24.9651 13.2042 24.8551 13.0025L23.0218 9.83083C22.9118 9.62916 22.6643 9.54666 22.4626 9.62916L20.1801 10.5458C19.7034 10.1883 19.2084 9.87666 18.6309 9.6475L18.2918 7.21833C18.2731 7.11036 18.2169 7.01247 18.133 6.942C18.0491 6.87153 17.943 6.83304 17.8334 6.83333H14.1668C13.9376 6.83333 13.7451 6.99833 13.7084 7.21833L13.3693 9.6475C12.7918 9.87666 12.2968 10.1883 11.8201 10.5458L9.5376 9.62916C9.33593 9.54666 9.08843 9.62916 8.97843 9.83083L7.1451 13.0025C7.02593 13.2042 7.08093 13.4517 7.2551 13.5892L9.18926 15.0833C9.1526 15.395 9.1251 15.6975 9.1251 16C9.1251 16.3025 9.1526 16.5958 9.18926 16.8892L7.2551 18.4108C7.08093 18.5483 7.02593 18.7958 7.1451 18.9975L8.97843 22.1692C9.08843 22.3708 9.33593 22.4442 9.5376 22.3708L11.8201 21.445C12.2968 21.8117 12.7918 22.1233 13.3693 22.3525L13.7084 24.7817C13.7451 25.0017 13.9376 25.1667 14.1668 25.1667H17.8334C18.0626 25.1667 18.2551 25.0017 18.2918 24.7817L18.6309 22.3525C19.2084 22.1142 19.7034 21.8117 20.1801 21.445L22.4626 22.3708C22.6643 22.4442 22.9118 22.3708 23.0218 22.1692L24.8551 18.9975C24.9651 18.7958 24.9193 18.5483 24.7451 18.4108L22.8109 16.8892Z" fill="#A59DC3"/>
</svg>
