<svg width="32" height="32" viewBox="0 0 32 32" fill="none" xmlns="http://www.w3.org/2000/svg">
<rect width="32" height="32" rx="8" transform="matrix(-1 0 0 1 32 0)" fill="white"/>
<path d="M12.25 13H10.375C9.87772 13 9.40081 13.1975 9.04917 13.5492C8.69754 13.9008 8.5 14.3777 8.5 14.875V23.875C8.5 24.3723 8.69754 24.8492 9.04917 25.2008C9.40081 25.5525 9.87772 25.75 10.375 25.75H21.625C22.1223 25.75 22.5992 25.5525 22.9508 25.2008C23.3025 24.8492 23.5 24.3723 23.5 23.875V14.875C23.5 14.3777 23.3025 13.9008 22.9508 13.5492C22.5992 13.1975 22.1223 13 21.625 13H19.75M12.25 10L16 6.25M16 6.25L19.75 10M16 6.25V19.0469" stroke="#3E4958" stroke-width="1.5" stroke-linecap="round" stroke-linejoin="round"/>
</svg>
