<svg width="32" height="32" viewBox="0 0 32 32" fill="none" xmlns="http://www.w3.org/2000/svg">
<rect width="32" height="32" rx="8" transform="matrix(0 -1 -1 0 32 32)" fill="white"/>
<path d="M25 7.00003H18.25M25 7.00003V13.75M25 7.00003L16.75 15.25M13.4 7.00003C11.16 7.00003 10.04 7.00003 9.184 7.43603C8.43139 7.81952 7.81949 8.43142 7.436 9.18403C7 10.04 7 11.16 7 13.4V18.6C7 20.84 7 21.96 7.436 22.816C7.81949 23.5686 8.43139 24.1805 9.184 24.564C10.04 25 11.16 25 13.4 25H18.6C20.84 25 21.96 25 22.816 24.564C23.5686 24.1805 24.1805 23.5686 24.564 22.816C25 21.96 25 20.84 25 18.6V17.5" stroke="#EA4335" stroke-width="1.5" stroke-linecap="round" stroke-linejoin="round"/>
</svg>
