<svg width="32" height="32" viewBox="0 0 32 32" fill="none" xmlns="http://www.w3.org/2000/svg">
<rect width="32" height="32" rx="8" transform="matrix(-1 0 0 1 32 0)" fill="white"/>
<path d="M22 26C22.7956 26 23.5587 25.6839 24.1213 25.1213C24.6839 24.5587 25 23.7956 25 23C25 22.2044 24.6839 21.4413 24.1213 20.8787C23.5587 20.3161 22.7956 20 22 20C21.2044 20 20.4413 20.3161 19.8787 20.8787C19.3161 21.4413 19 22.2044 19 23C19 23.7956 19.3161 24.5587 19.8787 25.1213C20.4413 25.6839 21.2044 26 22 26ZM22 12C22.7956 12 23.5587 11.6839 24.1213 11.1213C24.6839 10.5587 25 9.79565 25 9C25 8.20435 24.6839 7.44129 24.1213 6.87868C23.5587 6.31607 22.7956 6 22 6C21.2044 6 20.4413 6.31607 19.8787 6.87868C19.3161 7.44129 19 8.20435 19 9C19 9.79565 19.3161 10.5587 19.8787 11.1213C20.4413 11.6839 21.2044 12 22 12ZM10 19C10.7956 19 11.5587 18.6839 12.1213 18.1213C12.6839 17.5587 13 16.7956 13 16C13 15.2044 12.6839 14.4413 12.1213 13.8787C11.5587 13.3161 10.7956 13 10 13C9.20435 13 8.44129 13.3161 7.87868 13.8787C7.31607 14.4413 7 15.2044 7 16C7 16.7956 7.31607 17.5587 7.87868 18.1213C8.44129 18.6839 9.20435 19 10 19Z" fill="#3E4958"/>
<path fill-rule="evenodd" clip-rule="evenodd" d="M19.3483 6.34835C20.0516 5.64509 21.0054 5.25 22 5.25C22.9946 5.25 23.9484 5.64509 24.6517 6.34835C25.3549 7.05161 25.75 8.00544 25.75 9C25.75 9.99456 25.3549 10.9484 24.6517 11.6517C23.9484 12.3549 22.9946 12.75 22 12.75C21.0054 12.75 20.0516 12.3549 19.3483 11.6517C18.6451 10.9484 18.25 9.99456 18.25 9C18.25 8.00544 18.6451 7.05161 19.3483 6.34835ZM22 6.75C21.4033 6.75 20.831 6.98705 20.409 7.40901C19.9871 7.83097 19.75 8.40326 19.75 9C19.75 9.59674 19.9871 10.169 20.409 10.591C20.831 11.0129 21.4033 11.25 22 11.25C22.5967 11.25 23.169 11.0129 23.591 10.591C24.0129 10.169 24.25 9.59674 24.25 9C24.25 8.40326 24.0129 7.83097 23.591 7.40901C23.169 6.98705 22.5967 6.75 22 6.75ZM7.34835 13.3483C8.05161 12.6451 9.00544 12.25 10 12.25C10.9946 12.25 11.9484 12.6451 12.6517 13.3483C13.3549 14.0516 13.75 15.0054 13.75 16C13.75 16.9946 13.3549 17.9484 12.6517 18.6517C11.9484 19.3549 10.9946 19.75 10 19.75C9.00544 19.75 8.05161 19.3549 7.34835 18.6517C6.64509 17.9484 6.25 16.9946 6.25 16C6.25 15.0054 6.64509 14.0516 7.34835 13.3483ZM10 13.75C9.40326 13.75 8.83097 13.9871 8.40901 14.409C7.98705 14.831 7.75 15.4033 7.75 16C7.75 16.5967 7.98705 17.169 8.40901 17.591C8.83097 18.0129 9.40326 18.25 10 18.25C10.5967 18.25 11.169 18.0129 11.591 17.591C12.0129 17.169 12.25 16.5967 12.25 16C12.25 15.4033 12.0129 14.831 11.591 14.409C11.169 13.9871 10.5967 13.75 10 13.75ZM19.3483 20.3483C20.0516 19.6451 21.0054 19.25 22 19.25C22.9946 19.25 23.9484 19.6451 24.6517 20.3483C25.3549 21.0516 25.75 22.0054 25.75 23C25.75 23.9946 25.3549 24.9484 24.6517 25.6517C23.9484 26.3549 22.9946 26.75 22 26.75C21.0054 26.75 20.0516 26.3549 19.3483 25.6517C18.6451 24.9484 18.25 23.9946 18.25 23C18.25 22.0054 18.6451 21.0516 19.3483 20.3483ZM22 20.75C21.4033 20.75 20.831 20.9871 20.409 21.409C19.9871 21.831 19.75 22.4033 19.75 23C19.75 23.5967 19.9871 24.169 20.409 24.591C20.831 25.0129 21.4033 25.25 22 25.25C22.5967 25.25 23.169 25.0129 23.591 24.591C24.0129 24.169 24.25 23.5967 24.25 23C24.25 22.4033 24.0129 21.831 23.591 21.409C23.169 20.9871 22.5967 20.75 22 20.75Z" fill="#3E4958"/>
<path fill-rule="evenodd" clip-rule="evenodd" d="M12.1279 13.8488L19.1279 9.84882L19.8721 11.1512L12.8721 15.1512L12.1279 13.8488ZM19.1279 22.1512L12.1279 18.1512L12.8721 16.8488L19.8721 20.8488L19.1279 22.1512Z" fill="#3E4958"/>
</svg>
