<svg width="32" height="32" viewBox="0 0 32 32" fill="none" xmlns="http://www.w3.org/2000/svg">
<rect width="32" height="32" rx="8" fill="#F7F8F9"/>
<path d="M15.9766 25.2461C14.8906 25.2461 13.9023 25.0547 13.0117 24.6719C12.1211 24.2891 11.4141 23.7344 10.8906 23.0078C10.375 22.2734 10.1289 21.3867 10.1523 20.3477L10.1758 20.2773H13.4922C13.4922 20.7305 13.5938 21.1328 13.7969 21.4844C14 21.8359 14.2852 22.1133 14.6523 22.3164C15.0273 22.5195 15.4688 22.6211 15.9766 22.6211C16.7656 22.6211 17.3867 22.3984 17.8398 21.9531C18.3008 21.5078 18.5312 20.8945 18.5312 20.1133C18.5312 19.3164 18.3047 18.6953 17.8516 18.25C17.3984 17.8047 16.7148 17.582 15.8008 17.582H13.9492V15.0156H15.8711C16.418 15.0156 16.8672 14.9219 17.2188 14.7344C17.5703 14.5391 17.832 14.2656 18.0039 13.9141C18.1758 13.5625 18.2617 13.1484 18.2617 12.6719C18.2617 11.9531 18.0664 11.3828 17.6758 10.9609C17.2852 10.5391 16.7188 10.3281 15.9766 10.3281C15.5312 10.3281 15.1367 10.418 14.793 10.5977C14.4492 10.7695 14.1797 11.0156 13.9844 11.3359C13.7969 11.6562 13.7031 12.0273 13.7031 12.4492H10.3867L10.3633 12.3789C10.3398 11.4727 10.5625 10.668 11.0312 9.96484C11.5 9.25391 12.1602 8.69922 13.0117 8.30078C13.8711 7.89453 14.8516 7.69141 15.9531 7.69141C17.6797 7.69141 19.0664 8.11328 20.1133 8.95703C21.1602 9.79297 21.6836 10.9805 21.6836 12.5195C21.6836 13.3164 21.4609 14.0352 21.0156 14.6758C20.5781 15.3164 19.9219 15.8398 19.0469 16.2461C19.9922 16.582 20.7109 17.0977 21.2031 17.793C21.7031 18.4883 21.9531 19.2969 21.9531 20.2188C21.9531 21.2578 21.6953 22.1523 21.1797 22.9023C20.6641 23.6523 19.9531 24.2305 19.0469 24.6367C18.1484 25.043 17.125 25.2461 15.9766 25.2461Z" fill="#A59DC3"/>
</svg>
