<svg width="32" height="32" viewBox="0 0 32 32" fill="none" xmlns="http://www.w3.org/2000/svg">
<rect width="32" height="32" rx="8" fill="#F7F8F9"/>
<path d="M10.2461 25V22.7617L15.7773 16.8203C16.3398 16.1875 16.7812 15.6367 17.1016 15.168C17.4219 14.6992 17.6484 14.2734 17.7812 13.8906C17.9219 13.5 17.9922 13.1133 17.9922 12.7305C17.9922 12.0664 17.8008 11.5039 17.418 11.043C17.043 10.582 16.4883 10.3516 15.7539 10.3516C14.9648 10.3516 14.3672 10.6094 13.9609 11.125C13.5547 11.6328 13.3516 12.3359 13.3516 13.2344H10.0234L10 13.1641C9.97656 12.1328 10.1953 11.207 10.6562 10.3867C11.125 9.55859 11.7969 8.90234 12.6719 8.41797C13.5547 7.93359 14.5938 7.69141 15.7891 7.69141C16.9609 7.69141 17.9648 7.90234 18.8008 8.32422C19.6445 8.73828 20.293 9.32031 20.7461 10.0703C21.1992 10.8203 21.4258 11.6875 21.4258 12.6719C21.4258 13.3516 21.3047 13.9922 21.0625 14.5938C20.8203 15.1875 20.4414 15.8164 19.9258 16.4805C19.4102 17.1445 18.7461 17.9062 17.9336 18.7656L14.6172 22.3281L14.6406 22.3867H19.0586L19.2344 20.7578H21.8828V25H10.2461Z" fill="#A59DC3"/>
</svg>
