<svg width="32" height="32" viewBox="0 0 32 32" fill="none" xmlns="http://www.w3.org/2000/svg">
<rect width="32" height="32" rx="8" fill="white"/>
<path d="M16 26C10.477 26 6 21.523 6 16C6 10.477 10.477 6 16 6C21.523 6 26 10.477 26 16C26 21.523 21.523 26 16 26Z" stroke="#3E4958" stroke-width="1.5" stroke-linecap="round" stroke-linejoin="round"/>
<path d="M20.5 18.5C20.5 18.5 19 20.5 16 20.5C13 20.5 11.5 18.5 11.5 18.5" stroke="#3E4958" stroke-width="1.5" stroke-linecap="round" stroke-linejoin="round"/>
<path d="M19.5 13C19.3674 13 19.2402 12.9473 19.1464 12.8536C19.0527 12.7598 19 12.6326 19 12.5C19 12.3674 19.0527 12.2402 19.1464 12.1464C19.2402 12.0527 19.3674 12 19.5 12C19.6326 12 19.7598 12.0527 19.8536 12.1464C19.9473 12.2402 20 12.3674 20 12.5C20 12.6326 19.9473 12.7598 19.8536 12.8536C19.7598 12.9473 19.6326 13 19.5 13ZM12.5 13C12.3674 13 12.2402 12.9473 12.1464 12.8536C12.0527 12.7598 12 12.6326 12 12.5C12 12.3674 12.0527 12.2402 12.1464 12.1464C12.2402 12.0527 12.3674 12 12.5 12C12.6326 12 12.7598 12.0527 12.8536 12.1464C12.9473 12.2402 13 12.3674 13 12.5C13 12.6326 12.9473 12.7598 12.8536 12.8536C12.7598 12.9473 12.6326 13 12.5 13Z" fill="#3E4958" stroke="#3E4958" stroke-width="1.5" stroke-linecap="round" stroke-linejoin="round"/>
</svg>
