<svg width="32" height="32" viewBox="0 0 32 32" fill="none" xmlns="http://www.w3.org/2000/svg">
<rect width="32" height="32" rx="8" fill="#FFE7E7"/>
<path d="M17.2499 11.8333H14.7499C13.8333 11.8333 13.0833 12.5833 13.0833 13.5V18.5C13.0833 19.4166 13.8333 20.1666 14.7499 20.1666H17.2499C18.1666 20.1666 18.9166 19.4166 18.9166 18.5V13.5C18.9166 12.5833 18.1666 11.8333 17.2499 11.8333ZM17.2499 18.5H14.7499V13.5H17.2499V18.5ZM6.83325 18.5H10.1666V16.8333H8.49992C7.58325 16.8333 6.83325 16.0833 6.83325 15.1666V13.5C6.83325 12.5833 7.58325 11.8333 8.49992 11.8333H11.8333V13.5H8.49992V15.1666H10.1666C11.0833 15.1666 11.8333 15.9166 11.8333 16.8333V18.5C11.8333 19.4166 11.0833 20.1666 10.1666 20.1666H6.83325V18.5ZM20.1666 18.5H23.4999V16.8333H21.8333C20.9166 16.8333 20.1666 16.0833 20.1666 15.1666V13.5C20.1666 12.5833 20.9166 11.8333 21.8333 11.8333H25.1666V13.5H21.8333V15.1666H23.4999C24.4166 15.1666 25.1666 15.9166 25.1666 16.8333V18.5C25.1666 19.4166 24.4166 20.1666 23.4999 20.1666H20.1666V18.5Z" fill="#F38686"/>
</svg>
