<svg width="32" height="32" viewBox="0 0 32 32" fill="none" xmlns="http://www.w3.org/2000/svg">
<rect width="32" height="32" rx="8" fill="#EEFAF3"/>
<g clip-path="url(#clip0_817_13201)">
<path d="M22.25 11H25.5C25.5413 11.0001 25.5816 10.9879 25.6159 10.965C25.6503 10.9421 25.677 10.9096 25.6928 10.8715C25.7086 10.8333 25.7128 10.7914 25.7047 10.7509C25.6966 10.7105 25.6767 10.6733 25.6475 10.6442L21.3558 6.35418C21.3268 6.32507 21.2898 6.3052 21.2495 6.29707C21.2092 6.28895 21.1674 6.29294 21.1293 6.30853C21.0913 6.32412 21.0587 6.35063 21.0357 6.3847C21.0127 6.41877 21.0003 6.4589 21 6.50001V9.75001C21 10.0815 21.1317 10.3995 21.3661 10.6339C21.6005 10.8683 21.9185 11 22.25 11Z" fill="#A2C1AE"/>
<path d="M20.1666 9.75V6.20667C20.1661 6.1517 20.144 6.09914 20.105 6.06043C20.066 6.02172 20.0132 6 19.9583 6H10.9999C10.5579 6 10.134 6.17559 9.82141 6.48816C9.50885 6.80072 9.33325 7.22464 9.33325 7.66667V11.9017C9.33338 11.9356 9.34176 11.969 9.35769 11.999C9.37361 12.029 9.39659 12.0546 9.42465 12.0738C9.4527 12.0929 9.48499 12.1049 9.51872 12.1087C9.55245 12.1126 9.58661 12.1081 9.61825 12.0958C10.4631 11.76 11.4011 11.7424 12.2579 12.0465C13.1146 12.3506 13.8318 12.9555 14.2758 13.7488C14.7199 14.5421 14.8607 15.4697 14.672 16.359C14.4832 17.2483 13.9779 18.0388 13.2499 18.5833C13.1996 18.6215 13.1584 18.6706 13.1296 18.7269C13.1007 18.7831 13.0849 18.8451 13.0833 18.9083C13.0833 18.9275 13.0833 18.9467 13.0833 18.9658C13.0937 19.0683 13.1424 19.163 13.2197 19.2311C13.2969 19.2993 13.397 19.3358 13.4999 19.3333H14.3333C15.1068 19.3333 15.8487 19.6406 16.3956 20.1876C16.9426 20.7346 17.2499 21.4765 17.2499 22.25C17.2497 22.5627 17.1792 22.8714 17.0434 23.1532C16.9077 23.4349 16.7102 23.6825 16.4658 23.8775C16.4356 23.9012 16.4126 23.9329 16.3995 23.969C16.3864 24.0051 16.3837 24.0441 16.3916 24.0817C16.4078 24.164 16.4162 24.2477 16.4166 24.3317V25.165C16.4154 25.3574 16.3873 25.5487 16.3333 25.7333C16.3245 25.7643 16.323 25.797 16.329 25.8286C16.335 25.8603 16.3482 25.8902 16.3677 25.9158C16.3872 25.9415 16.4123 25.9623 16.4412 25.9767C16.4701 25.991 16.5019 25.9984 16.5341 25.9983H24.3333C24.7753 25.9983 25.1992 25.8227 25.5118 25.5102C25.8243 25.1976 25.9999 24.7737 25.9999 24.3317V12.04C25.9995 11.985 25.9773 11.9325 25.9383 11.8938C25.8993 11.8551 25.8465 11.8333 25.7916 11.8333H22.2499C21.6974 11.8333 21.1675 11.6138 20.7768 11.2231C20.3861 10.8324 20.1666 10.3025 20.1666 9.75Z" fill="#A2C1AE"/>
<path d="M15.1666 25.1666V24.5416C15.1666 24.4864 15.1446 24.4334 15.1056 24.3943C15.0665 24.3553 15.0135 24.3333 14.9583 24.3333H7.04159C6.98633 24.3333 6.93334 24.3553 6.89427 24.3943C6.8552 24.4334 6.83325 24.4864 6.83325 24.5416V25.1666C6.83325 25.3877 6.92105 25.5996 7.07733 25.7559C7.23361 25.9122 7.44557 26 7.66659 26H14.3333C14.5543 26 14.7662 25.9122 14.9225 25.7559C15.0788 25.5996 15.1666 25.3877 15.1666 25.1666Z" fill="#A2C1AE"/>
<path d="M6.83333 23.0833H15.1667C15.3877 23.0833 15.5996 22.9955 15.7559 22.8392C15.9122 22.683 16 22.471 16 22.25C16 21.808 15.8244 21.384 15.5118 21.0715C15.1993 20.7589 14.7754 20.5833 14.3333 20.5833H13.5C13.0662 20.5835 12.6495 20.4146 12.3383 20.1124C12.027 19.8102 11.8459 19.3986 11.8333 18.965C11.8261 18.6982 11.8828 18.4335 11.9988 18.1932C12.1148 17.9528 12.2867 17.7437 12.5 17.5833C12.9198 17.2685 13.2298 16.8296 13.3863 16.3287C13.5427 15.8279 13.5376 15.2905 13.3717 14.7927C13.2058 14.295 12.8874 13.862 12.4618 13.5552C12.0361 13.2484 11.5247 13.0833 11 13.0833C10.4753 13.0833 9.96389 13.2484 9.53822 13.5552C9.11256 13.862 8.79422 14.295 8.62829 14.7927C8.46237 15.2905 8.45727 15.8279 8.61372 16.3287C8.77017 16.8296 9.08023 17.2685 9.5 17.5833C9.71255 17.7433 9.8839 17.9516 9.99984 18.191C10.1158 18.4304 10.173 18.694 10.1667 18.96C10.1554 19.3945 9.9748 19.8073 9.66345 20.1106C9.35211 20.4138 8.93462 20.5835 8.5 20.5833H7.66667C7.22464 20.5833 6.80072 20.7589 6.48816 21.0715C6.17559 21.384 6 21.808 6 22.25C6 22.471 6.0878 22.683 6.24408 22.8392C6.40036 22.9955 6.61232 23.0833 6.83333 23.0833Z" fill="#A2C1AE"/>
</g>
<defs>
<clipPath id="clip0_817_13201">
<rect width="20" height="20" fill="white" transform="translate(6 6)"/>
</clipPath>
</defs>
</svg>
