<svg width="32" height="32" viewBox="0 0 32 32" fill="none" xmlns="http://www.w3.org/2000/svg">
<rect width="32" height="32" rx="8" fill="white"/>
<g clip-path="url(#clip0_721_23418)">
<path d="M12.587 12.236L15.185 7.004C15.2606 6.85259 15.3769 6.72523 15.5209 6.63622C15.6648 6.54721 15.8307 6.50006 16 6.50006C16.1692 6.50006 16.3351 6.54721 16.4791 6.63622C16.6231 6.72523 16.7394 6.85259 16.815 7.004L19.413 12.236L25.221 13.08C25.3885 13.1032 25.5461 13.1731 25.6759 13.2816C25.8056 13.3901 25.9022 13.5329 25.9546 13.6937C26.0071 13.8545 26.0133 14.0268 25.9725 14.191C25.9317 14.3551 25.8456 14.5045 25.724 14.622L21.522 18.692L22.514 24.442C22.641 25.18 21.861 25.742 21.194 25.394L16 22.678L10.805 25.394C10.139 25.743 9.35899 25.18 9.48599 24.441L10.478 18.691L6.27599 14.621C6.15498 14.5034 6.06939 14.3542 6.02896 14.1903C5.98852 14.0265 5.99487 13.8546 6.04726 13.6941C6.09966 13.5337 6.19601 13.3912 6.32536 13.2828C6.45471 13.1744 6.61188 13.1045 6.77899 13.081L12.587 12.236Z" stroke="#EA4335" stroke-width="1.5" stroke-linecap="round" stroke-linejoin="round"/>
<path d="M16 6.35001C15.518 6.35001 15.036 6.60001 14.788 7.10201L12.43 11.88L7.15699 12.646C6.04999 12.806 5.60699 14.168 6.40899 14.949L10.224 18.668L9.32399 23.918C9.17399 24.792 9.86799 25.501 10.655 25.5C10.863 25.5 11.077 25.45 11.285 25.342L15.999 22.863L20.714 25.342C21.704 25.862 22.862 25.022 22.674 23.919L21.772 18.668L25.588 14.948C26.388 14.168 25.947 12.807 24.84 12.646L19.567 11.88L17.209 7.10201C17.0989 6.87519 16.9268 6.68419 16.7127 6.55111C16.4985 6.41803 16.2511 6.3483 15.999 6.35001M15.999 21.343V8.04201L18.256 12.614C18.3527 12.8103 18.4958 12.9802 18.6728 13.1089C18.8498 13.2376 19.0554 13.3214 19.272 13.353L24.322 14.087L20.668 17.649C20.5113 17.8018 20.3941 17.9904 20.3265 18.1986C20.2589 18.4068 20.2429 18.6283 20.28 18.844L21.142 23.873L16.626 21.498C16.4326 21.3964 16.2174 21.3432 15.999 21.343Z" fill="#EA4335"/>
</g>
<defs>
<clipPath id="clip0_721_23418">
<rect width="24" height="24" fill="white" transform="translate(4 4)"/>
</clipPath>
</defs>
</svg>
