<svg width="32" height="32" viewBox="0 0 32 32" fill="none" xmlns="http://www.w3.org/2000/svg">
<rect width="32" height="32" rx="8" fill="white"/>
<g clip-path="url(#clip0_721_23429)">
<path d="M12.587 12.236L15.185 7.004C15.2606 6.85259 15.3769 6.72523 15.5209 6.63622C15.6648 6.54721 15.8307 6.50006 16 6.50006C16.1692 6.50006 16.3351 6.54721 16.4791 6.63622C16.6231 6.72523 16.7394 6.85259 16.815 7.004L19.413 12.236L25.221 13.08C25.3885 13.1032 25.5461 13.1731 25.6759 13.2816C25.8056 13.3901 25.9022 13.5329 25.9546 13.6937C26.0071 13.8545 26.0133 14.0268 25.9725 14.191C25.9317 14.3551 25.8456 14.5045 25.724 14.622L21.522 18.692L22.514 24.442C22.641 25.18 21.861 25.742 21.194 25.394L16 22.678L10.805 25.394C10.139 25.743 9.35899 25.18 9.48599 24.441L10.478 18.691L6.27599 14.621C6.15498 14.5034 6.06939 14.3542 6.02896 14.1903C5.98852 14.0265 5.99487 13.8546 6.04726 13.6941C6.09966 13.5337 6.19601 13.3912 6.32536 13.2828C6.45471 13.1744 6.61188 13.1045 6.77899 13.081L12.587 12.236Z" stroke="#EA4335" stroke-width="1.5" stroke-linecap="round" stroke-linejoin="round"/>
</g>
<defs>
<clipPath id="clip0_721_23429">
<rect width="24" height="24" fill="white" transform="translate(4 4)"/>
</clipPath>
</defs>
</svg>
