<svg width="32" height="32" viewBox="0 0 32 32" fill="none" xmlns="http://www.w3.org/2000/svg">
<rect width="32" height="32" rx="8" fill="#F6F5FA"/>
<path d="M11.1875 17.375H7.0625C6.6828 17.375 6.375 17.6828 6.375 18.0625V24.9375C6.375 25.3172 6.6828 25.625 7.0625 25.625H11.1875C11.5672 25.625 11.875 25.3172 11.875 24.9375V18.0625C11.875 17.6828 11.5672 17.375 11.1875 17.375Z" fill="#A59DC3"/>
<path d="M24.9375 11.875H20.8125C20.4328 11.875 20.125 12.1828 20.125 12.5625V24.9375C20.125 25.3172 20.4328 25.625 20.8125 25.625H24.9375C25.3172 25.625 25.625 25.3172 25.625 24.9375V12.5625C25.625 12.1828 25.3172 11.875 24.9375 11.875Z" fill="#A59DC3"/>
<path d="M18.0625 6.375H13.9375C13.5578 6.375 13.25 6.6828 13.25 7.0625V24.9375C13.25 25.3172 13.5578 25.625 13.9375 25.625H18.0625C18.4422 25.625 18.75 25.3172 18.75 24.9375V7.0625C18.75 6.6828 18.4422 6.375 18.0625 6.375Z" fill="#A59DC3"/>
</svg>
