<svg width="32" height="32" viewBox="0 0 32 32" fill="none" xmlns="http://www.w3.org/2000/svg">
<rect width="32" height="32" rx="8" fill="white"/>
<path fill-rule="evenodd" clip-rule="evenodd" d="M21.9747 11.7752C22.1502 11.9509 22.2488 12.1892 22.2488 12.4377C22.2488 12.6861 22.1502 12.9244 21.9747 13.1002L14.3534 20.7214C14.2654 20.8093 14.1608 20.8788 14.0457 20.9259C13.9306 20.973 13.8073 20.9967 13.6829 20.9956C13.5586 20.9946 13.4356 20.9688 13.3213 20.9198C13.207 20.8708 13.1036 20.7995 13.0172 20.7102L10.0134 17.6052C9.92701 17.5168 9.85893 17.4123 9.81307 17.2976C9.76721 17.1829 9.74448 17.0602 9.74618 16.9367C9.74788 16.8132 9.77399 16.6912 9.82299 16.5778C9.87199 16.4644 9.94292 16.3617 10.0317 16.2758C10.1205 16.1899 10.2254 16.1224 10.3404 16.0772C10.4553 16.032 10.5781 16.0099 10.7016 16.0123C10.8251 16.0146 10.947 16.0414 11.0601 16.091C11.1733 16.1407 11.2755 16.2121 11.3609 16.3014L13.7022 18.7214L20.6497 11.7752C20.8254 11.5996 21.0637 11.501 21.3122 11.501C21.5606 11.501 21.7989 11.5996 21.9747 11.7752Z" fill="#90DB90"/>
</svg>
