<svg width="32" height="32" viewBox="0 0 32 32" fill="none" xmlns="http://www.w3.org/2000/svg">
<rect width="32" height="32" rx="8" fill="#FFE4FE"/>
<g clip-path="url(#clip0_817_13124)">
<path fill-rule="evenodd" clip-rule="evenodd" d="M15.9777 6.57127C15.2611 6.55833 14.5489 6.68684 13.882 6.94943C13.2151 7.21203 12.6065 7.60357 12.0911 8.10163C11.5757 8.5997 11.1635 9.19451 10.8783 9.85204C10.593 10.5096 10.4402 11.2169 10.4286 11.9336V19.4284C10.4286 19.8831 10.248 20.3191 9.92647 20.6406C9.60498 20.9621 9.16894 21.1427 8.71429 21.1427H6.57143C5.88944 21.1427 5.23539 20.8718 4.75315 20.3895C4.27092 19.9073 4 19.2533 4 18.5713V15.1427C4 14.4607 4.27092 13.8067 4.75315 13.3244C5.23539 12.8422 5.88944 12.5713 6.57143 12.5713H7.85714V11.9027C7.87278 10.8491 8.09583 9.80888 8.51353 8.84148C8.93123 7.87408 9.53542 6.99843 10.2916 6.26456C11.0477 5.53069 11.9411 4.95297 12.9205 4.56438C13.9 4.1758 14.9464 3.98397 16 3.99984C17.0536 3.98397 18.1 4.1758 19.0795 4.56438C20.0589 4.95297 20.9523 5.53069 21.7084 6.26456C22.4646 6.99843 23.0688 7.87408 23.4865 8.84148C23.9042 9.80888 24.1272 10.8491 24.1429 11.9027V12.5713H25.4286C26.1106 12.5713 26.7646 12.8422 27.2468 13.3244C27.7291 13.8067 28 14.4607 28 15.1427V18.5713C28 19.2533 27.7291 19.9073 27.2468 20.3895C26.7646 20.8718 26.1106 21.1427 25.4286 21.1427H24.1429V21.9998C24.1431 23.1583 23.7168 24.2763 22.9452 25.1404C22.1737 26.0046 21.1111 26.5544 19.96 26.685C19.7365 27.0841 19.4105 27.4163 19.0158 27.6475C18.621 27.8786 18.1717 28.0002 17.7143 27.9998H15.1429C14.4609 27.9998 13.8068 27.7289 13.3246 27.2467C12.8423 26.7645 12.5714 26.1104 12.5714 25.4284C12.5714 24.7464 12.8423 24.0924 13.3246 23.6101C13.8068 23.1279 14.4609 22.857 15.1429 22.857H17.7143C18.6434 22.857 19.4577 23.349 19.9086 24.0878C20.3811 23.9792 20.8028 23.7136 21.1048 23.3344C21.4068 22.9551 21.5713 22.4847 21.5714 21.9998V11.9318C21.5597 11.2115 21.4052 10.5006 21.1171 9.84033C20.8289 9.18003 20.4127 8.5834 19.8926 8.08493C19.3724 7.58646 18.7586 7.19603 18.0867 6.93622C17.4147 6.67641 16.6979 6.55237 15.9777 6.57127Z" fill="#DAB1D9"/>
</g>
<defs>
<clipPath id="clip0_817_13124">
<rect width="24" height="24" fill="white" transform="translate(4 4)"/>
</clipPath>
</defs>
</svg>
