<svg width="32" height="32" viewBox="0 0 32 32" fill="none" xmlns="http://www.w3.org/2000/svg">
<rect width="32" height="32" rx="8" fill="white"/>
<path d="M17.12 6.06003L11.58 11.6C11.21 11.97 11 12.48 11 13.01V23C11 24.1 11.9 25 13 25H22C22.8 25 23.52 24.52 23.84 23.79L27.1 16.18C27.94 14.2 26.49 12 24.34 12H18.69L19.64 7.42003C19.74 6.92003 19.59 6.41003 19.23 6.05003C18.64 5.47003 17.7 5.47003 17.12 6.06003ZM7 25C8.1 25 9 24.1 9 23V15C9 13.9 8.1 13 7 13C5.9 13 5 13.9 5 15V23C5 24.1 5.9 25 7 25Z" fill="#3E4958"/>
</svg>
