<svg width="32" height="32" viewBox="0 0 32 32" fill="none" xmlns="http://www.w3.org/2000/svg">
<rect width="32" height="32" rx="8" fill="white"/>
<path d="M17.12 24.5562L11.58 19.0162C11.21 18.6462 11 18.1362 11 17.6062V7.61624C11 6.51624 11.9 5.61624 13 5.61624H22C22.8 5.61624 23.52 6.09624 23.84 6.82624L27.1 14.4362C27.94 16.4162 26.49 18.6162 24.34 18.6162H18.69L19.64 23.1962C19.74 23.6962 19.59 24.2062 19.23 24.5662C18.64 25.1462 17.7 25.1462 17.12 24.5562ZM7 5.61624C8.1 5.61624 9 6.51624 9 7.61624V15.6162C9 16.7162 8.1 17.6162 7 17.6162C5.9 17.6162 5 16.7162 5 15.6162V7.61624C5 6.51624 5.9 5.61624 7 5.61624Z" fill="#3E4958"/>
</svg>
