<svg width="32" height="32" viewBox="0 0 32 32" fill="none" xmlns="http://www.w3.org/2000/svg">
<rect width="32" height="32" rx="8" fill="white"/>
<path d="M20.472 7.99999H8.1C7.94087 7.99999 7.78826 8.06321 7.67574 8.17573C7.56321 8.28825 7.5 8.44086 7.5 8.59999V18.4C7.5 18.5591 7.56321 18.7117 7.67574 18.8243C7.78826 18.9368 7.94087 19 8.1 19H10.868C11.2134 19 11.5529 19.0894 11.8534 19.2596C12.1539 19.4297 12.4053 19.6748 12.583 19.971L15.293 24.488C15.4974 24.8291 15.8194 25.0839 16.1984 25.2042C16.5774 25.3246 16.9874 25.3024 17.3512 25.1417C17.7149 24.981 18.0075 24.6929 18.1737 24.3317C18.34 23.9704 18.3685 23.5608 18.254 23.18L17.232 19.772C17.2052 19.6825 17.1997 19.588 17.2159 19.4959C17.2321 19.4039 17.2696 19.317 17.3253 19.242C17.3811 19.167 17.4536 19.1061 17.537 19.0641C17.6205 19.0221 17.7126 19.0001 17.806 19H22.382C22.6895 18.9999 22.9928 18.9289 23.2683 18.7926C23.5439 18.6562 23.7843 18.4582 23.9709 18.2138C24.1575 17.9695 24.2853 17.6854 24.3443 17.3837C24.4032 17.0819 24.3919 16.7706 24.311 16.474L22.401 9.47399C22.2857 9.05092 22.0345 8.67747 21.6861 8.41114C21.3378 8.1448 20.9105 8.00034 20.472 7.99999Z" stroke="#3E4958" stroke-width="1.5" stroke-linecap="round"/>
<path d="M11 8V19" stroke="#3E4958" stroke-width="1.5" stroke-linecap="round" stroke-linejoin="round"/>
</svg>
