<svg width="32" height="32" viewBox="0 0 32 32" fill="none" xmlns="http://www.w3.org/2000/svg">
<rect width="32" height="32" rx="8" fill="white"/>
<path d="M20.472 24H8.1C7.94087 24 7.78826 23.9368 7.67574 23.8243C7.56321 23.7118 7.5 23.5591 7.5 23.4V13.6C7.5 13.4409 7.56321 13.2883 7.67574 13.1757C7.78826 13.0632 7.94087 13 8.1 13H10.868C11.2134 13 11.5529 12.9106 11.8534 12.7404C12.1539 12.5703 12.4053 12.3252 12.583 12.029L15.293 7.51201C15.4974 7.17086 15.8194 6.91614 16.1984 6.79576C16.5774 6.67538 16.9874 6.69763 17.3512 6.85832C17.7149 7.01902 18.0075 7.30708 18.1737 7.66835C18.34 8.02961 18.3685 8.43917 18.254 8.82001L17.232 12.228C17.2052 12.3175 17.1997 12.412 17.2159 12.5041C17.2321 12.5961 17.2696 12.683 17.3253 12.758C17.3811 12.833 17.4536 12.8939 17.537 12.9359C17.6205 12.9779 17.7126 12.9999 17.806 13H22.382C22.6895 13.0001 22.9928 13.0711 23.2683 13.2074C23.5439 13.3438 23.7843 13.5418 23.9709 13.7862C24.1575 14.0305 24.2853 14.3146 24.3443 14.6163C24.4032 14.9181 24.3919 15.2294 24.311 15.526L22.401 22.526C22.2857 22.9491 22.0345 23.3225 21.6861 23.5889C21.3378 23.8552 20.9105 23.9997 20.472 24Z" stroke="#3E4958" stroke-width="1.5" stroke-linecap="round"/>
<path d="M11 24V13" stroke="#3E4958" stroke-width="1.5" stroke-linecap="round" stroke-linejoin="round"/>
</svg>
