<svg width="32" height="32" viewBox="0 0 32 32" fill="none" xmlns="http://www.w3.org/2000/svg">
<rect width="32" height="32" rx="8" fill="#F7F8F9"/>
<g clip-path="url(#clip0_2094_33250)">
<path d="M23.4999 18.6895C22.9599 18.8425 22.3944 18.9415 21.8154 18.9805L18.9429 20.9245C18.0742 21.5126 17.0491 21.8269 15.9999 21.8269C14.9508 21.8269 13.9257 21.5126 13.0569 20.9245L8.49995 17.8405V21.25C8.49995 21.4285 8.56445 21.601 8.67995 21.7375L8.68295 21.742L8.69195 21.7525L8.72195 21.784L8.82395 21.895C8.91295 21.99 9.03995 22.115 9.20495 22.27C9.53495 22.5745 10.0194 22.978 10.6434 23.38C11.8884 24.184 13.7169 25 15.9999 25C18.2829 25 20.1099 24.184 21.3564 23.38C21.9804 22.978 22.4649 22.5745 22.7949 22.27C22.9621 22.1142 23.1232 21.9521 23.2779 21.784L23.3079 21.7525L23.3169 21.742L23.3199 21.7375L23.3214 21.736C23.4368 21.6003 23.5 21.4281 23.4999 21.25V18.6895ZM5.83895 12.973L13.4769 7.978C13.0859 9.07598 12.9318 10.2443 13.0249 11.4062C13.1179 12.568 13.456 13.6969 14.0169 14.7187C14.5778 15.7404 15.3487 16.6317 16.279 17.334C17.2092 18.0362 18.2777 18.5335 19.4139 18.793L18.1029 19.6825C17.4824 20.1026 16.7501 20.3272 16.0007 20.3272C15.2513 20.3272 14.519 20.1026 13.8984 19.6825L6.99995 15.013V19.75C6.99995 19.9489 6.92093 20.1397 6.78028 20.2803C6.63962 20.421 6.44886 20.5 6.24995 20.5C6.05103 20.5 5.86027 20.421 5.71962 20.2803C5.57896 20.1397 5.49995 19.9489 5.49995 19.75V13.75C5.49995 13.724 5.50095 13.699 5.50295 13.675C5.48937 13.5384 5.51352 13.4008 5.57277 13.277C5.63201 13.1532 5.72408 13.0481 5.83895 12.973Z" fill="#A59DC3"/>
<path fill-rule="evenodd" clip-rule="evenodd" d="M21.5 17C25.0899 17 28 14.0899 28 10.5C28 6.91015 25.0899 4 21.5 4C17.9101 4 15 6.91015 15 10.5C15 14.0899 17.9101 17 21.5 17ZM25 8.49326C25 8.36243 24.9448 8.23695 24.8465 8.14438C24.7481 8.05193 24.6147 8 24.4756 8C24.3365 8 24.2031 8.05193 24.1047 8.14438L20.2149 11.8023L18.9041 10.528C18.8563 10.4809 18.799 10.4433 18.7357 10.4172C18.6723 10.391 18.6041 10.3769 18.535 10.3757C18.4658 10.3744 18.3971 10.3861 18.3327 10.4099C18.2683 10.4337 18.2096 10.4693 18.1599 10.5145C18.1102 10.5597 18.0705 10.6138 18.0431 10.6735C18.0156 10.7332 18.001 10.7974 18 10.8625C17.9991 10.9276 18.0118 10.9921 18.0375 11.0526C18.0632 11.113 18.1013 11.168 18.1497 11.2145L19.8314 12.8496C19.8798 12.8967 19.9377 12.9342 20.0017 12.96C20.0657 12.9859 20.1345 12.9994 20.2041 13C20.2738 13.0005 20.3428 12.988 20.4073 12.9633C20.4717 12.9385 20.5303 12.9019 20.5795 12.8556L24.8465 8.84214C24.9448 8.74957 25 8.62409 25 8.49326Z" fill="#A59DC3"/>
</g>
<defs>
<clipPath id="clip0_2094_33250">
<rect width="24" height="24" fill="white" transform="translate(4 4)"/>
</clipPath>
</defs>
</svg>
