<svg width="32" height="32" viewBox="0 0 32 32" fill="none" xmlns="http://www.w3.org/2000/svg">
<rect width="32" height="32" rx="8" fill="#F7F8F9"/>
<path d="M14.3206 7.37824C14.8456 7.1292 15.4194 7 16.0005 7C16.5816 7 17.1554 7.1292 17.6804 7.37824L27.4278 11.9962C27.5976 12.0766 27.7414 12.2031 27.8425 12.3614C27.9437 12.5197 27.9983 12.7033 28 12.8912C28.0016 13.079 27.9503 13.2635 27.852 13.4236C27.7536 13.5837 27.6122 13.7128 27.4438 13.7962L17.7444 18.6081C17.2025 18.8773 16.6056 19.0174 16.0005 19.0174C15.3954 19.0174 14.7985 18.8773 14.2566 18.6081L6.00111 14.5121V19.0001C6.00111 19.2653 5.89576 19.5196 5.70824 19.7072C5.52071 19.8947 5.26637 20.0001 5.00117 20.0001C4.73597 20.0001 4.48163 19.8947 4.29411 19.7072C4.10658 19.5196 4.00123 19.2653 4.00123 19.0001V12.9502C3.9914 12.7524 4.04051 12.5561 4.14234 12.3863C4.24417 12.2165 4.39412 12.0807 4.5732 11.9962L14.3206 7.37824ZM8.00099 17.7381V21.0001C8.00102 21.1316 8.027 21.2619 8.07745 21.3833C8.1279 21.5048 8.20182 21.6152 8.29498 21.708L8.29898 21.714L8.34497 21.756L8.46497 21.868C8.56496 21.9614 8.70962 22.086 8.89894 22.242C9.27292 22.548 9.81289 22.952 10.4868 23.358C11.8268 24.16 13.7547 25 16.0005 25C18.2464 25 20.1763 24.16 21.5142 23.358C22.234 22.9259 22.9116 22.427 23.5381 21.868L23.6581 21.756L23.6901 21.724L23.7021 21.712L23.7041 21.71L23.7081 21.708C23.8009 21.615 23.8744 21.5046 23.9245 21.3831C23.9746 21.2616 24.0003 21.1315 24 21.0001V17.7361L18.6324 20.4001C17.8144 20.8061 16.9137 21.0173 16.0005 21.0173C15.0874 21.0173 14.1866 20.8061 13.3687 20.4001L8.00099 17.7381Z" fill="#A59DC3"/>
</svg>
