<svg width="32" height="32" viewBox="0 0 32 32" fill="none" xmlns="http://www.w3.org/2000/svg">
<rect width="32" height="32" rx="8" fill="#FFE4FE"/>
<path d="M6.34009 18.2917V13.7083H7.25675V18.2917H6.34009ZM8.87834 20.125V11.875H9.795V20.125H8.87834ZM24.7431 18.2917V13.7083H25.6598V18.2917H24.7431ZM22.2048 20.125V11.875H23.1215V20.125H22.2048ZM12.897 23.3333C12.49 23.3333 12.1417 23.1882 11.852 22.8979C11.5617 22.6082 11.4166 22.2599 11.4166 21.8529V10.1471C11.4166 9.74007 11.5617 9.39174 11.852 9.10207C12.1417 8.8118 12.49 8.66666 12.897 8.66666H19.1028C19.5098 8.66666 19.8582 8.8118 20.1478 9.10207C20.4381 9.39174 20.5833 9.74007 20.5833 10.1471V21.8529C20.5833 22.2599 20.4381 22.6082 20.1478 22.8979C19.8582 23.1882 19.5098 23.3333 19.1028 23.3333H12.897Z" fill="#DAB1D9"/>
</svg>
