<svg width="32" height="32" viewBox="0 0 32 32" fill="none" xmlns="http://www.w3.org/2000/svg">
<rect width="32" height="32" rx="8" fill="#F7F8F9"/>
<path fill-rule="evenodd" clip-rule="evenodd" d="M16 25C17.1819 25 18.3522 24.7672 19.4442 24.3149C20.5361 23.8626 21.5282 23.1997 22.364 22.364C23.1997 21.5282 23.8626 20.5361 24.3149 19.4442C24.7672 18.3522 25 17.1819 25 16C25 14.8181 24.7672 13.6478 24.3149 12.5558C23.8626 11.4639 23.1997 10.4718 22.364 9.63604C21.5282 8.80031 20.5361 8.13738 19.4442 7.68508C18.3522 7.23279 17.1819 7 16 7C13.6131 7 11.3239 7.94821 9.63604 9.63604C7.94821 11.3239 7 13.6131 7 16C7 18.3869 7.94821 20.6761 9.63604 22.364C11.3239 24.0518 13.6131 25 16 25ZM14.783 11.99L20.427 15.126C20.5828 15.2126 20.7126 15.3393 20.803 15.493C20.8934 15.6467 20.9411 15.8217 20.9411 16C20.9411 16.1783 20.8934 16.3533 20.803 16.507C20.7126 16.6607 20.5828 16.7874 20.427 16.874L14.783 20.01C14.6002 20.1116 14.3941 20.1636 14.1851 20.161C13.976 20.1584 13.7712 20.1013 13.5911 19.9952C13.4109 19.8891 13.2616 19.7377 13.1579 19.5562C13.0542 19.3746 12.9998 19.1691 13 18.96V13.04C12.9998 12.8309 13.0542 12.6254 13.1579 12.4438C13.2616 12.2623 13.4109 12.1109 13.5911 12.0048C13.7712 11.8987 13.976 11.8416 14.1851 11.839C14.3941 11.8364 14.6002 11.8884 14.783 11.99Z" fill="#A59DC3"/>
</svg>
