<svg width="32" height="32" viewBox="0 0 32 32" fill="none" xmlns="http://www.w3.org/2000/svg">
<rect width="32" height="32" rx="8" fill="#EEFAF3"/>
<path d="M8.47656 8.875H23.4766C23.6518 8.87491 23.8268 8.88603 24.0006 8.90828C23.9417 8.49473 23.7997 8.0974 23.583 7.74024C23.3664 7.38308 23.0797 7.07348 22.7402 6.83012C22.4007 6.58676 22.0154 6.41467 21.6076 6.32423C21.1998 6.2338 20.7779 6.22688 20.3673 6.3039L8.03125 8.41H8.01719C7.24285 8.55807 6.55425 8.99618 6.09203 9.63484C6.7884 9.13952 7.622 8.87389 8.47656 8.875ZM23.4766 10H8.47656C7.68118 10.0009 6.91862 10.3172 6.3562 10.8796C5.79378 11.4421 5.47743 12.2046 5.47656 13V22C5.47743 22.7954 5.79378 23.5579 6.3562 24.1204C6.91862 24.6828 7.68118 24.9991 8.47656 25H23.4766C24.2719 24.9991 25.0345 24.6828 25.5969 24.1204C26.1593 23.5579 26.4757 22.7954 26.4766 22V13C26.4757 12.2046 26.1593 11.4421 25.5969 10.8796C25.0345 10.3172 24.2719 10.0009 23.4766 10ZM21.25 19C20.9533 19 20.6633 18.912 20.4166 18.7472C20.17 18.5824 19.9777 18.3481 19.8642 18.074C19.7506 17.7999 19.7209 17.4983 19.7788 17.2074C19.8367 16.9164 19.9796 16.6491 20.1893 16.4393C20.3991 16.2296 20.6664 16.0867 20.9574 16.0288C21.2483 15.9709 21.5499 16.0006 21.824 16.1142C22.0981 16.2277 22.3324 16.42 22.4972 16.6666C22.662 16.9133 22.75 17.2033 22.75 17.5C22.75 17.8978 22.592 18.2794 22.3107 18.5607C22.0294 18.842 21.6478 19 21.25 19Z" fill="#A2C1AE"/>
<path d="M5.5 16.1641V11.5C5.5 10.4842 6.0625 8.78125 8.01484 8.41234C9.67188 8.10156 11.3125 8.10156 11.3125 8.10156C11.3125 8.10156 12.3906 8.85156 11.5 8.85156C10.6094 8.85156 10.6328 10 11.5 10C12.3672 10 11.5 11.1016 11.5 11.1016L8.00781 15.0625L5.5 16.1641Z" fill="#A2C1AE"/>
</svg>
