<svg width="32" height="32" viewBox="0 0 32 32" fill="none" xmlns="http://www.w3.org/2000/svg">
<rect width="32" height="32" rx="8" fill="#FFEEC1"/>
<g clip-path="url(#clip0_817_12882)">
<path d="M16 6C21.523 6 26 10.477 26 16C26 21.523 21.523 26 16 26C10.477 26 6 21.523 6 16C6 10.477 10.477 6 16 6ZM16 19C15.7348 19 15.4804 19.1054 15.2929 19.2929C15.1054 19.4804 15 19.7348 15 20C15 20.2652 15.1054 20.5196 15.2929 20.7071C15.4804 20.8946 15.7348 21 16 21C16.2652 21 16.5196 20.8946 16.7071 20.7071C16.8946 20.5196 17 20.2652 17 20C17 19.7348 16.8946 19.4804 16.7071 19.2929C16.5196 19.1054 16.2652 19 16 19ZM16 10C15.7551 10 15.5187 10.09 15.3356 10.2527C15.1526 10.4155 15.0357 10.6397 15.007 10.883L15 11V17C15.0003 17.2549 15.0979 17.5 15.2728 17.6854C15.4478 17.8707 15.687 17.9822 15.9414 17.9972C16.1958 18.0121 16.4464 17.9293 16.6418 17.7657C16.8373 17.6021 16.9629 17.3701 16.993 17.117L17 17V11C17 10.7348 16.8946 10.4804 16.7071 10.2929C16.5196 10.1054 16.2652 10 16 10Z" fill="#FFC167"/>
</g>
<defs>
<clipPath id="clip0_817_12882">
<rect width="24" height="24" fill="white" transform="translate(4 4)"/>
</clipPath>
</defs>
</svg>
