<svg width="32" height="32" viewBox="0 0 32 32" fill="none" xmlns="http://www.w3.org/2000/svg">
<rect width="32" height="32" rx="8" fill="#F6F5FA"/>
<g clip-path="url(#clip0_2002_35938)">
<path d="M16 6C14.0222 6 12.0888 6.58649 10.4443 7.6853C8.79981 8.78412 7.51809 10.3459 6.76121 12.1732C6.00433 14.0004 5.8063 16.0111 6.19215 17.9509C6.578 19.8907 7.53041 21.6725 8.92894 23.0711C10.3275 24.4696 12.1093 25.422 14.0491 25.8079C15.9889 26.1937 17.9996 25.9957 19.8268 25.2388C21.6541 24.4819 23.2159 23.2002 24.3147 21.5557C25.4135 19.9112 26 17.9778 26 16C25.9971 13.3487 24.9426 10.8068 23.0679 8.9321C21.1932 7.05736 18.6513 6.00287 16 6ZM16 8.91667C17.3925 8.91753 18.7539 9.32912 19.9136 10.0999C21.0734 10.8707 21.98 11.9665 22.52 13.25C22.5355 13.2863 22.5403 13.3262 22.534 13.3652C22.5276 13.4041 22.5103 13.4405 22.4842 13.47C22.458 13.4995 22.4239 13.5209 22.386 13.5319C22.3481 13.5428 22.3079 13.5427 22.27 13.5317C18.1655 12.3996 13.8312 12.3996 9.72667 13.5317C9.6888 13.5427 9.64856 13.5428 9.61065 13.5319C9.57274 13.5209 9.53871 13.4995 9.51252 13.47C9.48633 13.4405 9.46905 13.4041 9.46271 13.3652C9.45636 13.3262 9.4612 13.2863 9.47667 13.25C10.0169 11.9659 10.9241 10.8698 12.0845 10.099C13.2449 9.32816 14.6069 8.91688 16 8.91667ZM17.25 16C17.25 16.2472 17.1767 16.4889 17.0393 16.6945C16.902 16.9 16.7068 17.0602 16.4784 17.1549C16.25 17.2495 15.9986 17.2742 15.7561 17.226C15.5137 17.1778 15.2909 17.0587 15.1161 16.8839C14.9413 16.7091 14.8223 16.4863 14.774 16.2439C14.7258 16.0014 14.7505 15.7501 14.8452 15.5216C14.9398 15.2932 15.1 15.098 15.3055 14.9607C15.5111 14.8233 15.7528 14.75 16 14.75C16.3315 14.75 16.6495 14.8817 16.8839 15.1161C17.1183 15.3505 17.25 15.6685 17.25 16ZM9.33334 16.8333C10.0566 16.8334 10.7713 16.9905 11.428 17.2936C12.0848 17.5967 12.6679 18.0387 13.1372 18.589C13.6065 19.1394 13.9509 19.785 14.1464 20.4814C14.342 21.1778 14.3842 21.9083 14.27 22.6225C14.2655 22.6518 14.2548 22.6797 14.2386 22.7044C14.2223 22.7292 14.2009 22.7501 14.1758 22.7658C14.1512 22.7811 14.1237 22.7911 14.095 22.7953C14.0663 22.7994 14.0371 22.7976 14.0092 22.79C12.7194 22.4103 11.5643 21.6713 10.6789 20.6595C9.79345 19.6476 9.21433 18.4046 9.00917 17.0758C9.00438 17.0464 9.006 17.0163 9.01391 16.9875C9.02182 16.9587 9.03583 16.932 9.055 16.9092C9.07319 16.8872 9.09563 16.8692 9.12098 16.8561C9.14634 16.8431 9.17407 16.8353 9.2025 16.8333H9.33334ZM17.905 22.815C17.8874 22.8205 17.8689 22.8222 17.8506 22.82C17.8323 22.8178 17.8147 22.8117 17.7989 22.8021C17.7832 22.7926 17.7696 22.7798 17.7592 22.7647C17.7487 22.7495 17.7416 22.7323 17.7383 22.7142C17.6851 22.4237 17.6611 22.1286 17.6667 21.8333C17.668 20.5077 18.1952 19.2367 19.1326 18.2993C20.07 17.3619 21.341 16.8347 22.6667 16.8333C22.7149 16.8334 22.763 16.8365 22.8108 16.8425C22.8392 16.8456 22.8667 16.8546 22.8913 16.869C22.916 16.8833 22.9374 16.9027 22.9542 16.9258C22.9715 16.9482 22.9842 16.9738 22.9913 17.0011C22.9985 17.0285 23 17.057 22.9958 17.085C22.7864 18.4278 22.1951 19.6821 21.2924 20.6981C20.3897 21.7141 19.2138 22.4489 17.905 22.815Z" fill="#A59DC3"/>
</g>
<defs>
<clipPath id="clip0_2002_35938">
<rect width="20" height="20" fill="white" transform="translate(6 6)"/>
</clipPath>
</defs>
</svg>
